<svg xmlns="http://www.w3.org/2000/svg" viewBox="0 0 273.66 87.36"><defs><style>.cls-1{fill:#1e1f20;}.cls-2{fill:#fff;}</style></defs><g id="Livello_2" data-name="Livello 2"><g id="Livello_1-2" data-name="Livello 1"><path class="cls-1" d="M111,66.69a10.43,10.43,0,0,1,.66-3.81A8.4,8.4,0,0,1,113.49,60a8.26,8.26,0,0,1,2.77-1.83,9.14,9.14,0,0,1,3.46-.64,8.92,8.92,0,0,1,2.62.38,9.28,9.28,0,0,1,2.25,1,8.35,8.35,0,0,1,1.83,1.57,10.46,10.46,0,0,1,1.36,1.94V57.9h.8V75.48a8.78,8.78,0,0,1-.76,3.83,7.46,7.46,0,0,1-2.06,2.62,8.35,8.35,0,0,1-2.94,1.5,12.41,12.41,0,0,1-3.43.48,15.14,15.14,0,0,1-3.59-.42,14.82,14.82,0,0,1-3.29-1.23v-.88a15.5,15.5,0,0,0,3.27,1.28,13.52,13.52,0,0,0,3.54.44,11.14,11.14,0,0,0,3.17-.44,7.65,7.65,0,0,0,2.67-1.35A6.55,6.55,0,0,0,127,78.94a7.93,7.93,0,0,0,.7-3.46V70.94a9.14,9.14,0,0,1-1.3,1.92,8.53,8.53,0,0,1-1.82,1.56,9.28,9.28,0,0,1-2.25,1,8.92,8.92,0,0,1-2.62.38,9.14,9.14,0,0,1-3.46-.64,8.26,8.26,0,0,1-2.77-1.83,8.45,8.45,0,0,1-1.83-2.88A10.35,10.35,0,0,1,111,66.69ZM127.71,64a8.73,8.73,0,0,0-1.16-2.22,8.25,8.25,0,0,0-6.76-3.46,8.49,8.49,0,0,0-3.13.57,7.22,7.22,0,0,0-2.51,1.65,7.57,7.57,0,0,0-1.66,2.62,10.37,10.37,0,0,0,0,7,7.57,7.57,0,0,0,1.66,2.64,7.22,7.22,0,0,0,2.51,1.65,8.49,8.49,0,0,0,3.13.56,8,8,0,0,0,2.7-.44,8.24,8.24,0,0,0,2.28-1.19,8.08,8.08,0,0,0,1.78-1.77,8.45,8.45,0,0,0,1.16-2.2Z"/><path class="cls-1" d="M137.74,61.11a8.49,8.49,0,0,1,4-3.1,8.18,8.18,0,0,1,2.82-.47v.88a7.13,7.13,0,0,0-3,.53,7.75,7.75,0,0,0-2.35,1.5,8.62,8.62,0,0,0-1.65,2.14,10.07,10.07,0,0,0-1,2.46V75.48h-.88V57.9h.81v5.39A9.79,9.79,0,0,1,137.74,61.11Z"/><path class="cls-1" d="M146.57,66.69a9.62,9.62,0,0,1,.75-3.9,8.72,8.72,0,0,1,2-2.87,8.38,8.38,0,0,1,2.9-1.78,10,10,0,0,1,6.83,0,8.45,8.45,0,0,1,2.87,1.78,8.75,8.75,0,0,1,2,2.87,10.52,10.52,0,0,1,0,7.8A8.48,8.48,0,0,1,159,75.25a10,10,0,0,1-6.83,0,8.54,8.54,0,0,1-2.9-1.78,8.66,8.66,0,0,1-2-2.88A9.55,9.55,0,0,1,146.57,66.69Zm17.21,0a9,9,0,0,0-.66-3.53,7.53,7.53,0,0,0-4.39-4.23,9.1,9.1,0,0,0-6.23,0,7.62,7.62,0,0,0-2.6,1.61,7.53,7.53,0,0,0-1.79,2.62,9.8,9.8,0,0,0,0,7.07,7.53,7.53,0,0,0,1.79,2.62,7.78,7.78,0,0,0,2.6,1.61,9.1,9.1,0,0,0,6.23,0,7.88,7.88,0,0,0,2.6-1.61,7.67,7.67,0,0,0,1.79-2.62A9,9,0,0,0,163.78,66.69Z"/><path class="cls-1" d="M185.43,57.9V75.48h-.81v-4A10.23,10.23,0,0,1,183.49,73a9.51,9.51,0,0,1-1.65,1.4,9.85,9.85,0,0,1-2.13,1.06,7.62,7.62,0,0,1-2.6.42,7.5,7.5,0,0,1-2.71-.48A6,6,0,0,1,172.24,74a6.47,6.47,0,0,1-1.43-2.25,8.43,8.43,0,0,1-.51-3V57.9h.88V68.63a7.59,7.59,0,0,0,.46,2.75,5.51,5.51,0,0,0,1.26,2,5.44,5.44,0,0,0,1.91,1.22,6.58,6.58,0,0,0,2.38.42,7.1,7.1,0,0,0,2.56-.44A8.34,8.34,0,0,0,183.43,72a11,11,0,0,0,1.12-1.65V57.9Z"/><path class="cls-1" d="M193.41,62.48a10.46,10.46,0,0,1,1.36-1.94A8.35,8.35,0,0,1,196.6,59a9.28,9.28,0,0,1,2.25-1,8.92,8.92,0,0,1,2.62-.38,9.1,9.1,0,0,1,3.46.64A8.26,8.26,0,0,1,207.7,60a8.4,8.4,0,0,1,1.83,2.87,11.33,11.33,0,0,1,0,7.62,8.45,8.45,0,0,1-1.83,2.88,8.26,8.26,0,0,1-2.77,1.83,9.1,9.1,0,0,1-3.46.64,8.92,8.92,0,0,1-2.62-.38,9.28,9.28,0,0,1-2.25-1,8.43,8.43,0,0,1-1.81-1.54,8.32,8.32,0,0,1-1.3-1.9V83.54h-.88V57.9h.8Zm15.9,4.21a9.4,9.4,0,0,0-.61-3.49,7.83,7.83,0,0,0-1.64-2.64,7,7,0,0,0-2.51-1.65,8.64,8.64,0,0,0-3.15-.57,8.32,8.32,0,0,0-6.76,3.46A8.38,8.38,0,0,0,193.49,64v5.35a8.18,8.18,0,0,0,1.15,2.21,8.24,8.24,0,0,0,4.06,3,8,8,0,0,0,2.7.44,8.49,8.49,0,0,0,3.13-.56A7.22,7.22,0,0,0,207,72.83a7.57,7.57,0,0,0,1.66-2.62A9.45,9.45,0,0,0,209.31,66.69Z"/><path class="cls-1" d="M64.92,0H22.44A22.44,22.44,0,0,0,0,22.44V64.92A22.44,22.44,0,0,0,22.44,87.36H64.92A22.43,22.43,0,0,0,87.36,64.92V22.44A22.44,22.44,0,0,0,64.92,0Z"/><path class="cls-2" d="M55.12,54.12v2.44s18.69-5,21.92-15S56.46,31.17,47,32.51,19.64,38.66,12.15,45.6c4.81-2.05,14.74-8.75,35.8-9S64.42,47.1,61.43,49.54,55.12,54.12,55.12,54.12Z"/><path class="cls-2" d="M24.21,46.7s11.51-6.38,21.13-5,6.23,5.6,4.73,7h5s6.23-4,2.92-7.25-17.82-4.18-27.52.79C24.13,45.84,24.21,46.7,24.21,46.7Z"/><path class="cls-1" d="M137,39H123.7l-2.32,7.53H111L125.78,6.24h9.12l14.89,40.28H139.36Zm-11-7.5h8.65l-4.34-14Z"/><path class="cls-1" d="M165,39.88a4.14,4.14,0,0,0,3-1.07,3.89,3.89,0,0,0,1-3h8.74a10.34,10.34,0,0,1-3.53,8.08,13.1,13.1,0,0,1-9.08,3.15c-4.35,0-7.79-1.37-10.29-4.1s-3.76-6.51-3.76-11.34v-.38a18.15,18.15,0,0,1,1.67-8,12.06,12.06,0,0,1,4.83-5.34A14.33,14.33,0,0,1,165.09,16q5.83,0,9.26,3.24A11.46,11.46,0,0,1,177.78,28H169a5.15,5.15,0,0,0-1.13-3.57,3.93,3.93,0,0,0-3-1.25q-3.62,0-4.23,4.62a32.65,32.65,0,0,0-.19,4q0,4.52,1.08,6.25A3.72,3.72,0,0,0,165,39.88Z"/><path class="cls-1" d="M180.55,31.27a17.73,17.73,0,0,1,1.74-8,12.48,12.48,0,0,1,5-5.38A15.1,15.1,0,0,1,195,16q6.72,0,10.6,4.16t3.87,11.33v.33q0,7-3.89,11.11T195,47.07a14,14,0,0,1-10.27-3.83q-3.87-3.84-4.17-10.39Zm9.32.58q0,4.15,1.3,6.09A4.34,4.34,0,0,0,195,39.88q5,0,5.09-7.67v-.94q0-8-5.15-8-4.68,0-5.06,7Z"/><path class="cls-1" d="M224.39,9.14v7.44h4.93v6.48h-4.93V36.75A3.51,3.51,0,0,0,225,39.1a3.29,3.29,0,0,0,2.41.67,13.61,13.61,0,0,0,2.32-.17v6.67a17.3,17.3,0,0,1-5.25.8q-4.81,0-7.11-2.27t-2.3-6.89V23.06h-3.82V16.58h3.82V9.14Z"/><path class="cls-1" d="M247.47,47.07q-6.9,0-11.15-4.11a14.18,14.18,0,0,1-4.26-10.69v-.78a18.41,18.41,0,0,1,1.7-8.1,12.52,12.52,0,0,1,5-5.44A15,15,0,0,1,246.47,16q6.3,0,10,3.92t3.65,10.91v3.62H241.55a6.74,6.74,0,0,0,2.18,4,6.5,6.5,0,0,0,4.37,1.44,8.4,8.4,0,0,0,6.92-3.1l4.26,5a11.86,11.86,0,0,1-4.94,3.83A16.68,16.68,0,0,1,247.47,47.07Zm-1.05-23.85c-2.73,0-4.36,1.81-4.87,5.43H251v-.72a4.64,4.64,0,0,0-1.13-3.48A4.53,4.53,0,0,0,246.42,23.22Z"/><path class="cls-1" d="M273.66,46.52h-9.35V4h9.35Z"/></g></g></svg>