<svg id="Logo" xmlns="http://www.w3.org/2000/svg" viewBox="0 0 1256.33 334.52"><defs><style>.cls-1{opacity:0.7;}.cls-2{fill:#35a8e0;}.cls-3{fill:#93c01f;}</style></defs><title>RZ_TBW_SSC_Logo_RGB</title><g class="cls-1"><path class="cls-2" d="M367,361.24l-164.44,49.7L77.25,293.38l39.18-167.26,164.44-49.7L406.13,194Zm-148.49-18.4L316,313.38l23.23-99.16-74.26-69.7L167.43,174,144.2,273.15Z" transform="translate(-77.25 -76.42)"/></g><g class="cls-1"><path class="cls-3" d="M392.05,371.84,228.41,389.71l-97.3-132.78,66.34-150.65L361.09,88.4l97.3,132.79ZM255.42,328.37l97-10.59,39.34-89.32-57.69-78.72-97,10.6-39.33,89.32Z" transform="translate(-77.25 -76.42)"/></g><path d="M449.21,237.52,365.07,91.79a6.93,6.93,0,1,0-10.75-7.11H185.88a6.92,6.92,0,1,0-11.61,7L90.09,237.49a6.92,6.92,0,0,0,.6,13.81,6.61,6.61,0,0,0,1.1-.11l82.53,142.94a6.92,6.92,0,1,0,11.6,6.92H354.59a6.92,6.92,0,1,0,10.79-7.64l82.09-142.19a7.71,7.71,0,0,0,.84.08,6.92,6.92,0,0,0,.9-13.78Zm-3.13.3a6.93,6.93,0,0,0-4.71,6.55c0,.07,0,.14,0,.21l-57.93,3.74a6.85,6.85,0,0,0-9.87-4.36L314,171.57a6.89,6.89,0,0,0-.52-9.23l45.18-69.77a6.79,6.79,0,0,0,2.47.48,7.2,7.2,0,0,0,1.32-.13ZM354.27,398.19h-168a7,7,0,0,0-.6-2.24l111.43-83.39a6.78,6.78,0,0,0,7,1.26L356.24,394A6.87,6.87,0,0,0,354.27,398.19ZM97.62,244.34a6.92,6.92,0,0,0-4.46-6.44L176.6,93.37a6.91,6.91,0,0,0,2.73.57l34.72,170.25a6.9,6.9,0,0,0-3.58,3.57ZM356.21,91,311.05,160.8a6.85,6.85,0,0,0-8.19,2.53l-117-73.91a6.84,6.84,0,0,0,.4-1.88H354.32A6.91,6.91,0,0,0,356.21,91Zm13.68,158.59L222.65,266.86a.35.35,0,0,1-.05-.08l81.29-94.42a6.92,6.92,0,0,0,4.68,1.84,6.78,6.78,0,0,0,3.19-.82l59.62,72.4A6.91,6.91,0,0,0,369.89,249.62ZM184.34,91.84,301.75,166a7.24,7.24,0,0,0-.12,1.24,7,7,0,0,0,.55,2.71l-81.6,94.77a7,7,0,0,0-3.73-1.12L182.13,93.37A6.69,6.69,0,0,0,184.34,91.84Zm34.12,185.43a6.85,6.85,0,0,0,4-2.73L294.83,306a7.15,7.15,0,0,0-.14,1.4,6.93,6.93,0,0,0,.66,2.91L183.93,393.66a6.87,6.87,0,0,0-1.29-.89l33.64-115.35A6.71,6.71,0,0,0,218.46,277.27Zm87.68,24.86A6.87,6.87,0,0,0,296,303.36l-72.41-31.44a6.75,6.75,0,0,0,.06-2.29l146.65-17.18a5.36,5.36,0,0,0,.24.6ZM97,247.14l112.85,23.42a7.1,7.1,0,0,0,.18,1.64,6.92,6.92,0,0,0,3.47,4.43L179.89,392c-.17,0-.34-.05-.52-.05a7,7,0,0,0-2.71.55L94.5,250.15A6.88,6.88,0,0,0,97,247.14Zm265.78,145a7.08,7.08,0,0,0-1.67-.22,6.85,6.85,0,0,0-2.49.48l-52.12-80.12a6.93,6.93,0,0,0,2-4.91,6.86,6.86,0,0,0-.69-3l64.4-49.08a6.83,6.83,0,0,0,4.5,1.7,6.92,6.92,0,0,0,6.83-5.85l58.49-3.77a6.85,6.85,0,0,0,2.62,2.87Z" transform="translate(-77.25 -76.42)"/><path d="M558.4,167.5h-6.55V83.75h6.55Z" transform="translate(-77.25 -76.42)"/><path d="M632.09,167.5h-6.56L586,96.17V167.5H579.4V83.75H586l39.57,71.44V83.75h6.5Z" transform="translate(-77.25 -76.42)"/><path d="M698.23,90H674.42V167.5h-6.61V90H644.05V83.75h54.18Z" transform="translate(-77.25 -76.42)"/><path d="M750.75,127.4h-32.5v34h37.38v6.1H711.69V83.75h43.66V90h-37.1v31.35h32.5Z" transform="translate(-77.25 -76.42)"/><path d="M776.86,161.4h34.51v6.1H770.25V83.75h6.61Z" transform="translate(-77.25 -76.42)"/><path d="M831.5,161.4H866v6.1H824.89V83.75h6.61Z" transform="translate(-77.25 -76.42)"/><path d="M887.29,167.5h-6.55V83.75h6.55Z" transform="translate(-77.25 -76.42)"/><path d="M959.31,157.77a36.33,36.33,0,0,1-2.82,3.11,23.57,23.57,0,0,1-4.8,3.57,32.94,32.94,0,0,1-7.17,3,34.88,34.88,0,0,1-9.77,1.24,29.23,29.23,0,0,1-11.42-2.16,23.39,23.39,0,0,1-8.8-6.41,30.11,30.11,0,0,1-5.67-10.56,48,48,0,0,1-2-14.58V115.73a51.16,51.16,0,0,1,1.81-14.32A28.73,28.73,0,0,1,913.92,91a22,22,0,0,1,8.46-6.29,28.81,28.81,0,0,1,11.39-2.13,30.36,30.36,0,0,1,10.5,1.67A21.18,21.18,0,0,1,952,89.1a22.09,22.09,0,0,1,5,7.79,35.39,35.39,0,0,1,2.22,10.5h-6.56A34,34,0,0,0,951,99.62a16.75,16.75,0,0,0-3.51-5.86,14.89,14.89,0,0,0-5.64-3.69,22.89,22.89,0,0,0-8-1.26q-10.25,0-15.33,6.82t-5.09,20v19.33a42.75,42.75,0,0,0,1.49,11.93,24.9,24.9,0,0,0,4.26,8.63,17.85,17.85,0,0,0,6.7,5.27,21.32,21.32,0,0,0,8.89,1.78,27.39,27.39,0,0,0,7-.81,26.14,26.14,0,0,0,5.24-1.92,19.09,19.09,0,0,0,3.56-2.3c.92-.79,1.63-1.43,2.13-1.93v-21.8H934.34v-6.16h25Z" transform="translate(-77.25 -76.42)"/><path d="M1017.23,127.4h-32.5v34h37.39v6.1h-44V83.75h43.66V90h-37.1v31.35h32.5Z" transform="translate(-77.25 -76.42)"/><path d="M1089.41,167.5h-6.55l-39.52-71.33V167.5h-6.61V83.75h6.61l39.57,71.44V83.75h6.5Z" transform="translate(-77.25 -76.42)"/><path d="M1155.56,90h-23.81V167.5h-6.62V90h-23.75V83.75h54.18Z" transform="translate(-77.25 -76.42)"/><path d="M589.7,245.2H557.2v34h37.38v6.09H550.64V201.55H594.3v6.21H557.2v31.35h32.5Z" transform="translate(-77.25 -76.42)"/><path d="M661.88,285.29h-6.56L615.81,214v71.32h-6.62V201.55h6.62L655.38,273V201.55h6.5Z" transform="translate(-77.25 -76.42)"/><path d="M720.84,245.2h-32.5v34h37.38v6.09H681.78V201.55h43.66v6.21h-37.1v31.35h32.5Z" transform="translate(-77.25 -76.42)"/><path d="M766.39,250.44H746.83v34.85h-6.61V201.55h22.95a29.25,29.25,0,0,1,10,1.61,20,20,0,0,1,7.56,4.74,20.93,20.93,0,0,1,4.77,7.74,31,31,0,0,1,1.67,10.58,28.22,28.22,0,0,1-1,7.77,24.07,24.07,0,0,1-2.94,6.55,21.19,21.19,0,0,1-4.57,5.09,20.08,20.08,0,0,1-5.9,3.31l17.43,35.6v.75h-7Zm-19.56-6.1h17.49a16,16,0,0,0,7.1-1.5,14.53,14.53,0,0,0,5.09-4,17.66,17.66,0,0,0,3-5.78,22.65,22.65,0,0,0,1-6.85,24.85,24.85,0,0,0-1.12-7.68,15.71,15.71,0,0,0-3.34-5.81,14.92,14.92,0,0,0-5.47-3.68,20.18,20.18,0,0,0-7.5-1.29H746.83Z" transform="translate(-77.25 -76.42)"/><path d="M856.12,275.57a33.23,33.23,0,0,1-2.82,3.11,23.19,23.19,0,0,1-4.8,3.56,32.35,32.35,0,0,1-7.16,3,34.93,34.93,0,0,1-9.78,1.23,29.23,29.23,0,0,1-11.42-2.15,23.47,23.47,0,0,1-8.8-6.41,30.09,30.09,0,0,1-5.66-10.56,47.69,47.69,0,0,1-2-14.58V233.53a51.27,51.27,0,0,1,1.82-14.33,28.52,28.52,0,0,1,5.26-10.38,22,22,0,0,1,8.45-6.3,29,29,0,0,1,11.39-2.12,30.61,30.61,0,0,1,10.5,1.66,21.28,21.28,0,0,1,7.76,4.83,22.2,22.2,0,0,1,5,7.8,35.32,35.32,0,0,1,2.21,10.5h-6.55a34,34,0,0,0-1.7-7.77,16.88,16.88,0,0,0-3.51-5.87,14.79,14.79,0,0,0-5.64-3.68,22.89,22.89,0,0,0-8-1.26q-10.25,0-15.33,6.81t-5.09,20v19.33a42.78,42.78,0,0,0,1.5,11.93A24.8,24.8,0,0,0,816,273.3a17.73,17.73,0,0,0,6.7,5.26,21.32,21.32,0,0,0,8.89,1.79,27.47,27.47,0,0,0,7-.81,26.9,26.9,0,0,0,5.23-1.92,18.39,18.39,0,0,0,3.57-2.31q1.38-1.17,2.13-1.92v-21.8H831.16v-6.16h25Z" transform="translate(-77.25 -76.42)"/><path d="M895.81,247.1l20.88-45.55h7.53L899,253.77v31.52h-6.56V253.77l-25.13-52.22h7.71Z" transform="translate(-77.25 -76.42)"/><path d="M1002.33,264.7a19.43,19.43,0,0,0-.89-6.12,12.57,12.57,0,0,0-3.05-4.87,22.35,22.35,0,0,0-5.78-4,70.75,70.75,0,0,0-9-3.68,74.62,74.62,0,0,1-9.52-3.89,29.76,29.76,0,0,1-7.22-4.88,19.22,19.22,0,0,1-4.6-6.5,23.61,23.61,0,0,1,.14-17.49,19.92,19.92,0,0,1,4.89-6.84,22.22,22.22,0,0,1,7.48-4.43,27.63,27.63,0,0,1,9.58-1.58,25.16,25.16,0,0,1,10.12,1.95,22.74,22.74,0,0,1,7.65,5.35,23.13,23.13,0,0,1,4.83,8,28.45,28.45,0,0,1,1.67,9.8H1002a23,23,0,0,0-1.18-7.53,17.13,17.13,0,0,0-3.42-6,15.26,15.26,0,0,0-5.52-3.94,18.94,18.94,0,0,0-7.53-1.41,20.9,20.9,0,0,0-7.45,1.21,14.84,14.84,0,0,0-5.32,3.3,13.8,13.8,0,0,0-3.22,4.89,16.18,16.18,0,0,0-1.1,6,15.44,15.44,0,0,0,1,5.49,12.75,12.75,0,0,0,3.14,4.63,24.58,24.58,0,0,0,5.72,4,55.79,55.79,0,0,0,8.66,3.53,69.58,69.58,0,0,1,10,4.06,29.15,29.15,0,0,1,7.3,5.15,19.58,19.58,0,0,1,4.49,6.81,24.5,24.5,0,0,1,1.52,8.95,22.2,22.2,0,0,1-1.81,9.17,19.71,19.71,0,0,1-5,6.87,22.39,22.39,0,0,1-7.65,4.32,30.22,30.22,0,0,1-9.73,1.49,32.17,32.17,0,0,1-9.43-1.43,24.93,24.93,0,0,1-8.45-4.46,22.84,22.84,0,0,1-6.1-7.77,25.43,25.43,0,0,1-2.36-11.41H965a20.33,20.33,0,0,0,1.75,8.91,16.61,16.61,0,0,0,4.58,5.87,17.67,17.67,0,0,0,6.35,3.22,26.66,26.66,0,0,0,7.1,1,22.43,22.43,0,0,0,7.28-1.12,15.89,15.89,0,0,0,5.52-3.17,13.77,13.77,0,0,0,3.51-4.92A16,16,0,0,0,1002.33,264.7Z" transform="translate(-77.25 -76.42)"/><path d="M1044.72,247.1l20.88-45.55h7.53l-25.19,52.22v31.52h-6.55V253.77l-25.14-52.22H1024Z" transform="translate(-77.25 -76.42)"/><path d="M1123.87,264.7a19.43,19.43,0,0,0-.89-6.12,12.69,12.69,0,0,0-3-4.87,22.52,22.52,0,0,0-5.78-4,70.35,70.35,0,0,0-9-3.68,74.45,74.45,0,0,1-9.51-3.89,29.76,29.76,0,0,1-7.22-4.88,19.22,19.22,0,0,1-4.6-6.5,21.52,21.52,0,0,1-1.61-8.66,21.75,21.75,0,0,1,1.75-8.83,19.92,19.92,0,0,1,4.89-6.84,22.22,22.22,0,0,1,7.48-4.43,27.61,27.61,0,0,1,9.57-1.58,25.13,25.13,0,0,1,10.12,1.95,22.68,22.68,0,0,1,7.66,5.35,23.44,23.44,0,0,1,4.83,8,28.45,28.45,0,0,1,1.67,9.8h-6.62a23,23,0,0,0-1.18-7.53,17.13,17.13,0,0,0-3.42-6,15.35,15.35,0,0,0-5.52-3.94,19,19,0,0,0-7.54-1.41,20.93,20.93,0,0,0-7.45,1.21,15,15,0,0,0-5.32,3.3,14.07,14.07,0,0,0-3.22,4.89,16.18,16.18,0,0,0-1.09,6,15.44,15.44,0,0,0,1,5.49,12.85,12.85,0,0,0,3.13,4.63,24.87,24.87,0,0,0,5.73,4,55.64,55.64,0,0,0,8.65,3.53,69.11,69.11,0,0,1,10,4.06,29,29,0,0,1,7.31,5.15,19.41,19.41,0,0,1,4.48,6.81,24.29,24.29,0,0,1,1.53,8.95,22.37,22.37,0,0,1-1.81,9.17,19.61,19.61,0,0,1-5,6.87A22.21,22.21,0,0,1,1116,285a30.12,30.12,0,0,1-9.72,1.49,32.12,32.12,0,0,1-9.43-1.43,24.84,24.84,0,0,1-8.45-4.46,22.72,22.72,0,0,1-6.1-7.77,25.3,25.3,0,0,1-2.36-11.41h6.56a20.33,20.33,0,0,0,1.75,8.91,16.7,16.7,0,0,0,4.57,5.87,17.71,17.71,0,0,0,6.36,3.22,26.66,26.66,0,0,0,7.1,1,22.43,22.43,0,0,0,7.28-1.12,16,16,0,0,0,5.52-3.17,13.89,13.89,0,0,0,3.51-4.92A16.18,16.18,0,0,0,1123.87,264.7Z" transform="translate(-77.25 -76.42)"/><path d="M1193.35,207.76h-23.81v77.53h-6.62V207.76h-23.75v-6.21h54.18Z" transform="translate(-77.25 -76.42)"/><path d="M1245.86,245.2h-32.49v34h37.38v6.09h-43.94V201.55h43.65v6.21h-37.09v31.35h32.49Z" transform="translate(-77.25 -76.42)"/><path d="M1274.05,201.55l25.36,73.68,25.48-73.68h8.69v83.74H1327V248.88l.57-36.41-25.65,72.82h-5.06l-25.54-72.47.58,36.06v36.41h-6.56V201.55Z" transform="translate(-77.25 -76.42)"/><path d="M590,382.5a19.14,19.14,0,0,0-.89-6.12,12.35,12.35,0,0,0-3.05-4.86,22,22,0,0,0-5.78-4,69.56,69.56,0,0,0-9-3.68,76.73,76.73,0,0,1-9.52-3.89,30.15,30.15,0,0,1-7.22-4.88,19.5,19.5,0,0,1-4.6-6.5,23.54,23.54,0,0,1,.15-17.49,19.79,19.79,0,0,1,4.89-6.84,22.27,22.27,0,0,1,7.47-4.43,27.71,27.71,0,0,1,9.58-1.59,25.13,25.13,0,0,1,10.12,2,22.74,22.74,0,0,1,7.65,5.35,23.13,23.13,0,0,1,4.83,8,28.14,28.14,0,0,1,1.67,9.8h-6.61a23,23,0,0,0-1.18-7.53,17.54,17.54,0,0,0-3.42-6,15.43,15.43,0,0,0-5.52-3.94,19,19,0,0,0-7.54-1.41,20.9,20.9,0,0,0-7.45,1.21,14.92,14.92,0,0,0-5.32,3.3,13.93,13.93,0,0,0-3.22,4.89,16.16,16.16,0,0,0-1.09,5.95,15.24,15.24,0,0,0,1,5.5,12.8,12.8,0,0,0,3.13,4.63,24.8,24.8,0,0,0,5.72,4,56.21,56.21,0,0,0,8.66,3.53,69.11,69.11,0,0,1,10,4.06,28.54,28.54,0,0,1,7.3,5.15,19.39,19.39,0,0,1,4.49,6.81,24.29,24.29,0,0,1,1.53,8.95,22.21,22.21,0,0,1-1.82,9.17,19.68,19.68,0,0,1-5,6.87,22.39,22.39,0,0,1-7.65,4.32,30.39,30.39,0,0,1-9.72,1.49,32.46,32.46,0,0,1-9.43-1.43,24.88,24.88,0,0,1-8.46-4.46,22.82,22.82,0,0,1-6.09-7.77,25.27,25.27,0,0,1-2.36-11.41h6.56a20.33,20.33,0,0,0,1.75,8.91A16.59,16.59,0,0,0,559,394a17.71,17.71,0,0,0,6.36,3.22,26.6,26.6,0,0,0,7.1,1,22.47,22.47,0,0,0,7.28-1.12,16.08,16.08,0,0,0,5.52-3.17,14,14,0,0,0,3.51-4.92A16.18,16.18,0,0,0,590,382.5Z" transform="translate(-77.25 -76.42)"/><path d="M650.61,363h-32.5v34H655.5v6.09h-44V319.35h43.66v6.21h-37.1v31.35h32.5Z" transform="translate(-77.25 -76.42)"/><path d="M696.16,368.24H676.61v34.85H670V319.35h23A29.25,29.25,0,0,1,703,321a20,20,0,0,1,7.56,4.74,21.08,21.08,0,0,1,4.78,7.74A31,31,0,0,1,717,344a28.22,28.22,0,0,1-1,7.77,24.07,24.07,0,0,1-2.94,6.55,21,21,0,0,1-4.57,5.09,19.93,19.93,0,0,1-5.89,3.31L720,402.34v.75h-7Zm-19.55-6.1h17.48a16.09,16.09,0,0,0,7.11-1.5,14.71,14.71,0,0,0,5.09-4,17.61,17.61,0,0,0,3.05-5.79,22.84,22.84,0,0,0,1-6.84,24.6,24.6,0,0,0-1.12-7.68,15.58,15.58,0,0,0-3.34-5.81,14.76,14.76,0,0,0-5.46-3.68,20.27,20.27,0,0,0-7.51-1.29H676.61Z" transform="translate(-77.25 -76.42)"/><path d="M755.52,392.62l.17.92.23-.92,21.86-73.27H785l-26.17,83.74h-6.21l-26.18-83.74h7.19Z" transform="translate(-77.25 -76.42)"/><path d="M805.21,403.09h-6.55V319.35h6.55Z" transform="translate(-77.25 -76.42)"/><path d="M876.42,377q-.92,14.08-7.59,20.68t-18.46,6.58a24.66,24.66,0,0,1-10.9-2.35,23.07,23.07,0,0,1-8.26-6.79A32.39,32.39,0,0,1,826,384.31,51.44,51.44,0,0,1,824.14,370V352A50.13,50.13,0,0,1,826,337.81a30.79,30.79,0,0,1,5.29-10.61,23.29,23.29,0,0,1,8.4-6.68,26.09,26.09,0,0,1,11.22-2.33,30.07,30.07,0,0,1,10.2,1.62,20.41,20.41,0,0,1,7.8,4.94,23.61,23.61,0,0,1,5.18,8.51,44.59,44.59,0,0,1,2.35,12.31h-6.67A42.75,42.75,0,0,0,868,335.8a17.68,17.68,0,0,0-3.65-6.56,13.68,13.68,0,0,0-5.67-3.68,23.7,23.7,0,0,0-7.76-1.15,19,19,0,0,0-8.63,1.87,17.27,17.27,0,0,0-6.3,5.37,25,25,0,0,0-3.86,8.63,47.42,47.42,0,0,0-1.29,11.56V370a49.88,49.88,0,0,0,1.24,11.59,27.25,27.25,0,0,0,3.68,8.89,16.7,16.7,0,0,0,14.64,7.71,27.35,27.35,0,0,0,8-1.07,13.27,13.27,0,0,0,5.81-3.54,17.1,17.1,0,0,0,3.71-6.52,42.79,42.79,0,0,0,1.81-10Z" transform="translate(-77.25 -76.42)"/><path d="M931.87,363h-32.5v34h37.39v6.09h-44V319.35h43.66v6.21h-37.1v31.35h32.5Z" transform="translate(-77.25 -76.42)"/><path d="M990.71,382.5a19.43,19.43,0,0,0-.89-6.12,12.46,12.46,0,0,0-3.05-4.86,22.12,22.12,0,0,0-5.78-4,70.75,70.75,0,0,0-9-3.68,76.1,76.1,0,0,1-9.52-3.89,30,30,0,0,1-7.22-4.88,19.36,19.36,0,0,1-4.6-6.5,23.61,23.61,0,0,1,.14-17.49,19.92,19.92,0,0,1,4.89-6.84,22.22,22.22,0,0,1,7.48-4.43,27.71,27.71,0,0,1,9.58-1.59,25.13,25.13,0,0,1,10.12,2,22.74,22.74,0,0,1,7.65,5.35,23.13,23.13,0,0,1,4.83,8,28.37,28.37,0,0,1,1.67,9.8h-6.62a23.31,23.31,0,0,0-1.17-7.53,17.4,17.4,0,0,0-3.43-6,15.26,15.26,0,0,0-5.52-3.94,18.9,18.9,0,0,0-7.53-1.41,20.9,20.9,0,0,0-7.45,1.21,14.92,14.92,0,0,0-5.32,3.3,13.93,13.93,0,0,0-3.22,4.89,16.16,16.16,0,0,0-1.09,5.95,15.45,15.45,0,0,0,.94,5.5,13,13,0,0,0,3.14,4.63,24.8,24.8,0,0,0,5.72,4,55.79,55.79,0,0,0,8.66,3.53,69.58,69.58,0,0,1,10,4.06,28.71,28.71,0,0,1,7.3,5.15,19.53,19.53,0,0,1,4.49,6.81,24.5,24.5,0,0,1,1.52,8.95,22.2,22.2,0,0,1-1.81,9.17,19.68,19.68,0,0,1-5,6.87,22.39,22.39,0,0,1-7.65,4.32,30.44,30.44,0,0,1-9.72,1.49,32.41,32.41,0,0,1-9.43-1.43,24.88,24.88,0,0,1-8.46-4.46,22.84,22.84,0,0,1-6.1-7.77,25.4,25.4,0,0,1-2.36-11.41h6.56a20.48,20.48,0,0,0,1.75,8.91,16.61,16.61,0,0,0,4.58,5.87,17.75,17.75,0,0,0,6.35,3.22,26.67,26.67,0,0,0,7.11,1,22.37,22.37,0,0,0,7.27-1.12,16,16,0,0,0,5.53-3.17,14,14,0,0,0,3.51-4.92A16.18,16.18,0,0,0,990.71,382.5Z" transform="translate(-77.25 -76.42)"/></svg>