<?xml version="1.0" encoding="UTF-8"?>
<!-- Generator: Adobe Illustrator 16.0.4, SVG Export Plug-In . SVG Version: 6.00 Build 0)  -->
<!DOCTYPE svg PUBLIC "-//W3C//DTD SVG 1.1//EN" "http://www.w3.org/Graphics/SVG/1.1/DTD/svg11.dtd">
<svg version="1.1" id="Ebene_1" xmlns="http://www.w3.org/2000/svg" xmlns:xlink="http://www.w3.org/1999/xlink" x="0px" y="0px" width="254.277px" height="101.431px" viewBox="0 0 254.277 101.431" enable-background="new 0 0 254.277 101.431" xml:space="preserve">
<g>
	<g>
		<polygon fill-rule="evenodd" clip-rule="evenodd" fill="#000099" points="26.742,23.975 36.993,23.975 40.935,0.011 30.732,0.011     26.742,23.975   "/>
	</g>
	<g>
		<polygon fill-rule="evenodd" clip-rule="evenodd" fill="#000099" points="10.279,0.011 0.029,0.011 0.029,61.608 10.279,61.608     10.279,0.011   "/>
	</g>
	<g>
		<polygon fill-rule="evenodd" clip-rule="evenodd" fill="#000099" points="61.412,0.011 51.16,0.011 51.16,61.608 61.412,61.608     61.412,0.011   "/>
	</g>
	<g>
		<polygon fill-rule="evenodd" clip-rule="evenodd" fill="#000099" points="30.732,61.608 35.271,34.241 25.021,34.241     20.482,61.608 30.732,61.608   "/>
	</g>
</g>
<g>
	<path fill="#575756" d="M14.834,101.19h-2.137l-1.584-4.32H3.553l-1.584,4.32H0L6.217,84.39h2.424L14.834,101.19z M4.08,95.142   h6.48l-3.24-8.641L4.08,95.142z"/>
	<path fill="#575756" d="M25.59,84.39h6.312c3.264,0,5.377,1.607,5.377,5.209c0,3.623-2.113,5.232-5.377,5.232h-4.32v6.359H25.59   V84.39z M27.582,93.103h4.272c2.063,0,3.384-1.033,3.384-3.504c0-2.449-1.344-3.48-3.384-3.48h-4.272V93.103z"/>
	<path fill="#575756" d="M52.855,95.407c0,3.863-2.473,6.023-6.529,6.023c-4.008,0-6.48-2.16-6.48-6.023v-5.232   c0-3.889,2.473-6.025,6.529-6.025c4.008,0,6.48,2.137,6.48,6.025V95.407z M50.863,90.175c0-2.736-1.681-4.297-4.488-4.297   c-2.857,0-4.537,1.561-4.537,4.297v5.232c0,2.736,1.68,4.295,4.488,4.295c2.856,0,4.537-1.559,4.537-4.295V90.175z"/>
	<path fill="#575756" d="M56.838,84.39h6.672c3.265,0,5.377,1.607,5.377,5.209c0,2.711-1.176,4.295-3.145,4.92l3.264,6.672h-2.304   l-3-6.359H58.83v6.359h-1.992V84.39z M58.83,93.103h4.632c2.063,0,3.384-1.033,3.384-3.504c0-2.449-1.344-3.48-3.384-3.48H58.83   V93.103z"/>
	<path fill="#575756" d="M79.901,93.942l-3.192-0.6c-2.616-0.504-4.176-1.945-4.176-4.465c0-3.096,2.16-4.729,5.952-4.729   s5.952,1.68,5.952,5.064v0.217H82.47v-0.217c0-2.209-1.392-3.336-3.984-3.336s-3.912,0.984-3.912,2.881   c0,1.559,1.008,2.447,2.616,2.76l3.168,0.6c2.688,0.504,4.201,1.92,4.201,4.439c0,3.24-2.281,4.873-6.098,4.873   c-3.792,0-6.072-1.703-6.072-5.064v-0.215h1.992v0.215c0,2.209,1.488,3.336,4.08,3.336c2.617,0,4.057-0.984,4.057-3.023   C82.518,95.118,81.51,94.255,79.901,93.942z"/>
	<path fill="#575756" d="M100.807,95.79v0.072c0,3.553-2.425,5.568-6.313,5.568c-3.984,0-6.456-2.16-6.456-6.023v-5.232   c0-3.889,2.472-6.025,6.48-6.025c3.864,0,6.289,1.992,6.289,5.545v0.096h-1.992v-0.096c0-2.4-1.633-3.816-4.297-3.816   c-2.809,0-4.488,1.561-4.488,4.297v5.232c0,2.736,1.68,4.295,4.464,4.295c2.688,0,4.321-1.416,4.321-3.84V95.79H100.807z"/>
	<path fill="#575756" d="M115.206,93.63h-8.545v7.561h-1.992V84.39h1.992v7.512h8.545V84.39h1.991v16.801h-1.991V93.63z"/>
	<path fill="#575756" d="M121.42,84.39h10.85v1.729h-8.857v5.783h7.658v1.729h-7.658v5.832h8.857v1.729h-10.85V84.39z"/>
	<path fill="#575756" d="M156.859,95.79v0.072c0,3.553-2.424,5.568-6.312,5.568c-3.984,0-6.457-2.16-6.457-6.023v-5.232   c0-3.889,2.473-6.025,6.48-6.025c3.865,0,6.289,1.992,6.289,5.545v0.096h-1.992v-0.096c0-2.4-1.633-3.816-4.297-3.816   c-2.809,0-4.488,1.561-4.488,4.297v5.232c0,2.736,1.68,4.295,4.465,4.295c2.688,0,4.32-1.416,4.32-3.84V95.79H156.859z"/>
	<path fill="#575756" d="M172.99,95.407c0,3.863-2.471,6.023-6.527,6.023c-4.01,0-6.48-2.16-6.48-6.023v-5.232   c0-3.889,2.471-6.025,6.527-6.025c4.01,0,6.48,2.137,6.48,6.025V95.407z M170.998,90.175c0-2.736-1.68-4.297-4.488-4.297   c-2.855,0-4.535,1.561-4.535,4.297v5.232c0,2.736,1.68,4.295,4.488,4.295c2.855,0,4.535-1.559,4.535-4.295V90.175z"/>
	<path fill="#575756" d="M189.455,88.302l-5.258,9.816l-5.232-9.816v12.889h-1.992V84.39h1.92l5.305,9.938l5.305-9.938h1.92v16.801   h-1.967V88.302z"/>
	<path fill="#575756" d="M195.645,84.39h6.312c3.264,0,5.377,1.607,5.377,5.209c0,3.623-2.113,5.232-5.377,5.232h-4.32v6.359h-1.992   V84.39z M197.637,93.103h4.271c2.064,0,3.385-1.033,3.385-3.504c0-2.449-1.344-3.48-3.385-3.48h-4.271V93.103z"/>
	<path fill="#575756" d="M221.973,101.19h-2.135l-1.584-4.32h-7.561l-1.586,4.32h-1.967l6.217-16.801h2.424L221.973,101.19z    M211.221,95.142h6.48l-3.24-8.641L211.221,95.142z"/>
	<path fill="#575756" d="M226.627,88.015v13.176h-1.992V84.39h1.873l8.664,13.152V84.39h1.992v16.801h-1.871L226.627,88.015z"/>
	<path fill="#575756" d="M248.037,101.19h-1.969v-6.432l-6.266-10.369h2.377l4.896,8.377l4.945-8.377h2.256l-6.24,10.369V101.19z"/>
</g>
<path fill="#575756" d="M160.875,36.088v25.511h-10.473V0h10.473v27.024h26.574V0h10.473v61.599h-10.473V36.088 M209.633,0h24.287  c12.32,0,20.328,4.845,20.328,18.149c0,12.309-7.92,17.963-20.328,17.963h-13.814v25.486h-10.473V0z M220.105,27.048h13.463  c7.172,0,9.943-2.885,9.943-8.898c0-6.51-2.896-8.904-9.943-8.904l-13.463-0.019V27.048z M128.291,19.392l-16.802,26.772  L94.677,19.392v42.207H84.203V0h9.645l17.637,28.069L129.064,0h9.697v61.599h-10.471V19.392z"/>
</svg>