<svg xmlns="http://www.w3.org/2000/svg" xmlns:xlink="http://www.w3.org/1999/xlink" version="1.1" id="Calque_1" x="0px" y="0px" enable-background="new 0 0 1000 1000" xml:space="preserve" viewBox="104.57 219.63 790.87 560.73">
<g id="_x30_8">
	<g>
		<path fill="#0094B9" d="M177.804,780.366c-10.513,0-20.228-1.971-29.149-5.913c-8.922-3.941-16.669-9.335-23.237-16.182    c-6.571-6.847-11.689-14.971-15.352-24.378c-3.667-9.404-5.499-19.569-5.499-30.498c0-11.063,1.832-21.162,5.499-30.29    c3.663-9.129,8.781-16.908,15.352-23.342c6.568-6.431,14.315-11.41,23.237-14.936c8.921-3.528,18.636-5.291,29.149-5.291h81.742    v26.348h-81.742c-6.779,0-13.038,1.212-18.775,3.631c-5.742,2.423-10.685,5.777-14.834,10.063    c-4.149,4.288-7.401,9.408-9.751,15.354c-2.353,5.948-3.527,12.519-3.527,19.709c0,7.054,1.174,13.625,3.527,19.709    c2.35,6.088,5.602,11.308,9.751,15.664c4.149,4.357,9.093,7.78,14.834,10.27c5.737,2.49,11.997,3.735,18.775,3.735h81.742v26.348    H177.804z"/>
		<path fill="#0094B9" d="M362.243,780.366c-10.513,0-20.228-1.971-29.149-5.913c-8.922-3.941-16.669-9.335-23.237-16.182    c-6.571-6.847-11.689-14.971-15.352-24.378c-3.667-9.404-5.499-19.569-5.499-30.498c0-11.063,1.832-21.162,5.499-30.29    c3.663-9.129,8.781-16.908,15.352-23.342c6.568-6.431,14.315-11.41,23.237-14.936c8.921-3.528,18.636-5.291,29.149-5.291h36.722    c10.924,0,20.918,1.8,29.979,5.394c9.057,3.6,16.837,8.646,23.34,15.146c6.5,6.503,11.547,14.282,15.146,23.34    c3.595,9.062,5.394,19.056,5.394,29.979c0,10.929-1.834,21.094-5.498,30.498c-3.667,9.407-8.786,17.531-15.353,24.378    c-6.571,6.847-14.351,12.24-23.34,16.182c-8.992,3.942-18.88,5.913-29.668,5.913H362.243z M398.964,754.019    c6.915,0,13.279-1.245,19.087-3.735c5.809-2.489,10.821-5.912,15.042-10.27c4.217-4.356,7.501-9.576,9.854-15.664    c2.35-6.084,3.527-12.655,3.527-19.709c0-7.055-1.177-13.59-3.527-19.606c-2.354-6.017-5.638-11.168-9.854-15.456    c-4.221-4.285-9.233-7.64-15.042-10.063c-5.809-2.419-12.172-3.631-19.087-3.631h-36.722c-6.779,0-13.038,1.212-18.775,3.631    c-5.742,2.423-10.685,5.777-14.834,10.063c-4.149,4.288-7.401,9.408-9.751,15.354c-2.354,5.948-3.527,12.519-3.527,19.709    c0,7.054,1.173,13.625,3.527,19.709c2.35,6.088,5.602,11.308,9.751,15.664c4.149,4.357,9.093,7.78,14.834,10.27    c5.737,2.49,11.997,3.735,18.775,3.735H398.964z"/>
		<path fill="#0094B9" d="M506.637,780.366V629.537h26.349v124.481H634.44v26.348H506.637z"/>
		<path fill="#0094B9" d="M667.217,780.366V629.537h26.349v150.829H667.217z"/>
		<path fill="#0094B9" d="M733.398,780.366V629.537h110.374c7.329,0,14.005,0.83,20.021,2.49c6.017,1.658,11.168,4.115,15.457,7.364    c4.284,3.251,7.604,7.333,9.957,12.24c2.351,4.911,3.527,10.549,3.527,16.908c0,4.843-0.554,9.062-1.66,12.655    c-1.108,3.6-2.628,6.711-4.563,9.337c-1.938,2.63-4.185,4.771-6.743,6.432c-2.561,1.66-5.222,2.905-7.987,3.735    c7.054,2.213,12.76,6.224,17.116,12.033c4.356,5.809,6.536,13.142,6.536,21.991c0,6.918-1.143,13.174-3.423,18.774    c-2.283,5.604-5.535,10.41-9.752,14.421c-4.221,4.013-9.337,7.089-15.354,9.231c-6.016,2.147-12.689,3.216-20.02,3.216H733.398z     M778.835,714.807v-22.199h65.145c7.469,0,12.999-1.381,16.599-4.15c3.594-2.764,5.394-7.469,5.394-14.107    c0-4.01-0.763-7.226-2.283-9.647c-1.522-2.417-3.702-4.284-6.534-5.602c-2.837-1.313-6.224-2.178-10.166-2.593    c-3.941-0.415-8.334-0.623-13.174-0.623h-74.067v98.134h76.349c9.544,0,17.356-1.479,23.444-4.438    c6.085-2.956,9.128-8.081,9.128-15.376c0-6.19-1.938-10.969-5.81-14.342c-3.873-3.37-9.542-5.056-17.011-5.056H778.835z"/>
	</g>
	<g>
		<g>
			<g>
				<polygon fill-rule="evenodd" clip-rule="evenodd" fill="#0094B9" points="380.555,360.352 380.555,501.065 591.663,501.065       591.663,313.616 572.167,313.616 572.167,481.569 400.048,481.572 400.048,239.128 572.167,239.128 572.167,274.628       591.663,274.628 591.663,219.634 380.555,219.634     "/>
				<path fill-rule="evenodd" clip-rule="evenodd" fill="#87BD3E" d="M554.205,444.573v16.387h-61.102v-16.387H554.205z       M554.205,404.542v16.387h-61.102v-16.387H554.205z M554.205,364.513v16.385h-61.102v-16.385H554.205z M493.103,340.871h61.102      v-16.387h-61.102V340.871z"/>
				<path fill-rule="evenodd" clip-rule="evenodd" fill="#36AE48" d="M455.643,284.378v187.446h19.497V303.872h135.023v37.096      h37.096c0,62.014,0,124.035,0,186.042l-0.003,19.309H475.139v-35.504h-19.497v54.997h211.108V325.251l-40.873-40.873H455.643z"/>
			</g>
			<g>
				<g>
					<g>
						<polygon fill="#36AE48" points="792.926,443.838 861.317,443.792 861.216,433.077 792.497,433.077       "/>
						<polygon fill="#36AE48" points="719.631,433.077 660.632,433.077 660.733,443.931 719.746,443.89       "/>
					</g>
					<path fill="#36AE48" d="M715.044,505.291l-0.13-129.599l95.228,62.567L715.044,505.291z M725.684,395.59l-0.145,89.194       l65.563-46.213L725.684,395.59z"/>
				</g>
				<polygon fill="#36AE48" points="795.847,500.462 795.847,377.8 806.562,377.681 806.562,500.344     "/>
			</g>
			<g>
				<g>
					<g>
						<g>
							<path fill="#0094B9" d="M223.559,367.199c0-31.622,16.199-42.844,30.071-42.844c17.383,0,30,17.812,30,42.354         c0,11.797-5.849,29.634-14.666,29.634c-9.745,0-14.844-17.709-14.844-35.202h6.431c0,18.617,5.556,28.772,8.413,28.772         c2.243,0,8.236-11.285,8.236-23.204c0-20.815-9.912-35.922-23.57-35.922c-14.582,0-23.64,13.953-23.64,36.412         c0,11.668,5.971,22.714,8.205,22.714c2.855,0,8.411-10.155,8.411-28.772h6.432c0,17.493-5.097,35.202-14.842,35.202         C229.396,396.342,223.559,378.801,223.559,367.199z"/>
							<path fill="#0094B9" d="M268.964,398.128c-8.229,0-13.231-9.945-15.385-22.166c-2.155,12.22-7.155,22.166-15.384,22.166         c-10.024,0-16.422-18.318-16.422-30.929c0-32.941,17.161-44.629,31.857-44.629c18.418,0,31.786,18.563,31.786,44.139         C285.416,379.519,279.007,398.128,268.964,398.128z M255.924,362.926c0.323,15.653,4.87,31.63,13.04,31.63         c6.816,0,12.88-15.573,12.88-27.848c0-23.506-11.866-40.568-28.214-40.568c-13.048,0-28.286,10.753-28.286,41.058         c0,12.059,6.05,27.358,12.851,27.358c8.169,0,12.716-15.978,13.038-31.63h-2.859c-0.341,17.047-5.518,28.772-10.179,28.772         c-4.035,0-9.991-12.905-9.991-24.5c0-23.562,9.742-38.198,25.426-38.198c14.692,0,25.356,15.858,25.356,37.708         c0,11.826-5.974,24.99-10.022,24.99c-4.662,0-9.84-11.725-10.181-28.772H255.924z M253.63,332.572         c-13.48,0-21.854,13.268-21.854,34.626c0,10.011,4.708,19.387,6.561,20.857c1.48-0.923,6.483-9.177,6.483-26.916v-1.786         h17.518v1.786c0,17.489,4.862,25.756,6.51,26.882c1.721-1.513,6.567-10.514,6.567-21.314         C275.415,346.929,266.253,332.572,253.63,332.572z"/>
						</g>
					</g>
					<g>
						<g>
							<path fill="#0094B9" d="M254.185,367.199c0-31.622,16.199-42.844,30.071-42.844c17.385,0,30.001,17.812,30.001,42.354         c0,11.797-5.851,29.634-14.667,29.634c-9.747,0-14.844-17.709-14.844-35.202h6.431c0,18.617,5.556,28.772,8.413,28.772         c2.243,0,8.236-11.285,8.236-23.204c0-20.815-9.912-35.922-23.57-35.922c-14.582,0-23.64,13.953-23.64,36.412         c0,11.668,5.971,22.714,8.205,22.714c2.855,0,8.411-10.155,8.411-28.772h6.432c0,17.493-5.097,35.202-14.842,35.202         C260.021,396.342,254.185,378.801,254.185,367.199z"/>
							<path fill="#0094B9" d="M299.59,398.128c-8.229,0-13.231-9.945-15.385-22.166c-2.155,12.22-7.155,22.166-15.384,22.166         c-10.024,0-16.422-18.318-16.422-30.929c0-32.941,17.161-44.629,31.857-44.629c18.419,0,31.788,18.563,31.788,44.139         C316.044,379.519,309.634,398.128,299.59,398.128z M286.55,362.926c0.323,15.653,4.87,31.63,13.04,31.63         c6.817,0,12.882-15.573,12.882-27.848c0-23.506-11.866-40.568-28.216-40.568c-13.048,0-28.286,10.753-28.286,41.058         c0,12.059,6.05,27.358,12.851,27.358c8.169,0,12.715-15.978,13.038-31.63H279c-0.341,17.047-5.518,28.772-10.179,28.772         c-4.035,0-9.991-12.905-9.991-24.5c0-23.562,9.742-38.198,25.426-38.198c14.692,0,25.356,15.858,25.356,37.708         c0,11.826-5.974,24.99-10.022,24.99c-4.662,0-9.84-11.725-10.181-28.772H286.55z M284.256,332.572         c-13.48,0-21.854,13.268-21.854,34.626c0,10.011,4.708,19.387,6.561,20.857c1.48-0.923,6.483-9.177,6.483-26.916v-1.786         h17.517v1.786c0,17.489,4.863,25.756,6.51,26.882c1.721-1.513,6.567-10.514,6.567-21.314         C306.041,346.929,296.879,332.572,284.256,332.572z"/>
						</g>
					</g>
					<g>
						<g>
							<path fill="#0094B9" d="M284.811,367.199c0-31.622,16.199-42.844,30.071-42.844c17.385,0,30.001,17.812,30.001,42.354         c0,11.797-5.851,29.634-14.667,29.634c-9.747,0-14.844-17.709-14.844-35.202h6.431c0,18.617,5.556,28.772,8.413,28.772         c2.243,0,8.236-11.285,8.236-23.204c0-20.815-9.912-35.922-23.57-35.922c-14.583,0-23.64,13.953-23.64,36.412         c0,11.668,5.971,22.714,8.205,22.714c2.854,0,8.411-10.155,8.411-28.772h6.432c0,17.493-5.098,35.202-14.842,35.202         C290.647,396.342,284.811,378.801,284.811,367.199z"/>
							<path fill="#0094B9" d="M330.216,398.128c-8.229,0-13.231-9.945-15.385-22.166c-2.155,12.22-7.155,22.166-15.384,22.166         c-10.024,0-16.422-18.318-16.422-30.929c0-32.941,17.161-44.629,31.857-44.629c18.419,0,31.788,18.563,31.788,44.139         C346.67,379.519,340.26,398.128,330.216,398.128z M317.176,362.926c0.323,15.653,4.87,31.63,13.04,31.63         c6.817,0,12.882-15.573,12.882-27.848c0-23.506-11.866-40.568-28.216-40.568c-13.048,0-28.286,10.753-28.286,41.058         c0,12.059,6.05,27.358,12.851,27.358c8.169,0,12.715-15.978,13.038-31.63h-2.859c-0.341,17.047-5.518,28.772-10.179,28.772         c-4.035,0-9.991-12.905-9.991-24.5c0-23.562,9.742-38.198,25.426-38.198c14.692,0,25.356,15.858,25.356,37.708         c0,11.826-5.974,24.99-10.022,24.99c-4.662,0-9.84-11.725-10.181-28.772H317.176z M314.882,332.572         c-13.48,0-21.854,13.268-21.854,34.626c0,10.011,4.708,19.387,6.561,20.857c1.48-0.923,6.483-9.177,6.483-26.916v-1.786         h17.517v1.786c0,17.489,4.863,25.756,6.51,26.882c1.721-1.513,6.567-10.514,6.567-21.314         C336.667,346.929,327.505,332.572,314.882,332.572z"/>
						</g>
					</g>
					<g>
						<g>
							<path fill="#0094B9" d="M315.438,367.199c0-31.622,16.199-42.844,30.07-42.844v6.432c-14.581,0-23.638,13.953-23.638,36.412         c0,11.668,5.967,22.714,8.203,22.714c2.854,0,8.413-10.155,8.413-28.772h6.431c0,17.493-5.099,35.202-14.844,35.202         C321.275,396.342,315.438,378.801,315.438,367.199z"/>
							<path fill="#0094B9" d="M330.073,398.128c-10.024,0-16.42-18.318-16.42-30.929c0-32.941,17.161-44.629,31.855-44.629h1.786         v10.003h-1.786c-13.479,0-21.853,13.268-21.853,34.626c0,10.012,4.707,19.387,6.56,20.858         c1.48-0.923,6.485-9.177,6.485-26.917v-1.786h10.003v1.786C346.703,378.955,341.499,398.128,330.073,398.128z          M343.723,326.208c-12.612,0.947-26.498,12.058-26.498,40.991c0,12.059,6.049,27.358,12.849,27.358         c8.17,0,12.717-15.978,13.04-31.63h-2.859c-0.341,17.047-5.519,28.772-10.181,28.772c-4.035,0-9.989-12.905-9.989-24.5         c0-22.654,9.005-37.058,23.638-38.133V326.208z"/>
						</g>
					</g>
				</g>
				<path fill="#0094B9" d="M387.522,365.706h-32.174l0.496-5.813c0.446-5.417-0.039-20.635-7.538-25.839      c-3.108-2.162-10.783,0.714-14.991,3.333l-5.691-9.078c1.676-1.054,16.668-10.084,26.791-3.058      c10.205,7.081,12.069,21.53,12.252,29.739h20.854V365.706z"/>
				<path fill="#0094B9" d="M210.467,364.749l-4.949-0.007l-90.35-0.276l0.033-10.714l85.683,0.262      c1.337-7.373,5.078-21.062,14.99-27.941c9.683-6.723,21.642-0.119,23.48,0.973c2.387,1.269,16.117,9.578,16.117,32.782h-10.714      c0-17.788-9.964-23.083-10.388-23.3l-0.485-0.271c-0.053-0.031-7.499-4.441-11.9-1.384      c-7.875,5.466-10.689,19.858-11.108,24.944L210.467,364.749z"/>
			</g>
		</g>
		<polygon fill="#0094B9" points="158.935,329.645 158.935,388.357 192.863,359.827   "/>
		<polygon fill="#36AE48" points="850.904,409.862 850.904,467.749 884.833,440.045   "/>
	</g>
</g>
</svg>