<?xml version="1.0" encoding="utf-8"?>
<!-- Generator: Adobe Illustrator 22.0.1, SVG Export Plug-In . SVG Version: 6.00 Build 0)  -->
<svg version="1.1" id="Layer_1" xmlns="http://www.w3.org/2000/svg" xmlns:xlink="http://www.w3.org/1999/xlink" x="0px" y="0px"
	 viewBox="0 0 114 114" style="enable-background:new 0 0 114 114;" xml:space="preserve">
<style type="text/css">
	.st0{fill:#6DBCEA;}
	.st1{fill:#FFFFFF;}
	.st2{fill:#0D3A63;}
</style>
<g>
	<polygon class="st0" points="34.2,45.6 57,34.2 79.8,45.6 79.8,68.4 57,79.8 34.2,68.4"/>
	<polygon class="st1" points="34.2,45.6 57,57 79.8,45.6 79.8,68.4 57,79.8 34.2,68.4"/>
	<polygon class="st2" points="79.8,45.6 79.8,68.4 57,79.8 57,57"/>
	<polygon class="st0" points="68.4,62.7 91.2,51.3 114,62.7 114,85.5 91.2,96.9 68.4,85.5"/>
	<polygon class="st1" points="68.4,62.7 91.2,74.1 114,62.7 114,85.5 91.2,96.9 68.4,85.5"/>
	<polygon class="st2" points="114,62.7 114,85.5 91.2,96.9 91.2,74.1"/>
	<polygon class="st0" points="0,62.7 22.8,51.3 45.6,62.7 45.6,85.5 22.8,96.9 0,85.5"/>
	<polygon class="st1" points="0,62.7 22.8,74.1 45.6,62.7 45.6,85.5 22.8,96.9 0,85.5"/>
	<polygon class="st2" points="45.6,62.7 45.6,85.5 22.8,96.9 22.8,74.1"/>
	<polygon class="st0" points="34.2,79.8 57,68.4 79.8,79.8 79.8,102.6 57,114 34.2,102.6"/>
	<polygon class="st1" points="34.2,79.8 57,91.2 79.8,79.8 79.8,102.6 57,114 34.2,102.6"/>
	<polygon class="st2" points="79.8,79.8 79.8,102.6 57,114 57,91.2"/>
	<polygon class="st0" points="34.2,11.4 57,0 79.8,11.4 79.8,34.2 57,45.6 34.2,34.2"/>
	<polygon class="st1" points="34.2,11.4 57,22.8 79.8,11.4 79.8,34.2 57,45.6 34.2,34.2"/>
	<polygon class="st2" points="79.8,11.4 79.8,34.2 57,45.6 57,22.8"/>
	<polygon class="st0" points="68.4,28.5 91.2,17.1 114,28.5 114,51.3 91.2,62.7 68.4,51.3"/>
	<polygon class="st1" points="68.4,28.5 91.2,39.9 114,28.5 114,51.3 91.2,62.7 68.4,51.3"/>
	<polygon class="st2" points="114,28.5 114,51.3 91.2,62.7 91.2,39.9"/>
	<polygon class="st0" points="0,28.5 22.8,17.1 45.6,28.5 45.6,51.3 22.8,62.7 0,51.3"/>
	<polygon class="st1" points="0,28.5 22.8,39.9 45.6,28.5 45.6,51.3 22.8,62.7 0,51.3"/>
	<polygon class="st2" points="45.6,28.5 45.6,51.3 22.8,62.7 22.8,39.9"/>
</g>
</svg>
