<?xml version="1.0" encoding="UTF-8" standalone="no"?>
<!-- Created with Inkscape (http://www.inkscape.org/) -->

<svg
   xmlns:dc="http://purl.org/dc/elements/1.1/"
   xmlns:cc="http://creativecommons.org/ns#"
   xmlns:rdf="http://www.w3.org/1999/02/22-rdf-syntax-ns#"
   xmlns:svg="http://www.w3.org/2000/svg"
   xmlns="http://www.w3.org/2000/svg"
   xmlns:sodipodi="http://sodipodi.sourceforge.net/DTD/sodipodi-0.dtd"
   xmlns:inkscape="http://www.inkscape.org/namespaces/inkscape"
   width="11.90625mm"
   height="11.92555mm"
   viewBox="0 0 11.90625 11.92555"
   version="1.1"
   id="svg6608"
   inkscape:version="0.92.4 (5da689c313, 2019-01-14)"
   sodipodi:docname="Compute_Optimizer.svg">
  <defs
     id="defs6602" />
  <sodipodi:namedview
     id="base"
     pagecolor="#ffffff"
     bordercolor="#666666"
     borderopacity="1.0"
     inkscape:pageopacity="0.0"
     inkscape:pageshadow="2"
     inkscape:zoom="0.35"
     inkscape:cx="93.928571"
     inkscape:cy="-211.74925"
     inkscape:document-units="mm"
     inkscape:current-layer="layer1"
     showgrid="false"
     inkscape:window-width="1680"
     inkscape:window-height="987"
     inkscape:window-x="-8"
     inkscape:window-y="20"
     inkscape:window-maximized="1" />
  <metadata
     id="metadata6605">
    <rdf:RDF>
      <cc:Work
         rdf:about="">
        <dc:format>image/svg+xml</dc:format>
        <dc:type
           rdf:resource="http://purl.org/dc/dcmitype/StillImage" />
        <dc:title></dc:title>
      </cc:Work>
    </rdf:RDF>
  </metadata>
  <g
     inkscape:label="Layer 1"
     inkscape:groupmode="layer"
     id="layer1"
     transform="translate(-80.981399,-80.88246)">
    <g
       transform="translate(-4.3467242,-182.69572)"
       id="g6588">
      <path
         inkscape:connector-curvature="0"
         id="path6698"
         d="m 90.735253,263.57818 -0.0294,0.16198 c -0.0163,0.0891 -0.054,0.30927 -0.0836,0.48926 l -0.0538,0.32729 -0.18873,0.0337 c -0.0379,0.007 -0.0766,0.0161 -0.11487,0.024 -0.0913,0.0191 -0.17433,0.0339 -0.18111,0.031 -0.007,-0.003 -0.12563,-0.18776 -0.26318,-0.41055 -0.13753,-0.2228 -0.25711,-0.40819 -0.26559,-0.41178 -0.008,-0.004 -0.23997,0.0841 -0.5145,0.1951 l -0.49929,0.20178 0.10545,0.48289 0.10545,0.48258 -0.19175,0.12642 -0.0611,0.0404 c -0.023,0.0154 -0.0475,0.0299 -0.0699,0.0456 -0.0827,0.0581 -0.15656,0.10545 -0.16441,0.10545 -0.008,0 -0.18925,-0.12375 -0.40296,-0.27502 -0.21371,-0.15128 -0.39617,-0.27503 -0.40539,-0.27503 -0.009,0 -0.18791,0.17129 -0.39719,0.38078 l -0.38047,0.38108 0.28566,0.40296 0.28596,0.40327 -0.086,0.12945 c -0.008,0.0112 -0.0167,0.0222 -0.0243,0.0334 -0.0877,0.12814 -0.17256,0.23493 -0.18841,0.23734 -0.0159,0.002 -0.23246,-0.0451 -0.48137,-0.10575 l -0.4528,-0.11031 -0.21576,0.5081 -0.21576,0.50781 0.3826,0.2425 c 0.21042,0.13338 0.39623,0.25605 0.41268,0.27259 0.0243,0.0244 0.021,0.0681 -0.0164,0.23218 -0.005,0.0203 -0.008,0.0417 -0.0122,0.0623 -2e-4,8.8e-4 -4.2e-4,0.002 -5.9e-4,0.003 -0.0305,0.15091 -0.0664,0.28093 -0.0799,0.2893 -0.0137,0.008 -0.23161,0.0493 -0.48441,0.0909 l -0.45979,0.0754 v 0.55187 0.55187 l 0.44702,0.0739 c 0.24583,0.0405 0.46462,0.0805 0.48623,0.0893 0.0319,0.013 0.0463,0.0544 0.076,0.22002 0.004,0.0213 0.009,0.0433 0.0137,0.0647 l 0.0386,0.20695 -0.0939,0.0571 c -0.0517,0.0314 -0.24087,0.14709 -0.42028,0.25709 l -0.32638,0.19996 0.20756,0.51084 0.20725,0.51084 0.46039,-0.10332 c 0.25309,-0.0568 0.46983,-0.10332 0.48167,-0.10332 0.0119,-1e-5 0.0956,0.11219 0.18629,0.24919 0.004,0.006 0.009,0.012 0.0128,0.0182 l 0.14617,0.22002 -0.0641,0.0893 c -0.0353,0.0492 -0.16445,0.22943 -0.28657,0.40083 l -0.22184,0.31179 0.3905,0.38898 0.3908,0.38899 0.38321,-0.27503 c 0.21071,-0.15127 0.39175,-0.27889 0.40266,-0.28353 0.0102,-0.004 0.11931,0.0593 0.24463,0.14101 l 0.18325,0.12611 -0.10515,0.4367 c -0.058,0.24002 -0.10899,0.45649 -0.11335,0.48106 l -0.008,0.0447 0.50233,0.21333 0.50233,0.21333 0.0268,-0.0365 c 0.0147,-0.0202 0.13519,-0.20805 0.26773,-0.41724 l 0.24099,-0.38017 0.13826,0.0325 c 0.0962,0.0227 0.19441,0.0416 0.29356,0.0584 l 0.1483,0.0304 0.0738,0.44277 c 0.0405,0.24357 0.0783,0.46283 0.0839,0.48714 l 0.01,0.0441 h 0.54579 0.54579 l 0.0104,-0.0441 c 0.006,-0.0243 0.0434,-0.2443 0.0836,-0.48866 l 0.0729,-0.44429 0.13979,-0.024 c 0.0494,-0.008 0.0988,-0.0199 0.1483,-0.0301 0.10134,-0.0195 0.19683,-0.0358 0.2024,-0.0331 0.006,0.003 0.12463,0.19173 0.26286,0.41907 l 0.25131,0.41329 0.51116,-0.20482 0.51114,-0.20513 -0.0817,-0.37348 c -0.0449,-0.20546 -0.0928,-0.42199 -0.10636,-0.48106 l -0.0246,-0.10728 0.23004,-0.15073 c 0.007,-0.005 0.014,-0.01 0.021,-0.0146 0.0159,-0.0105 0.0326,-0.0203 0.0484,-0.031 0.10107,-0.0689 0.18962,-0.1249 0.19661,-0.12459 0.007,3.8e-4 0.18959,0.12773 0.4057,0.28292 l 0.39294,0.28201 0.39019,-0.38837 0.3905,-0.38868 -0.22123,-0.31179 c -0.1217,-0.17153 -0.25039,-0.35206 -0.28596,-0.40114 l -0.0647,-0.0893 0.13158,-0.19723 c 0.007,-0.0109 0.0157,-0.0216 0.0228,-0.0325 0.092,-0.14071 0.12144,-0.17333 0.1559,-0.17291 0.0233,2.8e-4 0.24037,0.0492 0.48228,0.10849 l 0.43973,0.10788 0.21576,-0.50841 0.21607,-0.50811 -0.39081,-0.24858 c -0.2149,-0.13664 -0.39949,-0.2592 -0.41025,-0.27259 -0.012,-0.0148 0.002,-0.13106 0.0371,-0.29903 2e-4,-10e-4 1.1e-4,-10e-4 3.1e-4,-0.002 0.004,-0.0209 0.01,-0.0422 0.0134,-0.0629 0.0297,-0.16549 0.0438,-0.20693 0.0757,-0.22002 0.0216,-0.009 0.2404,-0.049 0.48623,-0.089 l 0.44702,-0.0726 v -0.55225 -0.55216 l -0.45684,-0.076 c -0.25124,-0.0417 -0.46927,-0.0824 -0.48442,-0.0906 -0.0168,-0.009 -0.0491,-0.12234 -0.0833,-0.29204 -0.003,-0.0136 -0.007,-0.0276 -0.009,-0.0413 l -0.0286,-0.15256 0.42058,-0.25922 0.4209,-0.25922 -0.20149,-0.49929 c -0.1107,-0.27464 -0.20849,-0.50258 -0.21729,-0.50629 -0.009,-0.004 -0.20781,0.0355 -0.44245,0.0869 -0.23465,0.0514 -0.44799,0.0965 -0.47408,0.10029 -0.0423,0.006 -0.0584,-0.0105 -0.1483,-0.15377 -0.0457,-0.0729 -0.094,-0.1451 -0.14495,-0.21667 -5.5e-4,-7.7e-4 -10e-4,-10e-4 -0.002,-0.002 l -0.0708,-0.10697 0.28567,-0.40327 0.28595,-0.40296 -0.38046,-0.38108 c -0.20928,-0.20949 -0.38855,-0.38078 -0.39811,-0.38078 -0.01,0 -0.17762,0.11376 -0.37348,0.25284 -0.19585,0.13909 -0.37434,0.26408 -0.39688,0.27776 -0.0366,0.0222 -0.0579,0.0131 -0.19662,-0.0836 -0.005,-0.004 -0.0115,-0.007 -0.017,-0.0112 -0.0276,-0.019 -0.0548,-0.0392 -0.0827,-0.0574 l -0.15225,-0.0997 0.0784,-0.32213 c 0.0431,-0.17713 0.0947,-0.39446 0.11456,-0.48288 l 0.0362,-0.16076 -0.50264,-0.21333 -0.50233,-0.21333 -0.0906,0.13736 c -0.0499,0.0757 -0.17042,0.26376 -0.26803,0.41785 l -0.17747,0.28019 -0.18721,-0.0428 c -0.0375,-0.009 -0.0766,-0.0148 -0.11486,-0.0225 -0.033,-0.007 -0.0661,-0.015 -0.0991,-0.021 l -0.1793,-0.0322 -0.0538,-0.32699 c -0.0296,-0.17989 -0.067,-0.40012 -0.0833,-0.48927 l -0.0297,-0.16197 h -0.54579 z"
         style="opacity:1;vector-effect:none;fill:#003764;fill-opacity:1;stroke:none;stroke-width:0.00357002;stroke-linecap:butt;stroke-linejoin:miter;stroke-miterlimit:4;stroke-dasharray:none;stroke-dashoffset:0;stroke-opacity:1" />
      <text
         id="text6702"
         y="270.21417"
         x="87.250946"
         style="font-style:normal;font-variant:normal;font-weight:300;font-stretch:normal;font-size:1.92312586px;line-height:1.25;font-family:'Segoe UI';-inkscape-font-specification:'Segoe UI Light';font-variant-ligatures:normal;font-variant-position:normal;font-variant-caps:normal;font-variant-numeric:normal;font-variant-alternates:normal;font-feature-settings:normal;text-indent:0;text-align:start;text-decoration:none;text-decoration-line:none;text-decoration-style:solid;text-decoration-color:#000000;letter-spacing:0px;word-spacing:0px;text-transform:none;writing-mode:lr-tb;direction:ltr;text-orientation:mixed;dominant-baseline:auto;baseline-shift:baseline;text-anchor:start;white-space:normal;shape-padding:0;opacity:1;vector-effect:none;fill:#ffffff;fill-opacity:1;stroke:none;stroke-width:0.04807815;stroke-linecap:butt;stroke-linejoin:miter;stroke-miterlimit:4;stroke-dasharray:none;stroke-dashoffset:0;stroke-opacity:1"
         xml:space="preserve"><tspan
           style="font-style:normal;font-variant:normal;font-weight:300;font-stretch:normal;font-size:1.92312586px;line-height:1.25;font-family:'Segoe UI';-inkscape-font-specification:'Segoe UI Light';font-variant-ligatures:normal;font-variant-position:normal;font-variant-caps:normal;font-variant-numeric:normal;font-variant-alternates:normal;font-feature-settings:normal;text-indent:0;text-align:start;text-decoration:none;text-decoration-line:none;text-decoration-style:solid;text-decoration-color:#000000;letter-spacing:0px;word-spacing:0px;text-transform:none;writing-mode:lr-tb;direction:ltr;text-orientation:mixed;dominant-baseline:auto;baseline-shift:baseline;text-anchor:start;white-space:normal;shape-padding:0;vector-effect:none;fill:#ffffff;fill-opacity:1;stroke:none;stroke-width:0.04807815;stroke-linecap:butt;stroke-linejoin:miter;stroke-miterlimit:4;stroke-dasharray:none;stroke-dashoffset:0;stroke-opacity:1"
           y="270.21417"
           x="87.250946"
           id="tspan6700"
           sodipodi:role="line">Optimizer</tspan></text>
    </g>
  </g>
</svg>
