<?xml version="1.0" encoding="UTF-8" standalone="no"?>
<!-- Created with Inkscape (http://www.inkscape.org/) -->

<svg
   xmlns:dc="http://purl.org/dc/elements/1.1/"
   xmlns:cc="http://creativecommons.org/ns#"
   xmlns:rdf="http://www.w3.org/1999/02/22-rdf-syntax-ns#"
   xmlns:svg="http://www.w3.org/2000/svg"
   xmlns="http://www.w3.org/2000/svg"
   xmlns:sodipodi="http://sodipodi.sourceforge.net/DTD/sodipodi-0.dtd"
   xmlns:inkscape="http://www.inkscape.org/namespaces/inkscape"
   width="11.925mm"
   height="9.1440001mm"
   viewBox="0 0 11.925 9.1440001"
   version="1.1"
   id="svg884"
   inkscape:version="0.92.4 (5da689c313, 2019-01-14)"
   sodipodi:docname="Export.svg">
  <defs
     id="defs878" />
  <sodipodi:namedview
     id="base"
     pagecolor="#ffffff"
     bordercolor="#666666"
     borderopacity="1.0"
     inkscape:pageopacity="0.0"
     inkscape:pageshadow="2"
     inkscape:zoom="0.35"
     inkscape:cx="1142.5354"
     inkscape:cy="-362.72"
     inkscape:document-units="mm"
     inkscape:current-layer="layer1"
     showgrid="false"
     inkscape:window-width="1680"
     inkscape:window-height="987"
     inkscape:window-x="-8"
     inkscape:window-y="20"
     inkscape:window-maximized="1" />
  <metadata
     id="metadata881">
    <rdf:RDF>
      <cc:Work
         rdf:about="">
        <dc:format>image/svg+xml</dc:format>
        <dc:type
           rdf:resource="http://purl.org/dc/dcmitype/StillImage" />
        <dc:title></dc:title>
      </cc:Work>
    </rdf:RDF>
  </metadata>
  <g
     inkscape:label="Layer 1"
     inkscape:groupmode="layer"
     id="layer1"
     transform="translate(196.4625,-43.719666)">
    <g
       transform="translate(-255.71038,-21.678359)"
       id="g864">
      <path
         sodipodi:nodetypes="ccccccccccc"
         inkscape:connector-curvature="0"
         d="m 67.163436,69.643151 -4.82072,-4.158468 c -0.208339,-0.179496 -0.314725,-0.07089 -0.236477,0.241195 l 0.610756,2.43644 h -3.469113 v 3.615394 h 3.469113 l -0.610756,2.436441 c -0.07825,0.31233 0.02814,0.42069 0.236477,0.241195 l 4.82072,-4.158469 c 0.208533,-0.179749 0.208533,-0.473978 0,-0.653728 z"
         id="path4795"
         style="fill:#0099dd;fill-opacity:1;stroke-width:0.22167298" />
      <path
         sodipodi:nodetypes="ccccccccccc"
         inkscape:connector-curvature="0"
         id="path4803"
         d="m 64.258822,66.43085 3.723953,3.212452 c 0.208532,0.179749 0.208532,0.473596 0,0.653346 l -3.723953,3.212452 -0.176917,0.705136 c -0.07825,0.312329 0.02805,0.420516 0.236393,0.241021 l 4.820849,-4.158609 c 0.208532,-0.17975 0.208532,-0.473597 0,-0.653346 l -4.820849,-4.158609 c -0.20834,-0.179495 -0.314643,-0.07106 -0.236393,0.241022 z"
         style="fill:#0099dd;fill-opacity:1;stroke-width:0.22167298" />
      <path
         style="fill:#0099dd;fill-opacity:1;stroke-width:0.22167298"
         d="m 66.136158,66.43085 3.723953,3.212452 c 0.208532,0.179749 0.208532,0.473596 0,0.653346 l -3.723953,3.212452 -0.176917,0.705136 c -0.07825,0.312329 0.02805,0.420516 0.236393,0.241021 l 4.820848,-4.158609 c 0.208533,-0.17975 0.208533,-0.473597 0,-0.653346 l -4.820848,-4.158609 c -0.20834,-0.179495 -0.314643,-0.07106 -0.236393,0.241022 z"
         id="path5191"
         inkscape:connector-curvature="0"
         sodipodi:nodetypes="ccccccccccc" />
    </g>
  </g>
</svg>
