<?xml version="1.0" encoding="UTF-8" standalone="no"?>
<svg
   xmlns:osb="http://www.openswatchbook.org/uri/2009/osb"
   xmlns:dc="http://purl.org/dc/elements/1.1/"
   xmlns:cc="http://creativecommons.org/ns#"
   xmlns:rdf="http://www.w3.org/1999/02/22-rdf-syntax-ns#"
   xmlns:svg="http://www.w3.org/2000/svg"
   xmlns="http://www.w3.org/2000/svg"
   xmlns:xlink="http://www.w3.org/1999/xlink"
   width="564.4444mm"
   height="445.9111mm"
   viewBox="0 0 564.4444 445.9111"
   version="1.1"
   id="svg8">
  <defs
     id="defs2">
    <linearGradient
       id="linearGradient3089">
      <stop
         style="stop-color:#ff7f00;stop-opacity:1"
         offset="0"
         id="stop3085" />
      <stop
         style="stop-color:#fe0201;stop-opacity:1"
         offset="1"
         id="stop3087" />
    </linearGradient>
    <linearGradient
       id="linearGradient3067">
      <stop
         style="stop-color:#8434d5;stop-opacity:1;"
         offset="0"
         id="stop3063" />
      <stop
         style="stop-color:#fe0201;stop-opacity:1"
         offset="1"
         id="stop3065" />
    </linearGradient>
    <linearGradient
       id="linearGradient3031">
      <stop
         style="stop-color:#8434d5;stop-opacity:1"
         offset="0"
         id="stop3027" />
      <stop
         style="stop-color:#3156fd;stop-opacity:1"
         offset="0.85420734"
         id="stop3041" />
      <stop
         style="stop-color:#3156fd;stop-opacity:1"
         offset="1"
         id="stop3029" />
    </linearGradient>
    <linearGradient
       id="linearGradient2999">
      <stop
         style="stop-color:#0186f5;stop-opacity:1;"
         offset="0"
         id="stop2995" />
      <stop
         style="stop-color:#0186f5;stop-opacity:1"
         offset="0.19831595"
         id="stop3005" />
      <stop
         style="stop-color:#3156fd;stop-opacity:1"
         offset="1"
         id="stop2997" />
    </linearGradient>
    <linearGradient
       id="linearGradient2903">
      <stop
         style="stop-color:#0186f5;stop-opacity:1"
         offset="0"
         id="stop2899" />
      <stop
         style="stop-color:#0186f5;stop-opacity:1"
         offset="0.1318505"
         id="stop2943" />
      <stop
         style="stop-color:#35c2b0;stop-opacity:1"
         offset="0.3145912"
         id="stop2935" />
      <stop
         style="stop-color:#aad825;stop-opacity:1"
         offset="0.66698366"
         id="stop2905" />
      <stop
         style="stop-color:#fed700;stop-opacity:1"
         offset="1"
         id="stop2901" />
    </linearGradient>
    <linearGradient
       id="linearGradient2821"
       osb:paint="solid">
      <stop
         style="stop-color:#000000;stop-opacity:1;"
         offset="0"
         id="stop2819" />
    </linearGradient>
    <linearGradient
       xlink:href="#linearGradient2903"
       id="linearGradient2897"
       x1="130.80319"
       y1="29.69569"
       x2="245.01134"
       y2="153.73625"
       gradientUnits="userSpaceOnUse" />
    <linearGradient
       xlink:href="#linearGradient2999"
       id="linearGradient3001"
       x1="133.84274"
       y1="10.268963"
       x2="259.92783"
       y2="12.688773"
       gradientUnits="userSpaceOnUse" />
    <linearGradient
       xlink:href="#linearGradient3031"
       id="linearGradient3033"
       x1="266.83115"
       y1="57.72126"
       x2="278.45273"
       y2="34.789997"
       gradientUnits="userSpaceOnUse" />
    <linearGradient
       xlink:href="#linearGradient3067"
       id="linearGradient3069"
       x1="253.89001"
       y1="70.504326"
       x2="157.08348"
       y2="75.089821"
       gradientUnits="userSpaceOnUse" />
    <linearGradient
       xlink:href="#linearGradient3089"
       id="linearGradient3077"
       x1="37.044537"
       y1="162.18486"
       x2="37.982849"
       y2="84.339905"
       gradientUnits="userSpaceOnUse" />
  </defs>
  <metadata
     id="metadata5">
    <rdf:RDF>
      <cc:Work
         rdf:about="">
        <dc:format>image/svg+xml</dc:format>
        <dc:type
           rdf:resource="http://purl.org/dc/dcmitype/StillImage" />
        <dc:title></dc:title>
      </cc:Work>
    </rdf:RDF>
  </metadata>
  <g
     id="layer1"
     transform="translate(179.41267,96.428017)">
    <path
       style="fill:url(#linearGradient2897);fill-opacity:1;stroke:none;stroke-width:0.264583px;stroke-linecap:butt;stroke-linejoin:miter;stroke-opacity:1"
       d="M 124.96021,-5.7787199 C 111.30142,5.1053096 98.206279,19.51397 90.604368,35.279578 74.979575,67.683844 83.640179,97.466635 90.337099,116.79678 c 9.118718,26.32048 27.586361,39.6093 49.595871,49.31516 31.38125,13.83866 70.8277,14.77041 106.64609,5.52095 12.62609,-3.26047 32.22938,-10.04 36.50801,-16.36551 4.63198,-6.84792 5.35968,-20.0916 -4.59221,-25.90893 -9.7053,-5.67318 -10.64692,-1.34119 -39.5559,5.07812 -20.11941,4.46757 -42.08871,5.24366 -68.47636,-6.1472 C 153.82105,121.10565 142.55977,110.0821 138.71288,95.014317 127.67839,51.793644 151.51836,35.76329 156.16912,32.833044 Z"
       id="path2847" />
    <path
       style="fill:url(#linearGradient3077);fill-opacity:1;stroke:none;stroke-width:0.264583px;stroke-linecap:butt;stroke-linejoin:miter;stroke-opacity:1"
       d="M 157.84351,45.10773 C 145.42038,43.461807 108.97541,39.599526 70.845748,32.834654 11.842093,22.366368 -57.526372,7.8467345 -79.673849,6.2971929 -122.29578,3.3151624 -129.40303,58.685802 -95.377991,68.156606 c 19.270605,5.363936 72.297365,-0.269376 85.187128,25.178141 3.9262671,7.751403 14.31163,36.978703 26.076639,73.170723 4.612313,14.18859 42.122846,11.95772 35.148531,-18.27291 C 47.05152,130.9689 37.982851,84.339904 37.982851,84.339904 c 0,0 107.593969,11.409837 116.349269,12.167189 z"
       id="path2847-3" />
    <path
       style="fill:url(#linearGradient3001);fill-opacity:1;stroke:none;stroke-width:0.264583px;stroke-linecap:butt;stroke-linejoin:miter;stroke-opacity:1"
       d="m 214.50149,16.630952 c 13.66286,0.362716 37.43612,3.871884 48.14341,11.034741 l 59.70582,11.766666 c 0.56623,-33.138402 -17.60755,-50.970337 -37.97242,-61.249767 -15.45787,-7.80256 -37.14328,-14.15636 -69.68783,-12.76741 -31.11938,1.32812 -63.83818,8.14453 -89.93489,28.939733 l 31.18947,38.678581 c 14.71657,-9.272293 33.21126,-17.075397 58.55644,-16.402544 z"
       id="path2847-3-6" />
    <path
       style="fill:url(#linearGradient3033);fill-opacity:1;stroke:none;stroke-width:0.264583px;stroke-linecap:butt;stroke-linejoin:miter;stroke-opacity:1"
       d="m 261.69325,27.055984 c 0,0 3.144,2.014475 4.50946,3.261778 6.5034,5.940664 8.65634,13.0387 -11.07182,16.302616 l 15.60467,48.249936 c 35.50347,-9.513127 51.16904,-30.461981 51.60607,-56.039312 z"
       id="path2847-3-67" />
    <path
       style="fill:url(#linearGradient3069);fill-opacity:1;stroke:none;stroke-width:0.264583px;stroke-linecap:butt;stroke-linejoin:miter;stroke-opacity:1"
       d="m 255.72078,46.536857 c -17.48942,2.893527 -51.39592,4.764532 -98.14454,-1.429127 l -3.51139,51.399363 c 75.9153,6.566837 102.61215,2.087809 117.2606,-1.837231 z"
       id="path2847-3-0" />
    <g
       aria-label="TotalEnergies"
       transform="scale(1.011659,0.98847535)"
       id="text3093"
       style="font-style:normal;font-variant:normal;font-weight:600;font-stretch:normal;font-size:70.7704px;line-height:1.25;font-family:'Waze Boing';-inkscape-font-specification:'Waze Boing, Semi-Bold';font-variant-ligatures:normal;font-variant-caps:normal;font-variant-numeric:normal;font-variant-east-asian:normal;text-align:start;letter-spacing:0px;word-spacing:0px;writing-mode:lr-tb;text-anchor:start;fill:#fc0103;fill-opacity:1;stroke:none;stroke-width:0.368594">
      <path
         d="m -115.91934,234.90637 c 0,0.92002 0.7077,1.62772 1.55695,1.62772 h 14.15408 v 38.68776 l 9.329421,0.0344 0,-38.72224 h 14.15408 c 0.849245,0 1.556949,-0.7077 1.556949,-1.62772 v -5.97553 c 0,-0.92002 -0.707704,-1.62772 -1.556949,-1.62772 h -37.637581 c -0.84925,0 -1.55695,0.7077 -1.55695,1.62772 z"
         style="font-style:normal;font-variant:normal;font-weight:600;font-stretch:normal;font-size:70.7704px;font-family:'Waze Boing';-inkscape-font-specification:'Waze Boing, Semi-Bold';font-variant-ligatures:normal;font-variant-caps:normal;font-variant-numeric:normal;font-variant-east-asian:normal;stroke-width:0.368594;fill:#fc0103;fill-opacity:1"
         id="path3095" />
      <path
         d="m -82.725025,257.57461 c 0,10.19094 8.350907,18.11722 18.683386,18.11722 10.403249,0 18.754156,-7.92628 18.754156,-18.11722 0,-10.26171 -8.350907,-18.32953 -18.754156,-18.32953 -10.332479,0 -18.683386,8.06782 -18.683386,18.32953 z m 10.332478,-0.0708 c 0,-4.81239 3.609291,-8.77553 8.350908,-8.77553 4.812387,0 8.421677,3.96314 8.421677,8.77553 0,4.81239 -3.60929,8.70476 -8.421677,8.70476 -4.741617,0 -8.350908,-3.89237 -8.350908,-8.70476 z"
         style="font-style:normal;font-variant:normal;font-weight:600;font-stretch:normal;font-size:70.7704px;font-family:'Waze Boing';-inkscape-font-specification:'Waze Boing, Semi-Bold';font-variant-ligatures:normal;font-variant-caps:normal;font-variant-numeric:normal;font-variant-east-asian:normal;stroke-width:0.368594;fill:#fc0103;fill-opacity:1"
         id="path3097" />
      <path
         d="m -39.185985,264.97468 c 0,7.85552 5.873944,11.04018 11.818657,11.04018 4.033913,0 8.163404,-0.57134 10.798071,-2.62851 4.296077,-3.35441 0.695253,-10.16957 -5.166239,-6.79396 -1.738085,1.00096 -4.598481,0.49118 -5.122107,0.27383 -1.18047,-0.49001 -3.232466,-0.90296 -3.11281,-4.29773 v -14.84007 h 8.649409 c 6.633996,0 6.549401,-8.56322 0,-8.56322 h -8.649409 v -11.72098 l -9.215572,-0.0338 v 11.75478 h -4.529305 v 8.56322 h 4.529305 z"
         style="font-style:normal;font-variant:normal;font-weight:600;font-stretch:normal;font-size:70.7704px;font-family:'Waze Boing';-inkscape-font-specification:'Waze Boing, Semi-Bold';font-variant-ligatures:normal;font-variant-caps:normal;font-variant-numeric:normal;font-variant-east-asian:normal;stroke-width:0.368594;fill:#fc0103;fill-opacity:1"
         id="path3099" />
      <path
         d="m -13.074934,257.43307 c 0,11.11095 8.2801377,18.25876 17.1972082,18.25876 4.6000761,0 9.3970428,-1.98157 11.0247618,-4.67084 v 4.71787 l 8.550963,-0.0338 v -31.97369 c 0,-6.25824 -8.375224,-5.95341 -8.375224,-0.34535 -1.627719,-2.68927 -6.5296543,-4.14094 -11.1297304,-4.14094 -8.9170705,0 -17.2679786,7.00627 -17.2679786,18.18799 z m 10.3324793,0.0708 c 0,-4.81239 3.60929054,-8.77553 8.4216777,-8.77553 4.812387,0 8.421677,3.96314 8.421677,8.77553 0,4.81239 -3.60929,8.77553 -8.421677,8.77553 -4.81238716,0 -8.4216777,-3.96314 -8.4216777,-8.77553 z"
         style="font-style:normal;font-variant:normal;font-weight:600;font-stretch:normal;font-size:70.7704px;font-family:'Waze Boing';-inkscape-font-specification:'Waze Boing, Semi-Bold';font-variant-ligatures:normal;font-variant-caps:normal;font-variant-numeric:normal;font-variant-east-asian:normal;stroke-width:0.368594;fill:#fc0103;fill-opacity:1"
         id="path3101" />
      <path
         d="m 41.402827,275.25678 0,-43.72003 c 0,-5.54496 -9.66787,-5.36508 -9.66787,0 l 0,43.71707 z"
         style="font-style:normal;font-variant:normal;font-weight:600;font-stretch:normal;font-size:70.7704px;font-family:'Waze Boing';-inkscape-font-specification:'Waze Boing, Semi-Bold';font-variant-ligatures:normal;font-variant-caps:normal;font-variant-numeric:normal;font-variant-east-asian:normal;stroke-width:0.368594;fill:#fc0103;fill-opacity:1"
         id="path3103" />
      <path
         d="m 49.77219,226.76778 c -0.920015,0 -1.556949,0.7077 -1.556949,1.55695 v 45.28394 c 0,0.92002 0.636934,1.62772 1.556949,1.62772 l 31.297427,0 0.03303,-9.76632 h -22.27184 v -9.26179 H 76.29251 c 0.920016,0 1.556949,-0.77848 1.556949,-1.62772 v -6.2278 c 0,-0.92001 -0.636933,-1.62772 -1.556949,-1.62772 H 58.830801 v -10.19095 h 20.120541 c 0.920015,0 1.627719,-0.7077 1.627719,-1.62772 v -6.51087 c 0,-0.92002 -0.707704,-1.62772 -1.627719,-1.62772 z"
         style="font-style:normal;font-variant:normal;font-weight:600;font-stretch:normal;font-size:70.7704px;font-family:'Waze Boing';-inkscape-font-specification:'Waze Boing, Semi-Bold';font-variant-ligatures:normal;font-variant-caps:normal;font-variant-numeric:normal;font-variant-east-asian:normal;stroke-width:0.368594;fill:#fc0103;fill-opacity:1"
         id="path3105" />
      <path
         d="m 112.62254,273.82098 c 0,0.84925 0.77848,1.41541 1.55695,1.41541 h 6.10168 c 0.77848,0 1.55695,-0.56616 1.55695,-1.41541 v -19.10801 c 0,-8.42167 -4.74627,-16.0319 -13.87565,-16.0319 -5.37855,0 -10.567811,1.61645 -12.620153,4.09341 0,-5.07476 -8.098652,-5.29524 -8.098652,-0.44633 v 32.95159 l 9.144789,0.0346 v -19.4473 c 0,-11.9953 16.234086,-10.08107 16.234086,0 z"
         style="font-style:normal;font-variant:normal;font-weight:600;font-stretch:normal;font-size:70.7704px;font-family:'Waze Boing';-inkscape-font-specification:'Waze Boing, Semi-Bold';font-variant-ligatures:normal;font-variant-caps:normal;font-variant-numeric:normal;font-variant-east-asian:normal;stroke-width:0.368594;fill:#fc0103;fill-opacity:1"
         id="path3107" />
      <path
         d="m 187.35519,238.38252 c -5.03669,0 -9.15629,3.05644 -11.06709,6.09957 v -2.29548 c 0,-4.27243 -7.67403,-4.72552 -7.67403,0.1511 v 32.79864 l 9.01801,0.11857 v -16.72035 c 0,-5.03422 3.30137,-10.5878 6.84997,-11.17824 l 3.65633,-0.60837 c 5.82497,0 4.8891,-8.36544 -0.78319,-8.36544 z"
         style="font-style:normal;font-variant:normal;font-weight:600;font-stretch:normal;font-size:70.7704px;font-family:'Waze Boing';-inkscape-font-specification:'Waze Boing, Semi-Bold';font-variant-ligatures:normal;font-variant-caps:normal;font-variant-numeric:normal;font-variant-east-asian:normal;stroke-width:0.368594;fill:#fc0103;fill-opacity:1"
         id="path3111" />
      <path
         d="m 211.48892,281.93324 c -4.67084,0 -9.1322,-0.26857 -11.52586,-1.629 -5.73386,-3.25881 -9.12228,3.89944 -5.54874,6.01101 4.82898,2.85341 7.23755,4.25833 16.29616,4.25833 11.60635,0 17.90144,-6.57078 17.90144,-16.19555 v -32.04988 c 0,-4.2259 -8.02789,-4.71461 -8.02789,-0.53534 v 2.19389 c -1.69849,-2.68928 -6.56623,-4.20628 -11.23708,-4.20628 -8.91707,0 -16.9849,6.9355 -16.9849,17.90491 0,10.96941 7.99706,17.76337 17.40952,17.76337 4.52931,0 8.20937,-1.98157 9.76632,-4.38776 v 2.96324 c 0,4.60007 -2.59965,7.90906 -8.04897,7.90906 z m -8.79439,-24.24791 c 0,-4.81239 3.60929,-8.56322 8.35091,-8.56322 4.81239,0 8.42168,3.75083 8.42168,8.56322 0,4.88316 -3.60929,8.56322 -8.42168,8.56322 -4.74162,0 -8.35091,-3.68006 -8.35091,-8.56322 z"
         style="font-style:normal;font-variant:normal;font-weight:600;font-stretch:normal;font-size:70.7704px;font-family:'Waze Boing';-inkscape-font-specification:'Waze Boing, Semi-Bold';font-variant-ligatures:normal;font-variant-caps:normal;font-variant-numeric:normal;font-variant-east-asian:normal;stroke-width:0.368594;fill:#fc0103;fill-opacity:1"
         id="path3113" />
      <path
         d="m 240.85664,234.94323 c 3.01454,0 5.51596,-2.63266 5.51596,-5.72604 0,-3.15919 -2.50142,-5.79186 -5.51596,-5.79186 -3.07868,0 -5.58011,2.63267 -5.58011,5.79186 0,3.09338 2.50143,5.72604 5.58011,5.72604 z m 3.20696,40.29316 c 0.76966,0 1.34692,-0.65816 1.34692,-1.44797 v -29.69207 c 0,-6.266 -9.23604,-6.26449 -9.23604,0 v 29.69207 c 0,0.78981 0.64139,1.44797 1.41106,1.44797 z"
         style="font-style:normal;font-variant:normal;font-weight:600;font-stretch:normal;font-size:70.7704px;font-family:'Waze Boing';-inkscape-font-specification:'Waze Boing, Semi-Bold';font-variant-ligatures:normal;font-variant-caps:normal;font-variant-numeric:normal;font-variant-east-asian:normal;stroke-width:0.338397;fill:#fc0103;fill-opacity:1"
         id="path3115" />
      <path
         d="m 269.42096,238.63671 c -10.8246,0 -18.61831,8.49865 -18.61831,19.0487 0,10.55006 7.64939,18.68238 18.76265,18.68238 7.72154,0 12.29234,-2.33352 15.1789,-6.14327 1.76049,-3.12077 -2.37815,-6.93296 -6.07037,-4.75126 -3.26936,2.26553 -5.50033,1.9563 -8.89204,1.9563 -4.11336,0 -7.72155,-2.85731 -8.2267,-7.32642 h 23.05664 c 1.44327,0 1.8041,-0.80591 1.8041,-1.68508 v -1.97813 c 0,-9.15803 -5.8816,-17.80322 -16.99487,-17.80322 z m 7.79372,14.87265 h -15.4431 c 1.0103,-3.95627 4.18552,-6.374 7.72156,-6.374 3.39169,0 6.7834,2.05141 7.72154,6.374 z"
         style="font-style:normal;font-variant:normal;font-weight:600;font-stretch:normal;font-size:70.7704px;font-family:'Waze Boing';-inkscape-font-specification:'Waze Boing, Semi-Bold';font-variant-ligatures:normal;font-variant-caps:normal;font-variant-numeric:normal;font-variant-east-asian:normal;stroke-width:0.378708;fill:#fc0103;fill-opacity:1"
         id="path3117" />
      <path
         d="m 305.22329,238.36089 c -9.47718,0 -15.3545,5.14688 -15.3545,11.69076 0,5.80861 3.89372,9.41142 9.69757,10.58786 l 5.87732,1.24995 c 3.37947,0.66174 5.14266,1.397 5.14266,3.16164 0,1.54407 -1.61626,3.01461 -4.92226,3.01461 -3.52638,0 -7.18415,-0.67124 -9.46161,-2.65647 -5.04912,-2.6826 -9.53346,2.98332 -4.49702,6.84749 2.93865,2.05875 7.56705,3.97044 13.5913,3.97044 9.77106,0 16.16264,-5.22039 16.16264,-12.13191 0,-6.69094 -4.99573,-9.632 -11.09344,-10.80843 l -5.65693,-1.10291 c -3.01213,-0.58821 -4.11412,-1.54405 -4.11412,-2.94107 0,-1.47053 1.83666,-2.64696 4.62839,-2.64696 3.01213,0 5.5545,0.31547 7.75851,1.78601 4.42278,2.61338 8.95799,-2.96063 4.84281,-6.4763 -2.20399,-1.98522 -5.47507,-3.54471 -12.60132,-3.54471 z"
         style="font-style:normal;font-variant:normal;font-weight:600;font-stretch:normal;font-size:70.7704px;font-family:'Waze Boing';-inkscape-font-specification:'Waze Boing, Semi-Bold';font-variant-ligatures:normal;font-variant-caps:normal;font-variant-numeric:normal;font-variant-east-asian:normal;stroke-width:0.382793;fill:#fc0103;fill-opacity:1"
         id="path3119" />
      <path
         d="m 145.9769,238.63671 c -10.8246,0 -18.61831,8.49865 -18.61831,19.0487 0,10.55006 7.64939,18.68238 18.76265,18.68238 7.72154,0 12.29234,-2.33352 15.1789,-6.14327 1.76049,-3.12077 -2.37815,-6.93296 -6.07037,-4.75126 -3.26936,2.26553 -5.50033,1.9563 -8.89204,1.9563 -4.11336,0 -7.72155,-2.85731 -8.2267,-7.32642 h 23.05664 c 1.44327,0 1.8041,-0.80591 1.8041,-1.68508 v -1.97813 c 0,-9.15803 -5.8816,-17.80322 -16.99487,-17.80322 z m 7.79372,14.87265 h -15.4431 c 1.0103,-3.95627 4.18552,-6.374 7.72156,-6.374 3.39169,0 6.7834,2.05141 7.72154,6.374 z"
         style="font-style:normal;font-variant:normal;font-weight:600;font-stretch:normal;font-size:70.7704px;line-height:1.25;font-family:'Waze Boing';-inkscape-font-specification:'Waze Boing, Semi-Bold';font-variant-ligatures:normal;font-variant-caps:normal;font-variant-numeric:normal;font-variant-east-asian:normal;text-align:start;letter-spacing:0px;word-spacing:0px;writing-mode:lr-tb;text-anchor:start;fill:#fc0103;fill-opacity:1;stroke:none;stroke-width:0.378708"
         id="path3117-5" />
    </g>
  </g>
</svg>
