<?xml version="1.0" encoding="UTF-8" standalone="no"?>
<svg
   xmlns:dc="http://purl.org/dc/elements/1.1/"
   xmlns:cc="http://creativecommons.org/ns#"
   xmlns:rdf="http://www.w3.org/1999/02/22-rdf-syntax-ns#"
   xmlns:svg="http://www.w3.org/2000/svg"
   xmlns="http://www.w3.org/2000/svg"
   xmlns:xlink="http://www.w3.org/1999/xlink"
   xmlns:sodipodi="http://sodipodi.sourceforge.net/DTD/sodipodi-0.dtd"
   xmlns:inkscape="http://www.inkscape.org/namespaces/inkscape"
   width="644.16687"
   height="304.17319"
   version="1.1"
   id="svg10"
   sodipodi:docname="Logo_GRT_Gaz.svg"
   inkscape:version="0.92.4 (5da689c313, 2019-01-14)">
  <metadata
     id="metadata16">
    <rdf:RDF>
      <cc:Work
         rdf:about="">
        <dc:format>image/svg+xml</dc:format>
        <dc:type
           rdf:resource="http://purl.org/dc/dcmitype/StillImage" />
        <dc:title />
      </cc:Work>
    </rdf:RDF>
  </metadata>
  <defs
     id="defs14">
    <linearGradient
       inkscape:collect="always"
       id="linearGradient850">
      <stop
         style="stop-color:#01b48d;stop-opacity:1;"
         offset="0"
         id="stop846" />
      <stop
         style="stop-color:#0081c3;stop-opacity:1"
         offset="1"
         id="stop848" />
    </linearGradient>
    <linearGradient
       gradientTransform="translate(-0.00326,0.00685187)"
       inkscape:collect="always"
       xlink:href="#linearGradient850"
       id="linearGradient852-9"
       x1="420.50336"
       y1="157.52042"
       x2="548.81586"
       y2="157.52042"
       gradientUnits="userSpaceOnUse" />
  </defs>
  <sodipodi:namedview
     pagecolor="#ffffff"
     bordercolor="#666666"
     borderopacity="1"
     objecttolerance="10"
     gridtolerance="10"
     guidetolerance="10"
     inkscape:pageopacity="0"
     inkscape:pageshadow="2"
     inkscape:window-width="1920"
     inkscape:window-height="1001"
     id="namedview12"
     showgrid="false"
     inkscape:zoom="2"
     inkscape:cx="215.71889"
     inkscape:cy="146.93564"
     inkscape:window-x="-9"
     inkscape:window-y="-9"
     inkscape:window-maximized="1"
     inkscape:current-layer="svg10"
     inkscape:pagecheckerboard="true"
     showguides="false"
     fit-margin-top="0"
     fit-margin-left="0"
     fit-margin-right="0"
     fit-margin-bottom="0" />
  <g
     id="g920"
     transform="translate(-712.06003,0.00682187)">
    <path
       style="fill:url(#linearGradient852-9);fill-opacity:1"
       d="M 100.66211 0.001953125 C 79.655709 -0.10202688 61.652603 2.5981275 47.595703 8.0859375 C 20.095703 18.805937 4.3459375 41.355234 0.5859375 75.365234 C -0.6440625 86.535234 0.11546875 105.70625 2.3554688 119.90625 C 4.8310687 134.80222 8.4723937 149.4808 13.246094 163.80664 C 16.166094 172.25664 23.615625 187.16664 31.515625 200.30664 C 38.455625 211.85664 49.715234 227.65547 50.615234 227.10547 C 50.895234 226.92547 50.986406 227.01486 50.816406 227.29492 C 50.166406 228.34492 67.515156 248.07531 68.535156 247.44531 C 68.815156 247.26531 68.906328 247.35651 68.736328 247.64648 C 68.106328 248.65648 84.355937 262.73648 93.835938 269.39648 C 101.43594 274.70649 110.53523 279.16492 119.11523 284.54492 C 142.03523 295.88492 166.39523 302.27531 193.11523 303.94531 C 200.26523 304.40531 215.10695 304.13625 223.37695 303.40625 C 250.69695 301.02625 278.83645 293.14602 304.64648 280.66602 C 317.51648 274.43602 329.84594 267.25578 329.08594 266.42578 C 328.87594 266.19578 328.97664 266.15544 329.30664 266.35547 C 329.97664 266.73547 333.25664 264.62602 341.30664 258.66602 C 372.17664 235.73602 392.23641 207.60523 396.81641 180.86523 C 398.72641 169.63523 397.51562 156.90664 393.51562 146.30664 L 392.60547 143.88672 L 385.72656 142.86523 L 378.21289 123.77344 L 380.33594 122.0957 L 376.10547 116.76562 C 368.39547 107.04563 353.76617 93.154922 340.57617 83.044922 C 334.43617 78.344922 320.95633 69.285703 312.73633 64.345703 C 268.3363 37.665703 214.73672 17.135937 162.63672 6.8359375 C 140.07112 2.3687375 119.19711 0.093693125 100.66211 0.001953125 z M 449.25195 151.62891 C 442.32575 151.42641 435.15156 152.99022 429.22656 156.36523 C 422.87656 159.97523 416.96617 167.38516 414.32617 175.03516 C 411.62617 182.90516 412.62656 191.98516 415.22656 200.78516 C 417.48656 206.65516 423.73602 213.91609 429.41602 217.24609 C 437.10602 221.76609 448.04688 223.195 457.04688 220.875 C 460.50688 219.975 465.61539 217.66562 467.77539 216.01562 C 468.62529 215.36562 469.47625 214.83594 469.65625 214.83594 C 469.83625 214.83594 469.89664 217.50563 469.80664 220.76562 C 469.68664 224.13563 469.37703 231.49531 464.70703 234.69531 C 456.93703 241.52531 440.96516 240.97508 428.53516 233.45508 C 426.96516 232.51508 425.63594 231.80672 425.58594 231.88672 C 425.51594 231.95672 424.70516 235.09547 423.78516 238.85547 L 422.08594 245.68555 L 423.79688 246.60547 C 429.04688 249.40547 436.51609 251.85547 442.99609 253.10547 C 447.68889 253.77361 457.00864 253.27429 461.33594 252.125 C 469.49594 249.805 474.76617 245.65664 480.32617 238.55664 C 482.80617 234.59664 484.33672 228.27617 485.38672 222.57617 C 485.63672 220.31617 485.85537 203.69649 485.85547 185.64648 L 485.85547 152.8457 L 469.79688 152.8457 L 469.95703 155.75586 C 470.04703 157.35586 469.94706 158.65625 469.72656 158.65625 C 469.02116 158.37653 468.36566 157.98477 467.78516 157.49609 C 462.85516 153.80109 456.17825 151.83141 449.25195 151.62891 z M 532.50781 151.7793 C 529.29281 151.7853 526.12086 152.06522 524.00586 152.61523 C 510.55586 156.54523 503.46516 165.55609 498.78516 178.99609 C 495.71516 192.61609 498.82715 207.29492 506.62695 216.04492 C 512.13695 222.01492 518.47531 224.55609 526.19531 226.99609 L 526.18555 226.99609 C 531.03555 228.05609 539.51672 227.28547 544.13672 225.35547 C 545.18672 224.91547 546.15516 224.54516 546.28516 224.53516 C 547.51516 224.39516 553.22648 220.73594 554.39648 219.33594 C 554.88648 218.73594 555.00586 219.29594 555.00586 222.33594 L 555.00586 226.06641 L 570.49609 226.06641 L 570.49609 152.93555 L 555.00586 152.93555 L 555.00586 159.22656 L 552.57617 157.48633 C 549.76617 155.48633 545.36563 153.92594 541.26562 152.58594 C 538.98062 152.04094 535.72281 151.77305 532.50781 151.7793 z M 584.12695 152.92578 L 584.12695 165.51562 L 603.72656 165.51562 C 614.51656 165.51562 623.3457 165.70602 623.3457 165.91602 C 623.3457 166.14602 621.3668 168.75609 618.9668 171.74609 C 608.7568 184.60609 598.74688 198.43609 588.54688 209.74609 L 584.11523 215.29492 L 584.11523 220.67578 L 584.11523 226.06641 L 644.16602 226.06641 L 644.16602 213.4668 L 624.54688 213.4668 C 613.76688 213.4668 604.94531 213.33578 604.94531 213.17578 C 604.94531 212.90578 606.33656 211.04672 607.97656 209.13672 C 619.23656 195.81672 627.41516 182.6957 638.53516 170.8457 L 644.14648 163.82617 L 644.16602 158.375 L 644.16602 152.92578 L 584.12695 152.92578 z M 535.86328 165.45312 C 538.63828 165.39282 541.44047 165.81516 544.10547 166.78516 C 547.54547 168.01516 551.91688 169.89523 555.04688 173.11523 L 555.01562 189.7168 C 554.97563 206.2568 554.97668 206.31633 553.89648 207.23633 C 551.87648 208.96633 547.17633 211.54516 544.23633 212.53516 C 532.55633 216.25516 518.84633 211.57539 514.73633 199.02539 C 512.55633 192.86539 513.12516 183.55672 516.03516 177.38672 C 519.45516 170.17172 527.53828 165.63406 535.86328 165.45312 z M 449.54297 165.65625 C 456.47837 165.55583 465.34325 167.88897 469.87695 173.36523 L 469.87695 200.60547 L 468.54688 201.86523 C 466.72688 203.58522 461.47688 206.35516 458.29688 207.28516 C 454.67688 208.33516 447.20531 208.26672 443.69531 207.13672 C 435.10531 204.38672 430.06602 198.71633 428.66602 190.23633 C 426.81462 179.08446 434.06845 168.45079 445.12695 166.10547 C 446.44515 165.83172 447.94237 165.67942 449.54297 165.65625 z "
       transform="translate(712.06003,-0.00682187)"
       id="path2-7" />
    <path
       sodipodi:nodetypes="ccccccccccccccccccccccccccccccccccccccccccccccccssccccccccccccccccccccccc"
       inkscape:connector-curvature="0"
       id="rect843-6"
       d="m 1092.3964,122.08984 -38.0391,0.12109 -38.041,0.11914 v 21.31056 h 34.3809 v 82.79882 h 21.7988 v -82.8203 l 16.0801,0.13086 16.0898,0.13086 z m -236.35159,-1.41406 c -8.02566,0.0608 -15.98422,1.50101 -23.05859,4.35351 -10.8696,4.31622 -19.9063,12.26786 -25.57032,22.50001 -2.34,4.3 -4.8989,12.37047 -5.6289,17.73047 -0.93,6.87 -0.41039,18.18969 1.09961,23.92969 7.93,23.52 21.39922,34.64968 44.19922,38.17968 4.14,0.59998 13.56023,0.63101 17.99023,0.041 l -0.0195,-0.01 c 12.01,-1.59 25.10064,-6.18068 33.14063,-11.64062 l 2.84961,-1.93945 v -49.35938 h -48.89063 v 19.13868 l 13.56055,-0.13868 13.56054,-0.13086 v 19.25977 l -3.27148,1.49023 c -10.72,4.89995 -25.60914,4.86016 -35.36914,-0.0898 -11.6,-5.88 -17.65039,-17.13 -16.90039,-31.5 0.48,-9.44 3.31984,-16.54992 8.83984,-22.16992 6.44,-6.57 14.00039,-9.36078 25.15039,-9.30078 10.5,0.05 18.40914,2.47961 26.36914,8.09961 l 3.1211,2.2207 1.03906,-1.78906 c 0.57,-0.98 2.82023,-4.70024 4.99023,-8.24024 1.36687,-2.18022 2.68427,-4.39107 3.95118,-6.63086 0,-0.37 -9.03157,-6.18876 -11.60157,-7.46876 -8.80312,-4.41 -19.23207,-6.61335 -29.55078,-6.53515 z m 62.92188,1.59375 v 104.17968 h 21.80078 v -37.28905 h 10.6289 l 5.21094,5.22071 c 2.87,2.87 8.91922,9.02921 13.44922,13.69921 11.83,12.2 18.09961,16.5396 27.59961,19.0996 3.23996,0.87997 10.05966,0.87954 14.17966,0.0195 5.34,-1.11999 9.5508,-2.86921 9.5508,-3.94921 0,-2.44 -1.9198,-16.16992 -2.2598,-16.16992 -0.21,0 -2.0711,0.45954 -4.1211,1.01954 -5.24,1.44 -10.8799,1.15975 -14.9199,-0.74024 -6.25997,-3.38 -12.29997,-8.62961 -16.74997,-12.84961 l -6.34961,-6.01953 2.87109,-0.58984 c 6.62,-1.35 13.43883,-5.23946 18.29883,-10.43946 6.44996,-6.9 9.08096,-15.44125 7.96096,-25.78125 -0.9,-8.15 -3.3007,-13.34 -8.72073,-18.75 -2.62,-2.62001 -4.25929,-3.74946 -8.27929,-5.68946 -9.68,-4.66 -9.10118,-4.60078 -41.70117,-4.80078 z m 21.78906,18.95118 h 14.86133 c 12.11,0 15.36961,0.13953 17.59961,0.76953 3.83406,1.06117 7.05666,3.66428 8.90039,7.18945 1.36,2.6 1.49851,3.26977 1.47851,7.25977 -0.02,2.97 -0.27836,4.97118 -0.81836,6.20117 -1.2,2.72 -4.92148,6.40922 -7.77148,7.69922 -2.47,1.12 -2.91867,1.15102 -18.38867,1.29102 l -15.86133,0.13867 v -15.26953 z"
       style="opacity:1;fill:#ffffff;fill-opacity:1;stroke:none;stroke-width:10;stroke-miterlimit:4;stroke-dasharray:none;stroke-opacity:1" />
  </g>
</svg>
