<svg width="361.35999" height="98" xmlns="http://www.w3.org/2000/svg">
 <metadata id="metadata15">image/svg+xml</metadata>

 <!-- RGB 0-84-159 -->
 <!-- RGB 142-186-229 -->
 <!-- RGB 142-186-229 -->
 <g>
  <title>background</title>
  <rect fill="none" id="canvas_background" height="100" width="363.35999" y="-1" x="-1"/>
 </g>
 <g>
  <title>Layer 1</title>
  <path fill="#00549f" fill-rule="evenodd" id="rwth" d="m16.47404,46.81361l-0.582,0l-14.596,0l0,-5.14l0,-40.143l0,-0.337l14.565,0l0.03,0l10.293,0c6.75,-0.001 12.57,4.368 14.469,10.161c1.76,5.366 0.256,11.199 -3.713,15.348c0.528,1.431 1.042,2.548 1.532,3.833c1.101,2.54 2.111,5.08 3.212,7.589l3.611,8.689l-0.092,0l-15.299,0c0,0.007 -0.123,-0.368 -0.245,-0.52c-0.611,-1.346 -1.162,-2.785 -1.774,-4.131l-3.702,-8.781c-1.468,-3.55 -2.937,-6.903 -4.406,-10.453c1.834,-0.049 3.204,0.294 4.974,-0.518c1.242,-0.613 3.127,-2.133 3.175,-5.047c-0.048,-1.446 -0.448,-2.54 -1.403,-3.677c-0.959,-1.058 -2.346,-1.842 -4.152,-1.868c0,0 -5.9,-0.003 -5.896,0l0,34.995l-0.001,0zm151.269,-45.612l-7.917,0l0,16.46l-9.891,0l-0.734,0l0,-13.614l0,-2.846l-10.953,0l-38.552,0l-10.648,0l-1.254,0l0,20.5c0.122,0.948 0.336,1.896 0.428,2.876l-4.1,-9.332c-1.836,-4.284 -3.58,-8.568 -5.416,-12.882c-0.153,-0.398 -0.262,-0.665 -0.46,-1.162l-15.665,0c0,2.233 0.031,4.711 0,6.884l0,13.616c0.153,0.856 0.429,1.988 0.552,2.876l-0.092,-0.184c-3.366,-7.68 -6.609,-15.39 -9.821,-23.192l-15.629,0c0.306,0.918 0.795,1.744 1.102,2.662l3.452,8.085l2.409,5.66l0.153,0.344c1.108,2.639 1.985,4.706 3.06,7.244c3.099,7.328 6.081,14.403 9.187,21.624l15.665,0l0,-23.865c0.397,1.346 0.704,2.723 1.01,4.1c2.662,6.547 5.539,13.187 8.261,19.765l15.635,0l0,-18.511l0,-16.552l10.707,0l0,15.42l0,0.734l0,18.909l15.056,0l0.123,0l0,-15.635l0,-15.023l0,-3.304l0,-1.101l10.614,0l0,35.063l6.702,0c2.754,-0.03 5.723,0 8.476,0l0,-18.602l0.123,0l9.087,0l1.415,0l0,18.602l3.327,0l11.851,0l0,-45.619l-7.262,0l-0.001,0z"/>
  <path fill="#8ebae5" fill-rule="evenodd" id="aachen" d="m228.94304,1.42761l-11.321,0l-9.476,35.802l-9.478,-35.802l-11.323,0l-12.02,45.417l9.542,0l2.098,-9.605l12.086,0l2.099,9.605l13.992,0l2.098,-9.605l12.087,0l2.099,9.605l9.541,0l-12.024,-45.417zm-40.388,28.306l4.39,-20.418l0.127,0l4.388,20.418l-8.905,0zm30.276,0l4.39,-20.418l0.127,0l4.387,20.418l-8.904,0zm40.261,-12.976c0,-6.616 -1.336,-9.478 -5.471,-9.478c-4.644,0 -5.726,4.644 -5.726,17.492c0,13.74 1.909,16.22 5.853,16.22c3.309,0 5.724,-1.717 5.724,-11.513l9.161,0c0,9.796 -2.418,18.256 -14.438,18.256c-13.741,0 -15.457,-9.796 -15.457,-23.598c0,-13.804 1.716,-23.6 15.457,-23.6c13.103,0 14.055,9.605 14.055,16.221l-9.158,0zm10.935,-15.329l9.157,0l0,17.364l10.688,0l0,-17.364l9.159,0l0,45.416l-9.159,0l0,-20.164l-10.688,0l0,20.164l-9.157,0l0,-45.416zm56.925,-0.001l0,7.505l-16.22,0l0,10.686l15.264,0l0,7.507l-15.264,0l0,12.212l16.856,0l0,7.506l-26.018,0l0,-45.416l25.382,0zm13.234,0l11.067,31.104l0.126,0l0,-31.104l8.397,0l0,45.416l-10.433,0l-11.192,-31.804l-0.131,0l0,31.804l-8.395,0l0,-45.416l10.561,0z"/>
  <path fill="#8ebae5" fill-rule="evenodd" id="university" d="m241.13904,57.68761l4.327,0c4.134,0 6.359,2.099 6.359,6.296c0,4.9 -2.479,6.809 -6.87,6.809l-3.816,0l0,-13.105zm-9.158,38.675l9.158,0l0,-19.211l4.899,0c3.688,0 5.277,2.162 5.407,5.723l0.253,8.715c0.063,1.782 0.253,3.5 1.146,4.773l9.921,0l0,-0.383c-1.716,-0.89 -1.972,-3.371 -2.036,-8.142c-0.126,-9.604 -1.079,-13.038 -7.312,-13.868l0,-0.126c5.15,-1.083 7.568,-5.153 7.568,-11.196c0,-7.759 -4.58,-11.703 -12.085,-11.703l-16.92,0l0,45.418l0.001,0zm-134.765,-45.418l0,31.677c0,12.149 7.062,14.631 14.503,14.631c7.443,0 14.503,-3.055 14.503,-14.631l0,-31.677l-9.16,0l0,31.677c0,4.517 -1.081,7.888 -5.343,7.888c-4.262,0 -5.343,-3.371 -5.343,-7.888l0,-31.677l-9.16,0zm30.969,0l0,45.418l8.396,0l0,-31.806l0.127,0l11.196,31.806l10.432,0l0,-45.418l-8.397,0l0,31.104l-0.127,0l-11.067,-31.104l-10.56,0zm41.665,0l-9.159,0l0,45.418l9.159,0l0,-45.418zm0.629,0l10.432,45.418l11.767,0l10.434,-45.418l-9.478,0l-6.746,33.586l-0.189,0l-6.423,-33.586l-9.797,0zm33.446,0l0,45.418l26.018,0l0,-7.508l-16.859,0l0,-12.212l15.267,0l0,-7.506l-15.267,0l0,-10.687l16.223,0l0,-7.505l-25.382,0zm57.822,31.231l0,1.845c0,8.398 4.071,13.232 14.438,13.232c9.925,0 15.774,-4.327 15.774,-13.931c0,-5.534 -1.78,-9.031 -8.649,-12.023l-7.062,-3.051c-3.881,-1.656 -4.707,-3.372 -4.707,-6.17c0,-2.672 1.083,-5.28 5.217,-5.28c3.498,0 4.96,2.482 4.96,6.743l8.778,0l0,-1.273c0,-8.715 -5.913,-12.212 -14.059,-12.212c-8.647,0 -14.055,4.517 -14.055,13.358c0,7.569 3.752,10.94 11.893,13.738c6.043,2.099 8.143,3.625 8.143,7.762c0,3.814 -2.672,5.597 -5.47,5.597c-4.834,0 -6.043,-2.735 -6.043,-6.999l0,-1.336l-9.158,0zm40.57,-31.231l-9.161,0l0,45.418l9.161,0l0,-45.418zm47.574,0l-6.359,17.556l-0.127,0l-5.979,-17.556l-33.908,0l0,7.505l9.924,0l0,37.913l9.158,0l0,-37.913l7.727,0l8.562,20.038l0,17.875l9.16,0l0,-17.875l11.767,-27.543l-9.925,0z"/>
 </g>
</svg>