<?xml version="1.0" encoding="utf-8"?>
<!-- Generator: Adobe Illustrator 22.1.0, SVG Export Plug-In . SVG Version: 6.00 Build 0)  -->
<svg version="1.1" id="Ebene_1" xmlns="http://www.w3.org/2000/svg" xmlns:xlink="http://www.w3.org/1999/xlink" x="0px" y="0px"
	 viewBox="0 0 283.5 70.9" style="enable-background:new 0 0 283.5 70.9;" xml:space="preserve">
<style type="text/css">
	.st0{fill:#E4032E;}
</style>
<g>
	<path d="M234.6,52.1h9.6V14.9h-9.6V52.1z M234.4,10.5h9.9V1h-9.9V10.5z"/>
	<path d="M209.9,52.1V14.9h9v5.2l0.5-0.7c2.5-3.5,5.7-5.3,9.5-5.3c0.3,0,0.6,0,0.8,0v9c-0.2,0-0.3,0-0.5,0c-3.9,0-9.8,2.4-9.8,8.9
		v20.2H209.9z"/>
	<path d="M187,69.9c-7,0-13.5-2.5-17.7-6.9l6.1-6.2c2.3,2.9,6.8,5.1,11.5,5.1c4.5,0,7.5-1.4,7.5-4.1c0-1.7-1.5-3.1-5.1-3.5
		c-2.6-0.3-3.6-0.4-6.3-0.8c-7.4-0.9-12-3.3-12-8.9c0-2.6,1.5-5,3.7-6.9l0.3-0.2l-0.2-0.2c-2.6-2.3-3.9-5.7-3.9-9.7
		c0-8.1,6.3-13.5,15.6-13.5c3.1,0,6,0.7,8.5,2.1l0.1,0l10.7-1.2v8.3h-4.4l0.1,0.4c0.4,1.3,0.6,2.6,0.6,4c0,8.3-6,13.5-15.6,13.5
		c-1.6,0-3.8-0.3-5.4-0.7c-0.6,0.4-1.1,1.3-1.1,2.1c0,1.8,1.7,2.8,5.6,3.2c2.9,0.3,3.9,0.4,6.6,0.8c6.6,0.8,12.2,3.6,12.2,10.9
		C204.2,64.6,197.2,69.9,187,69.9 M186.3,21.7c-4.1,0-6.5,2.3-6.5,6.3c0,3.9,2.4,6.2,6.5,6.2c4.1,0,6.5-2.3,6.5-6.2
		C192.8,24,190.4,21.7,186.3,21.7"/>
	<path d="M263.9,53c-8.9,0-14.4-7.3-14.4-19c0-11.9,6-19.6,15.4-19.6c3.1,0,6,1,8.5,2.8l0.5,0.3V1h9.7v51.1h-7.6l-1-3.5l-0.3,0.3
		C271.1,51.7,267.9,53,263.9,53 M267,22.3c-4.9,0-7.7,4.3-7.7,11.7c0,6.8,2.8,10.9,7.6,10.9c2.5,0,5.2-1.4,6.9-3.6l0.1-0.1V25.8
		l-0.1-0.1C272,23.5,269.6,22.3,267,22.3"/>
	<path class="st0" d="M86.7,52.1h9.6V14.9h-9.6V52.1z M86.6,10.5h9.9V1h-9.9V10.5z"/>
	<path class="st0" d="M150.9,53c-8.1,0-13.2-3.7-16-7.9l7-4.8c1.1,2.1,4.1,5.2,9,5.2c3.4,0,5.7-1.5,5.7-3.7c0-2.8-2.8-3.6-7.4-4.8
		c-5.6-1.5-12.6-3.4-12.6-11.6c0-6.8,5.8-11.2,14.7-11.2c6.6,0,11.5,3.1,13.8,6.7l-6.4,4.7c-1.2-2.1-3.6-4-7.2-4
		c-3.3,0-5.3,1.4-5.3,3.4c0,2.3,2.3,3.1,7.2,4.3c5.9,1.4,13,3.4,13,11.9C166.2,48.1,159.9,53,150.9,53"/>
	<path class="st0" d="M16,53C8,53,2.8,49.3,0,45.1l7-4.8c1.1,2.1,4.1,5.2,9,5.2c3.4,0,5.7-1.5,5.7-3.7c0-2.8-2.8-3.6-7.4-4.8
		C8.6,35.5,1.7,33.6,1.7,25.3c0-6.8,5.8-11.2,14.7-11.2c6.6,0,11.5,3.1,13.8,6.7l-6.4,4.7c-1.2-2.1-3.6-4-7.2-4
		c-3.3,0-5.3,1.4-5.3,3.4c0,2.3,2.3,3.1,7.2,4.3c5.9,1.4,13,3.4,13,11.9C31.4,48.1,25.1,53,16,53"/>
	<path class="st0" d="M116.8,53c-8.1,0-13.2-3.7-16-7.9l7-4.8c1.1,2.1,4.1,5.2,9,5.2c3.4,0,5.7-1.5,5.7-3.7c0-2.8-2.8-3.6-7.4-4.8
		c-5.6-1.5-12.6-3.4-12.6-11.6c0-6.8,5.8-11.2,14.7-11.2c6.6,0,11.5,3.1,13.8,6.7l-6.4,4.7c-1.2-2.1-3.6-4-7.2-4
		c-3.3,0-5.3,1.4-5.3,3.4c0,2.3,2.3,3.1,7.2,4.3c5.9,1.4,13,3.4,13,11.9C132.1,48.1,125.8,53,116.8,53"/>
	<polygon class="st0" points="63.3,52.1 57.3,29.4 57,29.4 50.9,52.1 42.1,52.1 32,14.9 41.8,14.9 47.3,37.6 47.6,37.6 52.8,14.9 
		61.9,14.9 66.9,37.6 67.2,37.6 72.9,14.9 82.6,14.9 72.1,52.1 	"/>
</g>
</svg>
