<?xml version="1.0" encoding="UTF-8" standalone="no"?>
<svg
   xmlns:dc="http://purl.org/dc/elements/1.1/"
   xmlns:cc="http://creativecommons.org/ns#"
   xmlns:rdf="http://www.w3.org/1999/02/22-rdf-syntax-ns#"
   xmlns:svg="http://www.w3.org/2000/svg"
   xmlns="http://www.w3.org/2000/svg"
   xmlns:sodipodi="http://sodipodi.sourceforge.net/DTD/sodipodi-0.dtd"
   xmlns:inkscape="http://www.inkscape.org/namespaces/inkscape"
   height="785.89557"
   viewBox="0 0 661.6541 207.93487"
   width="2500.74"
   version="1.1"
   id="svg24"
   sodipodi:docname="TOTAL_SA_logo.svg"
   inkscape:version="0.92.4 (5da689c313, 2019-01-14)">
  <metadata
     id="metadata30">
    <rdf:RDF>
      <cc:Work
         rdf:about="">
        <dc:format>image/svg+xml</dc:format>
        <dc:type
           rdf:resource="http://purl.org/dc/dcmitype/StillImage" />
        <dc:title></dc:title>
      </cc:Work>
    </rdf:RDF>
  </metadata>
  <defs
     id="defs28" />
  <sodipodi:namedview
     pagecolor="#ffffff"
     bordercolor="#666666"
     borderopacity="1"
     objecttolerance="10"
     gridtolerance="10"
     guidetolerance="10"
     inkscape:pageopacity="0"
     inkscape:pageshadow="2"
     inkscape:window-width="1920"
     inkscape:window-height="1001"
     id="namedview26"
     showgrid="false"
     fit-margin-top="0"
     fit-margin-left="0"
     fit-margin-right="0"
     fit-margin-bottom="0"
     inkscape:zoom="0.25"
     inkscape:cx="1672.5126"
     inkscape:cy="411.77806"
     inkscape:window-x="-9"
     inkscape:window-y="-9"
     inkscape:window-maximized="1"
     inkscape:current-layer="svg24" />
  <g
     id="g12"
     transform="matrix(6.4121534,0,0,6.4121534,-8.4827436,-8.4827551)"
     style="fill:#e4032e">
    <path
       d="m -0.8079,145.563 c -4.881,0 -7.686,-2.103 -7.686,-5.761 0,-3.62 2.805,-5.715 7.686,-5.715 4.886,0 7.677,2.095 7.677,5.715 0,3.658 -2.791,5.761 -7.677,5.761 m 0,-8.821 c -2.669,0 -4.021,1.022 -4.021,3.06 0,2.062 1.352,3.095 4.021,3.095 2.668,0 4.03,-1.033 4.03,-3.095 0,-2.038 -1.362,-3.06 -4.03,-3.06"
       transform="matrix(0.86829748,0,0,-0.86829748,59.867692,142.61485)"
       id="path2"
       inkscape:connector-curvature="0" />
    <path
       d="m -0.8079,145.563 v -2.448 h 4.628 v -7.598 c 0,-0.726 1.104,-0.99 2.037,-0.99 0.937,0 2.043,0.252 2.043,0.99 v 7.598 h 4.62 v 2.448 z"
       transform="matrix(0.86829748,0,0,-0.86829748,67.401909,142.85971)"
       id="path4"
       inkscape:connector-curvature="0" />
    <path
       d="m -0.807907,145.563 c -1.131003,0 -1.909003,0.192 -2.335003,0.54 -0.551,0.47 -0.612,1.163 -0.628,1.694 v 5.362 c 0,0.714 -1.048,0.949 -1.949,0.949 -0.905,0 -1.962,-0.235 -1.962,-0.936 v -5.195 c 0,-1.985 0.634,-3.375 1.904,-4.133 1.566,-0.909 4.409,-0.875 7.144,-0.839 h 3.41 l 0.009,0.492 v 2.066 z"
       transform="matrix(0.86829748,0,0,-0.86829748,100.35554,150.14212)"
       id="path6"
       inkscape:connector-curvature="0" />
    <path
       d="m -0.8079,145.563 c 0,-1.937 1.628001,-3.256 4.392,-3.481 v 11.673 h 6.202 v 2.7 h -16.163 v -2.7 h 5.569 z"
       transform="matrix(0.86829748,0,0,-0.86829748,45.470538,149.4362)"
       id="path8"
       inkscape:connector-curvature="0" />
    <path
       d="m -0.807907,145.563 -0.098,0.441 c -0.909003,4.488 -6.009003,9.616 -7.068003,10.374 -0.341,0.233 -0.705,0.293 -1.177,0.304 -0.482,-0.011 -0.85799,-0.071 -1.19599,-0.304 -1.053,-0.758 -6.16,-5.886 -7.056,-10.374 l -0.101,-0.441 h 3.612 l 0.065,0.316 c 0.147,0.638 0.381,1.326 0.696,2.036 h 7.93999 c 0.312,-0.71 0.554,-1.398 0.688,-2.036 l 0.077,-0.316 z m -11.045993,4.656 c 0.758,1.155 1.679,2.28 2.70299,3.28 1.012,-1 1.923,-2.125 2.687,-3.28 z"
       transform="matrix(0.86829748,0,0,-0.86829748,93.014948,152.36583)"
       id="path10"
       inkscape:connector-curvature="0" />
  </g>
  <path
     d="m 190.20279,115.8961 c -0.13362,-0.42871 -0.29508,-0.85185 -0.46767,-1.2917 -14.87122,16.97579 -51.37834,27.96078 -84.21638,25.51101 -19.353184,-1.43646 -55.181054,-11.44154 -73.253674,-22.51004 19.08593,18.28419 41.44564,32.2089 66.75064,39.7141 30.065354,8.92495 62.151754,8.32364 80.229944,-1.09683 13.26216,-8.94723 16.25756,-24.89856 10.95714,-40.32654"
     id="path14"
     inkscape:connector-curvature="0"
     style="fill:#f49600;stroke-width:5.56765652" />
  <path
     d="M 148.84401,9.1585549 C 208.05604,44.106741 172.81834,154.10136 125.69927,189.43371 81.848396,222.30515 35.224836,207.15556 25.113976,176.85637 c 8.84143,13.12297 26.36842,17.90002 41.94115,12.67756 43.277404,-17.34882 65.559164,-95.735857 68.443214,-122.972839 1.93198,-23.42869 -1.1358,-39.15732 -9.26458,-49.08446 -9.32026,-9.8491761 -23.6013,-14.6206561 -44.496724,-8.0619561 14.38126,-11.80343 45.148144,-13.18978 67.106974,-0.25612"
     id="path16"
     inkscape:connector-curvature="0"
     style="fill:#164194;stroke-width:5.56765652" />
  <path
     d="m 181.97881,154.65813 c 0.21714,-0.11692 0.47882,-0.28395 0.70709,-0.43985 0.0167,-0.0278 0.0835,-0.0557 0.12249,-0.0835 1.20262,-0.79617 2.41637,-1.69257 3.5466,-2.71701 0.49552,-0.47326 1.03002,-0.96321 1.53668,-1.51997 C 210.93063,126.53033 215.81903,61.539081 159.0846,30.755501 138.87958,19.798361 91.888546,4.4594649 45.047856,28.116441 29.564196,35.922291 13.585026,52.185411 4.9662964,74.272306 11.330126,63.793971 22.315106,56.678501 43.967726,53.610731 c 21.61364,-2.70032 51.38947,0.65699 80.519464,10.93488 18.79084,6.90945 34.00168,15.478083 45.86635,25.171374 9.81021,8.407162 16.1128,16.380045 19.38102,24.898565 0.17259,0.43427 0.32292,0.85185 0.46768,1.28056 5.30041,15.42797 2.30501,31.37931 -10.94601,40.32653 -0.0111,0.0223 0.0111,-0.0167 0,0 0.6013,-0.31179 1.21374,-0.64585 1.88186,-1.04672 0.0835,-0.0501 0.1726,-0.10578 0.25611,-0.16703 0.1726,-0.0947 0.37304,-0.20043 0.58461,-0.35076"
     id="path18"
     inkscape:connector-curvature="0"
     style="fill:#e4032e;stroke-width:5.56765652" />
  <path
     d="m 12.294446,111.66468 c 1.09683,1.72598 3.54103,4.66013 5.15008,6.5253 C 28.835946,91.442953 91.160296,74.060731 109.53914,74.261166 68.249386,60.971171 27.766956,67.318301 11.481566,81.432308 5.5687164,88.013277 3.7369564,97.890301 12.294446,111.66468"
     id="path20"
     inkscape:connector-curvature="0"
     style="fill:#f49600;stroke-width:5.56765652" />
  <path
     d="m 133.8286,172.34657 c -33.16096,-1.85403 -81.510504,-14.65407 -115.757154,-53.4495 -0.1726,-0.22271 -0.3786,-0.45098 -0.61801,-0.70709 -1.61462,-1.86517 -4.05883,-4.78819 -5.16122,-6.5253 -8.5574896,-13.774379 -6.7145896,-23.651403 -0.80731,-30.237942 -1.06342,0.974341 -2.3885296,2.182523 -3.8806596,4.114498 -8.76906,11.335751 -9.82134,29.736854 -3.84168,49.229224 13.0617196,42.34203 70.1134996,67.80849 116.4531136,60.80437 29.58096,-4.45969 48.12126,-21.10698 55.83246,-27.91623 -16.75308,4.76592 -29.14112,5.41177 -42.21954,4.68797"
     id="path22"
     inkscape:connector-curvature="0"
     style="fill:#4a96d2;stroke-width:5.56765652" />
</svg>
