<?xml version="1.0" encoding="UTF-8"?>
<svg xmlns="http://www.w3.org/2000/svg" xmlns:xlink="http://www.w3.org/1999/xlink" width="172.48pt" height="80.98pt" viewBox="0 0 172.48 80.98" version="1.1">
<g id="surface1">
<path style=" stroke:none;fill-rule:nonzero;fill:rgb(0%,68.199158%,93.699646%);fill-opacity:1;" d="M 64.957031 27.011719 L 64.957031 41.871094 C 64.855469 44.929688 63.257813 46.855469 60.136719 46.855469 C 57.011719 46.855469 55.414063 44.929688 55.316406 41.871094 L 55.316406 27.011719 L 48.667969 27.011719 L 48.667969 42.203125 C 48.734375 48.882813 54.085938 51.511719 60.136719 51.511719 C 66.183594 51.511719 71.535156 48.882813 71.601563 42.203125 L 71.601563 27.011719 L 64.957031 27.011719 "/>
<path style=" stroke:none;fill-rule:evenodd;fill:rgb(13.699341%,12.199402%,12.5%);fill-opacity:1;" d="M 81.578125 29.871094 L 86.433594 29.871094 C 89.789063 29.871094 91.585938 31.234375 92.519531 32.597656 C 93.945313 34.65625 94.34375 36.785156 94.34375 39.011719 C 94.34375 41.238281 93.945313 43.367188 92.519531 45.425781 C 91.585938 46.789063 89.789063 48.152344 86.433594 48.152344 L 81.578125 48.152344 Z M 78.253906 51.011719 L 86.234375 51.011719 C 88.460938 50.945313 90.820313 50.777344 92.746094 49.550781 C 96.238281 47.320313 97.835938 43.566406 97.835938 39.011719 C 97.835938 34.457031 96.238281 30.703125 92.746094 28.472656 C 90.820313 27.246094 88.460938 27.078125 86.234375 27.011719 L 78.253906 27.011719 L 78.253906 51.011719 "/>
<path style=" stroke:none;fill-rule:evenodd;fill:rgb(13.699341%,12.199402%,12.5%);fill-opacity:1;" d="M 115.980469 43.265625 L 115.980469 41.703125 C 115.980469 37.082031 113.617188 33.925781 108.632813 33.824219 C 103.347656 33.824219 100.886719 37.914063 100.886719 42.800781 C 100.886719 47.722656 103.015625 51.511719 108.367188 51.511719 C 112.355469 51.511719 115.28125 49.617188 115.777344 45.824219 L 112.457031 45.824219 C 112.089844 48.253906 110.859375 49.21875 108.398438 49.21875 C 105.175781 49.21875 103.980469 46.191406 104.210938 43.265625 Z M 104.210938 41.074219 C 104.210938 38.347656 105.773438 36.121094 108.398438 36.121094 C 111.460938 36.121094 112.722656 38.28125 112.652344 41.074219 L 104.210938 41.074219 "/>
<path style=" stroke:none;fill-rule:nonzero;fill:rgb(13.699341%,12.199402%,12.5%);fill-opacity:1;" d="M 122.96875 51.011719 L 122.96875 27.011719 L 119.8125 27.011719 L 119.8125 51.011719 L 122.96875 51.011719 "/>
<path style=" stroke:none;fill-rule:nonzero;fill:rgb(13.699341%,12.199402%,12.5%);fill-opacity:1;" d="M 132.9375 51.011719 L 132.9375 36.519531 L 136.796875 36.519531 L 136.796875 34.324219 L 132.9375 34.324219 L 132.9375 31.664063 C 132.839844 29.835938 133.871094 29.371094 135.664063 29.371094 C 136.195313 29.371094 136.730469 29.4375 137.261719 29.472656 L 137.261719 26.84375 C 136.496094 26.710938 135.765625 26.511719 135 26.511719 C 132.644531 26.511719 129.882813 27.476563 129.78125 31.132813 L 129.78125 34.324219 L 126.523438 34.324219 L 126.523438 36.519531 L 129.78125 36.519531 L 129.78125 51.011719 L 132.9375 51.011719 "/>
<path style=" stroke:none;fill-rule:nonzero;fill:rgb(13.699341%,12.199402%,12.5%);fill-opacity:1;" d="M 138.609375 34.320313 L 138.609375 36.515625 L 141.46875 36.515625 L 141.46875 47.15625 C 141.46875 49.382813 141.636719 49.449219 142.199219 50.246094 C 142.734375 50.976563 143.5625 51.242188 144.0625 51.34375 C 144.828125 51.476563 145.425781 51.511719 146.191406 51.511719 C 146.921875 51.511719 147.617188 51.34375 148.351563 51.3125 L 148.351563 48.882813 C 147.851563 49.019531 147.1875 49.082031 146.6875 49.082031 C 145.558594 49.082031 144.628906 48.519531 144.628906 47.320313 L 144.628906 36.515625 L 148.480469 36.515625 L 148.480469 34.320313 L 144.628906 34.324219 L 144.628906 29.769531 L 141.46875 30.765625 L 141.46875 34.324219 L 138.609375 34.320313 "/>
<path style=" stroke:none;fill-rule:nonzero;fill:rgb(13.699341%,12.199402%,12.5%);fill-opacity:1;" d="M 31.34375 51.011719 L 37.992188 51.011719 L 37.992188 31.667969 L 45.503906 31.667969 L 45.503906 27.015625 L 23.996094 27.015625 L 23.996094 31.667969 L 31.34375 31.667969 L 31.34375 51.011719 "/>
<path style=" stroke:none;fill-rule:nonzero;fill:rgb(13.699341%,12.199402%,12.5%);fill-opacity:1;" d="M 47.410156 15.335938 C 45.789063 15.839844 44.117188 15.441406 44.121094 13.273438 C 44.125 9.964844 51.886719 7.195313 52.964844 4.304688 C 53.230469 3.585938 53.246094 2.992188 52.902344 3.011719 C 52.65625 3.027344 52.851563 3.386719 52.304688 3.929688 C 49.089844 7.148438 43.703125 7.144531 39.566406 8.996094 C 36.855469 10.210938 28.910156 13.953125 30.738281 22.289063 C 30.828125 22.6875 31.066406 24.011719 31.304688 24.011719 C 31.589844 24.011719 31.585938 23.222656 31.578125 22.265625 C 31.515625 17.300781 37.398438 15.914063 39.308594 12.671875 C 39.539063 12.285156 39.933594 11.738281 40.027344 11.992188 C 40.074219 12.113281 40.042969 12.296875 39.96875 12.640625 C 39.367188 15.304688 36.582031 17.015625 37.371094 18.921875 C 38.394531 21.394531 41.351563 19.550781 42.257813 17.960938 C 42.5 17.523438 42.636719 17.246094 42.800781 17.300781 C 42.921875 17.34375 42.917969 17.84375 42.84375 18.296875 C 42.355469 21.167969 41.695313 22.777344 39.597656 24.410156 C 38.925781 24.933594 37.867188 25.042969 38.007813 25.445313 C 38.042969 25.550781 38.496094 25.535156 38.859375 25.503906 C 44.453125 25.140625 49.128906 18.550781 50.367188 14.242188 C 50.5 13.941406 50.535156 13.65625 50.402344 13.550781 C 50.230469 13.417969 49.984375 13.71875 49.734375 13.9375 C 49.097656 14.5 48.21875 15.085938 47.410156 15.335938 "/>
<path style=" stroke:none;fill-rule:nonzero;fill:rgb(13.699341%,12.199402%,12.5%);fill-opacity:1;" d="M 23.996094 68.933594 C 23.996094 69.085938 23.996094 74.863281 23.996094 75.015625 C 24.136719 75.015625 25.789063 75.015625 25.789063 75.015625 C 26.195313 75.015625 26.582031 74.984375 26.9375 74.925781 C 27.289063 74.867188 27.621094 74.734375 27.921875 74.53125 C 28.28125 74.292969 28.582031 73.949219 28.816406 73.503906 C 29.050781 73.058594 29.171875 72.546875 29.171875 71.980469 C 29.171875 71.394531 29.058594 70.875 28.839844 70.445313 C 28.621094 70.011719 28.316406 69.664063 27.9375 69.414063 C 27.628906 69.203125 27.289063 69.070313 26.9375 69.015625 C 26.578125 68.960938 26.183594 68.933594 25.773438 68.933594 C 25.773438 68.933594 24.136719 68.933594 23.996094 68.933594 Z M 25.347656 73.917969 L 25.347656 69.953125 L 25.449219 69.953125 C 25.757813 69.953125 26.027344 69.957031 26.25 69.96875 C 26.480469 69.980469 26.707031 70.050781 26.917969 70.171875 C 27.210938 70.34375 27.429688 70.582031 27.570313 70.886719 C 27.707031 71.1875 27.777344 71.550781 27.777344 71.96875 C 27.777344 72.386719 27.710938 72.75 27.582031 73.042969 C 27.445313 73.335938 27.25 73.570313 26.992188 73.742188 C 26.777344 73.882813 26.542969 73.964844 26.300781 73.976563 C 26.074219 73.988281 25.785156 73.996094 25.449219 73.996094 L 25.347656 73.996094 L 25.347656 73.917969 "/>
<path style=" stroke:none;fill-rule:nonzero;fill:rgb(13.699341%,12.199402%,12.5%);fill-opacity:1;" d="M 30.722656 71.15625 C 30.316406 71.578125 30.109375 72.152344 30.109375 72.863281 C 30.109375 73.589844 30.328125 74.15625 30.765625 74.546875 C 31.199219 74.9375 31.839844 75.136719 32.667969 75.136719 C 32.894531 75.136719 33.089844 75.125 33.246094 75.101563 C 33.402344 75.078125 33.558594 75.046875 33.710938 75.007813 C 33.871094 74.96875 34 74.929688 34.089844 74.894531 C 34.089844 74.894531 34.289063 74.8125 34.359375 74.785156 C 34.359375 74.699219 34.359375 73.878906 34.359375 73.753906 C 34.332031 73.753906 34.320313 73.753906 34.308594 73.753906 C 34.269531 73.777344 34.085938 73.902344 34.085938 73.902344 C 33.984375 73.964844 33.875 74.019531 33.757813 74.074219 C 33.621094 74.136719 33.472656 74.1875 33.308594 74.222656 C 33.148438 74.261719 32.980469 74.28125 32.8125 74.28125 C 32.617188 74.28125 32.433594 74.261719 32.269531 74.226563 C 32.097656 74.1875 31.949219 74.121094 31.820313 74.035156 C 31.6875 73.945313 31.582031 73.820313 31.5 73.667969 C 31.421875 73.519531 31.375 73.328125 31.359375 73.109375 L 31.355469 73.03125 C 31.355469 73.03125 34.292969 73.03125 34.433594 73.03125 C 34.433594 72.921875 34.433594 72.597656 34.433594 72.597656 C 34.433594 71.929688 34.265625 71.410156 33.933594 71.054688 C 33.605469 70.703125 33.101563 70.523438 32.4375 70.523438 C 31.703125 70.523438 31.125 70.734375 30.722656 71.15625 Z M 32.328125 71.265625 C 32.617188 71.265625 32.839844 71.351563 32.980469 71.527344 C 33.121094 71.695313 33.199219 71.941406 33.207031 72.253906 L 33.210938 72.332031 L 31.351563 72.332031 L 31.355469 72.25 C 31.371094 71.953125 31.464844 71.710938 31.632813 71.535156 C 31.800781 71.355469 32.035156 71.265625 32.328125 71.265625 "/>
<path style=" stroke:none;fill-rule:nonzero;fill:rgb(13.699341%,12.199402%,12.5%);fill-opacity:1;" d="M 35.585938 68.933594 C 35.585938 69.078125 35.585938 74.871094 35.585938 75.015625 C 35.714844 75.015625 36.710938 75.015625 36.835938 75.015625 C 36.835938 74.871094 36.835938 69.078125 36.835938 68.933594 C 36.710938 68.933594 35.714844 68.933594 35.585938 68.933594 "/>
<path style=" stroke:none;fill-rule:nonzero;fill:rgb(13.699341%,12.199402%,12.5%);fill-opacity:1;" d="M 38.785156 69.28125 C 38.515625 69.542969 38.375 69.941406 38.375 70.464844 L 38.375 70.664063 C 38.375 70.664063 37.925781 70.664063 37.816406 70.664063 C 37.816406 70.78125 37.816406 71.378906 37.816406 71.496094 C 37.925781 71.496094 38.375 71.496094 38.375 71.496094 C 38.375 71.496094 38.375 74.871094 38.375 75.015625 C 38.503906 75.015625 39.5 75.015625 39.625 75.015625 C 39.625 74.871094 39.625 71.496094 39.625 71.496094 C 39.625 71.496094 40.566406 71.496094 40.695313 71.496094 C 40.695313 71.378906 40.695313 70.78125 40.695313 70.664063 C 40.566406 70.664063 39.582031 70.664063 39.582031 70.664063 L 39.582031 70.554688 C 39.582031 70.246094 39.640625 70.039063 39.757813 69.921875 C 39.878906 69.800781 40.082031 69.746094 40.390625 69.746094 C 40.496094 69.746094 40.609375 69.757813 40.726563 69.785156 C 40.726563 69.785156 40.917969 69.832031 40.96875 69.84375 C 40.972656 69.84375 40.984375 69.84375 40.992188 69.84375 C 40.992188 69.722656 40.992188 69.066406 40.992188 68.960938 C 40.882813 68.941406 40.753906 68.925781 40.605469 68.914063 C 40.433594 68.898438 40.242188 68.890625 40.042969 68.890625 C 39.480469 68.890625 39.058594 69.023438 38.785156 69.28125 "/>
<path style=" stroke:none;fill-rule:nonzero;fill:rgb(13.699341%,12.199402%,12.5%);fill-opacity:1;" d="M 41.753906 69.375 C 41.753906 69.507813 41.753906 70.664063 41.753906 70.664063 C 41.753906 70.664063 41.324219 70.664063 41.210938 70.664063 C 41.210938 70.78125 41.210938 71.378906 41.210938 71.496094 C 41.324219 71.496094 41.753906 71.496094 41.753906 71.496094 L 41.753906 73.671875 C 41.753906 74.179688 41.875 74.550781 42.117188 74.769531 C 42.363281 74.988281 42.765625 75.101563 43.316406 75.101563 C 43.5625 75.101563 43.769531 75.089844 43.9375 75.070313 C 44.085938 75.050781 44.222656 75.019531 44.359375 74.988281 C 44.359375 74.886719 44.359375 74.257813 44.359375 74.136719 C 44.34375 74.136719 44.332031 74.136719 44.328125 74.136719 C 44.269531 74.164063 44.191406 74.191406 44.074219 74.222656 C 43.945313 74.253906 43.84375 74.269531 43.761719 74.269531 C 43.5625 74.269531 43.414063 74.242188 43.308594 74.179688 C 43.199219 74.117188 43.121094 74.027344 43.078125 73.917969 C 43.03125 73.820313 43.007813 73.703125 43.007813 73.578125 L 43.003906 73.164063 L 43.003906 71.496094 C 43.003906 71.496094 44.222656 71.496094 44.359375 71.496094 C 44.359375 71.378906 44.359375 70.78125 44.359375 70.664063 C 44.222656 70.664063 43.003906 70.664063 43.003906 70.664063 C 43.003906 70.664063 43.003906 69.507813 43.003906 69.375 C 42.875 69.375 41.878906 69.375 41.753906 69.375 "/>
<path style=" stroke:none;fill-rule:nonzero;fill:rgb(13.699341%,12.199402%,12.5%);fill-opacity:1;" d="M 51.503906 68.933594 C 51.503906 69.078125 51.503906 72.851563 51.503906 72.851563 C 51.503906 73.300781 51.417969 73.632813 51.242188 73.839844 C 51.066406 74.054688 50.792969 74.160156 50.421875 74.160156 C 50.046875 74.160156 49.769531 74.046875 49.597656 73.828125 C 49.433594 73.609375 49.347656 73.285156 49.347656 72.851563 C 49.347656 72.851563 49.347656 69.078125 49.347656 68.933594 C 49.21875 68.933594 48.128906 68.933594 48 68.933594 C 48 69.078125 48 72.933594 48 72.933594 C 48 73.652344 48.207031 74.203125 48.621094 74.574219 C 49.039063 74.945313 49.644531 75.136719 50.421875 75.136719 C 51.226563 75.136719 51.839844 74.941406 52.246094 74.566406 C 52.648438 74.1875 52.851563 73.636719 52.851563 72.929688 C 52.851563 72.929688 52.851563 69.078125 52.851563 68.933594 C 52.726563 68.933594 51.632813 68.933594 51.503906 68.933594 "/>
<path style=" stroke:none;fill-rule:nonzero;fill:rgb(13.699341%,12.199402%,12.5%);fill-opacity:1;" d="M 56.3125 70.699219 C 56.101563 70.808594 55.882813 70.957031 55.65625 71.148438 L 55.535156 71.253906 C 55.535156 71.253906 55.535156 70.773438 55.535156 70.664063 C 55.40625 70.664063 54.410156 70.664063 54.285156 70.664063 C 54.285156 70.808594 54.285156 74.871094 54.285156 75.015625 C 54.410156 75.015625 55.40625 75.015625 55.535156 75.015625 C 55.535156 74.871094 55.535156 71.867188 55.535156 71.867188 L 55.566406 71.84375 C 55.707031 71.746094 55.839844 71.675781 55.960938 71.632813 C 56.089844 71.585938 56.214844 71.5625 56.339844 71.5625 C 56.503906 71.5625 56.636719 71.589844 56.738281 71.636719 C 56.84375 71.6875 56.925781 71.773438 56.980469 71.890625 C 57.027344 71.984375 57.054688 72.125 57.074219 72.3125 C 57.085938 72.496094 57.09375 72.679688 57.09375 72.863281 C 57.09375 72.863281 57.09375 74.875 57.09375 75.015625 C 57.222656 75.015625 58.21875 75.015625 58.34375 75.015625 C 58.34375 74.871094 58.34375 72.164063 58.34375 72.164063 C 58.34375 71.632813 58.226563 71.226563 57.996094 70.953125 C 57.769531 70.683594 57.4375 70.542969 57.003906 70.542969 C 56.75 70.542969 56.519531 70.597656 56.3125 70.699219 "/>
<path style=" stroke:none;fill-rule:nonzero;fill:rgb(13.699341%,12.199402%,12.5%);fill-opacity:1;" d="M 59.753906 68.933594 C 59.753906 69.054688 59.753906 69.757813 59.753906 69.875 C 59.878906 69.875 60.953125 69.875 61.078125 69.875 C 61.078125 69.757813 61.078125 69.054688 61.078125 68.933594 C 60.953125 68.933594 59.878906 68.933594 59.753906 68.933594 Z M 59.796875 70.664063 C 59.796875 70.808594 59.796875 74.871094 59.796875 75.015625 C 59.921875 75.015625 60.917969 75.015625 61.046875 75.015625 C 61.046875 74.871094 61.046875 70.808594 61.046875 70.664063 C 60.917969 70.664063 59.921875 70.664063 59.796875 70.664063 "/>
<path style=" stroke:none;fill-rule:nonzero;fill:rgb(13.699341%,12.199402%,12.5%);fill-opacity:1;" d="M 65.257813 70.664063 C 65.226563 70.769531 64.300781 73.796875 64.300781 73.796875 C 64.300781 73.796875 63.363281 70.769531 63.332031 70.664063 C 63.238281 70.664063 62.183594 70.664063 62.007813 70.664063 C 62.074219 70.855469 63.519531 74.917969 63.554688 75.015625 C 63.648438 75.015625 64.882813 75.015625 64.976563 75.015625 C 65.011719 74.917969 66.46875 70.855469 66.535156 70.664063 C 66.359375 70.664063 65.351563 70.664063 65.257813 70.664063 "/>
<path style=" stroke:none;fill-rule:nonzero;fill:rgb(13.699341%,12.199402%,12.5%);fill-opacity:1;" d="M 67.789063 71.15625 C 67.382813 71.578125 67.179688 72.152344 67.179688 72.863281 C 67.179688 73.589844 67.398438 74.15625 67.832031 74.546875 C 68.269531 74.9375 68.910156 75.136719 69.734375 75.136719 C 69.964844 75.136719 70.15625 75.125 70.316406 75.101563 C 70.472656 75.078125 70.628906 75.046875 70.777344 75.007813 C 70.941406 74.96875 71.070313 74.929688 71.160156 74.894531 C 71.160156 74.894531 71.359375 74.8125 71.425781 74.785156 C 71.425781 74.699219 71.425781 73.878906 71.425781 73.753906 C 71.402344 73.753906 71.390625 73.753906 71.375 73.753906 C 71.339844 73.777344 71.152344 73.902344 71.152344 73.902344 C 71.054688 73.964844 70.945313 74.019531 70.828125 74.074219 C 70.691406 74.136719 70.539063 74.1875 70.378906 74.222656 C 70.214844 74.261719 70.046875 74.28125 69.878906 74.28125 C 69.683594 74.28125 69.503906 74.261719 69.335938 74.226563 C 69.167969 74.1875 69.019531 74.121094 68.890625 74.035156 C 68.757813 73.945313 68.648438 73.820313 68.570313 73.667969 C 68.488281 73.519531 68.441406 73.328125 68.429688 73.109375 L 68.421875 73.03125 C 68.421875 73.03125 71.359375 73.03125 71.503906 73.03125 C 71.503906 72.921875 71.503906 72.597656 71.503906 72.597656 C 71.503906 71.929688 71.335938 71.410156 71.003906 71.054688 C 70.671875 70.703125 70.167969 70.523438 69.503906 70.523438 C 68.773438 70.523438 68.195313 70.734375 67.789063 71.15625 Z M 69.398438 71.265625 C 69.6875 71.265625 69.90625 71.351563 70.050781 71.527344 C 70.191406 71.695313 70.269531 71.941406 70.277344 72.253906 L 70.277344 72.332031 L 68.417969 72.332031 L 68.425781 72.25 C 68.441406 71.953125 68.535156 71.710938 68.699219 71.535156 C 68.867188 71.355469 69.101563 71.265625 69.398438 71.265625 "/>
<path style=" stroke:none;fill-rule:nonzero;fill:rgb(13.699341%,12.199402%,12.5%);fill-opacity:1;" d="M 74.90625 70.71875 C 74.777344 70.757813 74.664063 70.808594 74.566406 70.867188 C 74.476563 70.921875 74.375 70.988281 74.261719 71.078125 L 73.878906 71.398438 L 73.875 71.238281 C 73.875 71.238281 73.875 70.78125 73.875 70.664063 C 73.746094 70.664063 72.753906 70.664063 72.625 70.664063 C 72.625 70.808594 72.625 74.871094 72.625 75.015625 C 72.753906 75.015625 73.746094 75.015625 73.875 75.015625 C 73.875 74.871094 73.875 72.035156 73.875 72.035156 L 73.921875 72.015625 C 74.078125 71.957031 74.238281 71.90625 74.402344 71.859375 C 74.570313 71.816406 74.730469 71.792969 74.886719 71.792969 L 75.226563 71.808594 C 75.328125 71.816406 75.402344 71.832031 75.460938 71.851563 C 75.46875 71.851563 75.480469 71.851563 75.496094 71.851563 C 75.496094 71.722656 75.496094 70.78125 75.496094 70.664063 C 75.457031 70.660156 75.414063 70.660156 75.414063 70.660156 L 75.265625 70.65625 C 75.15625 70.65625 75.03125 70.675781 74.90625 70.71875 "/>
<path style=" stroke:none;fill-rule:nonzero;fill:rgb(13.699341%,12.199402%,12.5%);fill-opacity:1;" d="M 77.28125 70.660156 C 77.027344 70.738281 76.8125 70.84375 76.640625 70.972656 C 76.472656 71.105469 76.339844 71.253906 76.253906 71.421875 C 76.167969 71.589844 76.125 71.765625 76.125 71.953125 C 76.125 72.285156 76.210938 72.550781 76.375 72.753906 C 76.539063 72.953125 76.796875 73.109375 77.132813 73.214844 C 77.253906 73.253906 77.398438 73.289063 77.554688 73.316406 L 77.964844 73.40625 C 78.175781 73.457031 78.316406 73.511719 78.394531 73.570313 C 78.484375 73.640625 78.527344 73.738281 78.527344 73.867188 C 78.527344 73.980469 78.480469 74.136719 78.257813 74.226563 C 78.097656 74.292969 77.910156 74.324219 77.707031 74.324219 C 77.507813 74.324219 77.320313 74.304688 77.152344 74.257813 C 76.984375 74.210938 76.832031 74.15625 76.695313 74.09375 C 76.542969 74.027344 76.417969 73.960938 76.328125 73.894531 C 76.328125 73.894531 76.152344 73.765625 76.121094 73.742188 C 76.113281 73.742188 76.109375 73.742188 76.101563 73.742188 C 76.101563 73.867188 76.101563 74.714844 76.101563 74.800781 C 76.285156 74.886719 76.507813 74.964844 76.777344 75.03125 C 77.066406 75.097656 77.378906 75.136719 77.699219 75.136719 C 78.054688 75.136719 78.363281 75.097656 78.617188 75.023438 C 78.867188 74.949219 79.089844 74.839844 79.273438 74.707031 C 79.445313 74.582031 79.578125 74.429688 79.671875 74.25 C 79.765625 74.070313 79.8125 73.878906 79.8125 73.683594 C 79.8125 73.367188 79.734375 73.113281 79.578125 72.929688 C 79.421875 72.738281 79.1875 72.59375 78.878906 72.492188 C 78.738281 72.445313 78.589844 72.410156 78.441406 72.382813 L 78.023438 72.292969 C 77.777344 72.234375 77.617188 72.175781 77.539063 72.105469 C 77.453125 72.035156 77.40625 71.933594 77.40625 71.808594 C 77.40625 71.664063 77.492188 71.550781 77.660156 71.464844 C 77.808594 71.390625 77.992188 71.355469 78.207031 71.355469 C 78.363281 71.355469 78.519531 71.371094 78.667969 71.40625 C 78.820313 71.445313 78.957031 71.488281 79.078125 71.542969 C 79.175781 71.589844 79.28125 71.648438 79.386719 71.710938 C 79.386719 71.710938 79.539063 71.8125 79.597656 71.851563 C 79.601563 71.851563 79.605469 71.851563 79.613281 71.851563 C 79.613281 71.726563 79.613281 70.925781 79.613281 70.839844 C 79.445313 70.761719 79.242188 70.695313 79.003906 70.636719 C 78.742188 70.574219 78.457031 70.542969 78.148438 70.542969 C 77.828125 70.542969 77.535156 70.582031 77.28125 70.660156 "/>
<path style=" stroke:none;fill-rule:nonzero;fill:rgb(13.699341%,12.199402%,12.5%);fill-opacity:1;" d="M 80.851563 68.933594 C 80.851563 69.054688 80.851563 69.757813 80.851563 69.875 C 80.976563 69.875 82.050781 69.875 82.175781 69.875 C 82.175781 69.757813 82.175781 69.054688 82.175781 68.933594 C 82.050781 68.933594 80.976563 68.933594 80.851563 68.933594 Z M 80.894531 70.664063 C 80.894531 70.808594 80.894531 74.871094 80.894531 75.015625 C 81.023438 75.015625 82.019531 75.015625 82.144531 75.015625 C 82.144531 74.871094 82.144531 70.808594 82.144531 70.664063 C 82.019531 70.664063 81.023438 70.664063 80.894531 70.664063 "/>
<path style=" stroke:none;fill-rule:nonzero;fill:rgb(13.699341%,12.199402%,12.5%);fill-opacity:1;" d="M 83.675781 69.375 C 83.675781 69.507813 83.675781 70.664063 83.675781 70.664063 C 83.675781 70.664063 83.25 70.664063 83.136719 70.664063 C 83.136719 70.78125 83.136719 71.378906 83.136719 71.496094 C 83.25 71.496094 83.675781 71.496094 83.675781 71.496094 L 83.675781 73.671875 C 83.675781 74.179688 83.800781 74.550781 84.042969 74.769531 C 84.289063 74.988281 84.691406 75.101563 85.242188 75.101563 C 85.484375 75.101563 85.695313 75.089844 85.863281 75.070313 C 86.011719 75.050781 86.152344 75.019531 86.28125 74.988281 C 86.28125 74.886719 86.28125 74.257813 86.28125 74.136719 C 86.269531 74.136719 86.257813 74.136719 86.253906 74.136719 C 86.195313 74.164063 86.117188 74.191406 86 74.222656 C 85.871094 74.253906 85.769531 74.269531 85.6875 74.269531 C 85.488281 74.269531 85.339844 74.242188 85.230469 74.179688 C 85.121094 74.117188 85.042969 74.027344 85 73.917969 C 84.957031 73.820313 84.933594 73.703125 84.929688 73.578125 L 84.925781 73.164063 L 84.925781 71.496094 C 84.925781 71.496094 86.148438 71.496094 86.28125 71.496094 C 86.28125 71.378906 86.28125 70.78125 86.28125 70.664063 C 86.148438 70.664063 84.925781 70.664063 84.925781 70.664063 C 84.925781 70.664063 84.925781 69.507813 84.925781 69.375 C 84.800781 69.375 83.804688 69.375 83.675781 69.375 "/>
<path style=" stroke:none;fill-rule:nonzero;fill:rgb(13.699341%,12.199402%,12.5%);fill-opacity:1;" d="M 90.011719 70.664063 C 89.976563 70.765625 89.078125 73.652344 89.078125 73.652344 C 89.078125 73.652344 88.109375 70.765625 88.078125 70.664063 C 87.984375 70.664063 86.945313 70.664063 86.769531 70.664063 C 86.839844 70.859375 88.386719 74.980469 88.386719 74.980469 C 88.386719 74.980469 87.800781 76.484375 87.730469 76.667969 C 87.914063 76.667969 88.988281 76.667969 89.078125 76.667969 C 89.113281 76.574219 91.21875 70.859375 91.292969 70.664063 C 91.113281 70.664063 90.101563 70.664063 90.011719 70.664063 "/>
<path style=" stroke:none;fill-rule:nonzero;fill:rgb(13.699341%,12.199402%,12.5%);fill-opacity:1;" d="M 94.582031 71.136719 C 94.191406 71.542969 93.992188 72.117188 93.992188 72.84375 C 93.992188 73.558594 94.191406 74.128906 94.582031 74.539063 C 94.972656 74.949219 95.53125 75.15625 96.238281 75.15625 C 96.953125 75.15625 97.511719 74.949219 97.898438 74.539063 C 98.289063 74.128906 98.484375 73.558594 98.484375 72.84375 C 98.484375 72.121094 98.285156 71.550781 97.898438 71.140625 C 97.507813 70.730469 96.953125 70.523438 96.238281 70.523438 C 95.53125 70.523438 94.972656 70.730469 94.582031 71.136719 Z M 95.535156 73.972656 C 95.460938 73.863281 95.394531 73.71875 95.347656 73.539063 C 95.300781 73.363281 95.277344 73.132813 95.277344 72.851563 C 95.277344 72.566406 95.300781 72.332031 95.351563 72.144531 C 95.402344 71.953125 95.472656 71.796875 95.558594 71.6875 C 95.652344 71.566406 95.757813 71.484375 95.871094 71.4375 C 95.980469 71.398438 96.105469 71.375 96.238281 71.375 C 96.382813 71.375 96.511719 71.398438 96.625 71.449219 C 96.742188 71.496094 96.847656 71.585938 96.9375 71.707031 C 97.023438 71.824219 97.085938 71.976563 97.132813 72.164063 C 97.179688 72.347656 97.203125 72.578125 97.203125 72.851563 C 97.203125 73.140625 97.179688 73.375 97.136719 73.542969 C 97.089844 73.714844 97.023438 73.859375 96.933594 73.984375 C 96.855469 74.089844 96.753906 74.171875 96.621094 74.226563 C 96.496094 74.277344 96.371094 74.304688 96.253906 74.304688 C 96.105469 74.304688 95.96875 74.277344 95.847656 74.226563 C 95.722656 74.171875 95.617188 74.085938 95.535156 73.972656 "/>
<path style=" stroke:none;fill-rule:nonzero;fill:rgb(13.699341%,12.199402%,12.5%);fill-opacity:1;" d="M 100.140625 69.28125 C 99.867188 69.542969 99.730469 69.941406 99.730469 70.464844 L 99.730469 70.664063 C 99.730469 70.664063 99.28125 70.664063 99.167969 70.664063 C 99.167969 70.78125 99.167969 71.378906 99.167969 71.496094 C 99.28125 71.496094 99.730469 71.496094 99.730469 71.496094 C 99.730469 71.496094 99.730469 74.871094 99.730469 75.015625 C 99.859375 75.015625 100.855469 75.015625 100.980469 75.015625 C 100.980469 74.871094 100.980469 71.496094 100.980469 71.496094 C 100.980469 71.496094 101.921875 71.496094 102.050781 71.496094 C 102.050781 71.378906 102.050781 70.78125 102.050781 70.664063 C 101.921875 70.664063 100.9375 70.664063 100.9375 70.664063 L 100.9375 70.554688 C 100.9375 70.246094 100.996094 70.039063 101.113281 69.921875 C 101.230469 69.800781 101.4375 69.746094 101.742188 69.746094 C 101.851563 69.746094 101.964844 69.757813 102.082031 69.785156 C 102.082031 69.785156 102.273438 69.832031 102.324219 69.84375 C 102.328125 69.84375 102.339844 69.84375 102.351563 69.84375 C 102.351563 69.722656 102.351563 69.066406 102.351563 68.960938 C 102.234375 68.941406 102.109375 68.925781 101.960938 68.914063 C 101.789063 68.898438 101.597656 68.890625 101.398438 68.890625 C 100.835938 68.890625 100.414063 69.023438 100.140625 69.28125 "/>
<path style=" stroke:none;fill-rule:nonzero;fill:rgb(13.699341%,12.199402%,12.5%);fill-opacity:1;" d="M 105.121094 68.933594 C 105.121094 69.054688 105.121094 69.789063 105.121094 69.910156 C 105.261719 69.910156 106.886719 69.910156 106.886719 69.910156 C 106.886719 69.910156 106.886719 74.867188 106.886719 75.015625 C 107.015625 75.015625 108.109375 75.015625 108.234375 75.015625 C 108.234375 74.867188 108.234375 69.910156 108.234375 69.910156 C 108.234375 69.910156 109.863281 69.910156 110 69.910156 C 110 69.789063 110 69.054688 110 68.933594 C 109.855469 68.933594 105.265625 68.933594 105.121094 68.933594 "/>
<path style=" stroke:none;fill-rule:nonzero;fill:rgb(13.699341%,12.199402%,12.5%);fill-opacity:1;" d="M 110.664063 71.15625 C 110.261719 71.578125 110.054688 72.152344 110.054688 72.863281 C 110.054688 73.589844 110.273438 74.15625 110.710938 74.546875 C 111.144531 74.9375 111.785156 75.136719 112.609375 75.136719 C 112.839844 75.136719 113.035156 75.125 113.191406 75.101563 C 113.347656 75.078125 113.503906 75.046875 113.652344 75.007813 C 113.816406 74.96875 113.945313 74.929688 114.035156 74.894531 C 114.035156 74.894531 114.234375 74.8125 114.304688 74.785156 C 114.304688 74.699219 114.304688 73.878906 114.304688 73.753906 C 114.277344 73.753906 114.265625 73.753906 114.253906 73.753906 C 114.214844 73.777344 114.027344 73.902344 114.027344 73.902344 C 113.929688 73.964844 113.820313 74.019531 113.703125 74.074219 C 113.566406 74.136719 113.417969 74.1875 113.253906 74.222656 C 113.09375 74.261719 112.925781 74.28125 112.757813 74.28125 C 112.5625 74.28125 112.378906 74.261719 112.214844 74.226563 C 112.042969 74.1875 111.894531 74.121094 111.765625 74.035156 C 111.632813 73.945313 111.523438 73.820313 111.445313 73.667969 C 111.367188 73.519531 111.316406 73.328125 111.304688 73.109375 L 111.300781 73.03125 C 111.300781 73.03125 114.238281 73.03125 114.382813 73.03125 C 114.382813 72.921875 114.382813 72.597656 114.382813 72.597656 C 114.382813 71.929688 114.210938 71.410156 113.878906 71.054688 C 113.550781 70.703125 113.046875 70.523438 112.382813 70.523438 C 111.648438 70.523438 111.070313 70.734375 110.664063 71.15625 Z M 112.273438 71.265625 C 112.5625 71.265625 112.78125 71.351563 112.929688 71.527344 C 113.066406 71.695313 113.144531 71.941406 113.152344 72.253906 L 113.152344 72.332031 L 111.296875 72.332031 L 111.300781 72.25 C 111.316406 71.953125 111.410156 71.710938 111.574219 71.535156 C 111.742188 71.355469 111.980469 71.265625 112.273438 71.265625 "/>
<path style=" stroke:none;fill-rule:nonzero;fill:rgb(13.699341%,12.199402%,12.5%);fill-opacity:1;" d="M 116.660156 70.675781 C 116.371094 70.761719 116.113281 70.894531 115.898438 71.074219 C 115.675781 71.261719 115.496094 71.503906 115.367188 71.792969 C 115.234375 72.085938 115.171875 72.441406 115.171875 72.859375 C 115.171875 73.25 115.230469 73.589844 115.351563 73.875 C 115.472656 74.15625 115.640625 74.394531 115.855469 74.582031 C 116.070313 74.769531 116.332031 74.910156 116.628906 75 C 116.929688 75.089844 117.265625 75.136719 117.625 75.136719 C 117.8125 75.136719 117.96875 75.125 118.082031 75.105469 C 118.195313 75.085938 118.320313 75.058594 118.457031 75.019531 C 118.5625 74.992188 118.664063 74.957031 118.769531 74.914063 C 118.769531 74.914063 118.921875 74.84375 119 74.8125 C 119 74.726563 119 73.855469 119 73.730469 C 118.964844 73.730469 118.945313 73.730469 118.925781 73.730469 C 118.890625 73.765625 118.773438 73.875 118.773438 73.875 C 118.703125 73.941406 118.621094 74.003906 118.523438 74.0625 C 118.421875 74.125 118.300781 74.175781 118.160156 74.21875 C 118.019531 74.261719 117.859375 74.28125 117.675781 74.28125 C 117.308594 74.28125 117.011719 74.160156 116.785156 73.925781 C 116.566406 73.6875 116.453125 73.332031 116.453125 72.859375 C 116.453125 72.421875 116.558594 72.066406 116.765625 71.800781 C 116.972656 71.535156 117.273438 71.398438 117.652344 71.398438 C 117.816406 71.398438 117.96875 71.417969 118.101563 71.460938 C 118.234375 71.5 118.355469 71.550781 118.460938 71.609375 C 118.558594 71.667969 118.652344 71.730469 118.734375 71.796875 C 118.734375 71.796875 118.886719 71.925781 118.925781 71.960938 C 118.941406 71.960938 118.964844 71.960938 119 71.960938 C 119 71.832031 119 70.964844 119 70.878906 C 118.769531 70.769531 118.539063 70.683594 118.3125 70.628906 C 118.070313 70.574219 117.824219 70.542969 117.585938 70.542969 C 117.265625 70.542969 116.953125 70.589844 116.660156 70.675781 "/>
<path style=" stroke:none;fill-rule:nonzero;fill:rgb(13.699341%,12.199402%,12.5%);fill-opacity:1;" d="M 120.058594 68.933594 C 120.058594 69.078125 120.058594 74.871094 120.058594 75.015625 C 120.183594 75.015625 121.179688 75.015625 121.308594 75.015625 C 121.308594 74.871094 121.308594 71.867188 121.308594 71.867188 L 121.339844 71.84375 C 121.480469 71.746094 121.609375 71.675781 121.734375 71.632813 C 121.859375 71.585938 121.988281 71.5625 122.109375 71.5625 C 122.273438 71.5625 122.410156 71.589844 122.511719 71.636719 C 122.617188 71.6875 122.699219 71.773438 122.757813 71.890625 C 122.800781 71.984375 122.828125 72.125 122.847656 72.3125 C 122.859375 72.496094 122.867188 72.679688 122.867188 72.863281 C 122.867188 72.863281 122.867188 74.875 122.867188 75.015625 C 122.996094 75.015625 123.992188 75.015625 124.117188 75.015625 C 124.117188 74.871094 124.117188 72.164063 124.117188 72.164063 C 124.117188 71.632813 124.003906 71.226563 123.769531 70.953125 C 123.546875 70.683594 123.210938 70.542969 122.773438 70.542969 C 122.523438 70.542969 122.292969 70.597656 122.085938 70.699219 C 121.875 70.808594 121.652344 70.957031 121.429688 71.148438 L 121.308594 71.253906 C 121.308594 71.253906 121.308594 69.074219 121.308594 68.933594 C 121.179688 68.933594 120.183594 68.933594 120.058594 68.933594 "/>
<path style=" stroke:none;fill-rule:nonzero;fill:rgb(13.699341%,12.199402%,12.5%);fill-opacity:1;" d="M 127.582031 70.699219 C 127.371094 70.808594 127.148438 70.957031 126.929688 71.148438 L 126.804688 71.253906 C 126.804688 71.253906 126.804688 70.773438 126.804688 70.664063 C 126.675781 70.664063 125.679688 70.664063 125.554688 70.664063 C 125.554688 70.808594 125.554688 74.871094 125.554688 75.015625 C 125.679688 75.015625 126.675781 75.015625 126.804688 75.015625 C 126.804688 74.871094 126.804688 71.867188 126.804688 71.867188 L 126.835938 71.84375 C 126.976563 71.746094 127.109375 71.675781 127.230469 71.632813 C 127.355469 71.585938 127.484375 71.5625 127.609375 71.5625 C 127.769531 71.5625 127.90625 71.589844 128.007813 71.636719 C 128.113281 71.6875 128.195313 71.773438 128.253906 71.890625 C 128.296875 71.984375 128.324219 72.125 128.34375 72.3125 C 128.355469 72.496094 128.363281 72.679688 128.363281 72.863281 C 128.363281 72.863281 128.363281 74.875 128.363281 75.015625 C 128.492188 75.015625 129.488281 75.015625 129.613281 75.015625 C 129.613281 74.871094 129.613281 72.164063 129.613281 72.164063 C 129.613281 71.632813 129.496094 71.226563 129.269531 70.953125 C 129.039063 70.683594 128.707031 70.542969 128.269531 70.542969 C 128.019531 70.542969 127.789063 70.597656 127.582031 70.699219 "/>
<path style=" stroke:none;fill-rule:nonzero;fill:rgb(13.699341%,12.199402%,12.5%);fill-opacity:1;" d="M 131.308594 71.136719 C 130.917969 71.542969 130.71875 72.117188 130.71875 72.84375 C 130.71875 73.558594 130.917969 74.128906 131.308594 74.539063 C 131.699219 74.949219 132.257813 75.15625 132.964844 75.15625 C 133.679688 75.15625 134.238281 74.949219 134.625 74.539063 C 135.015625 74.128906 135.210938 73.558594 135.210938 72.84375 C 135.210938 72.121094 135.011719 71.550781 134.621094 71.140625 C 134.234375 70.730469 133.675781 70.523438 132.964844 70.523438 C 132.257813 70.523438 131.699219 70.730469 131.308594 71.136719 Z M 132.261719 73.972656 C 132.183594 73.863281 132.121094 73.71875 132.074219 73.539063 C 132.027344 73.363281 132.003906 73.132813 132.003906 72.851563 C 132.003906 72.566406 132.027344 72.332031 132.078125 72.144531 C 132.128906 71.953125 132.195313 71.796875 132.28125 71.6875 C 132.378906 71.566406 132.480469 71.484375 132.597656 71.4375 C 132.707031 71.398438 132.828125 71.375 132.964844 71.375 C 133.105469 71.375 133.238281 71.398438 133.351563 71.449219 C 133.46875 71.496094 133.574219 71.585938 133.664063 71.707031 C 133.746094 71.824219 133.8125 71.976563 133.859375 72.164063 C 133.902344 72.347656 133.929688 72.578125 133.929688 72.851563 C 133.929688 73.140625 133.902344 73.375 133.859375 73.542969 C 133.816406 73.714844 133.746094 73.859375 133.660156 73.984375 C 133.582031 74.089844 133.480469 74.171875 133.351563 74.226563 C 133.222656 74.277344 133.097656 74.304688 132.976563 74.304688 C 132.828125 74.304688 132.695313 74.277344 132.574219 74.226563 C 132.449219 74.171875 132.34375 74.085938 132.261719 73.972656 "/>
<path style=" stroke:none;fill-rule:nonzero;fill:rgb(13.699341%,12.199402%,12.5%);fill-opacity:1;" d="M 136.359375 68.933594 C 136.359375 69.078125 136.359375 74.871094 136.359375 75.015625 C 136.484375 75.015625 137.480469 75.015625 137.609375 75.015625 C 137.609375 74.871094 137.609375 69.078125 137.609375 68.933594 C 137.480469 68.933594 136.484375 68.933594 136.359375 68.933594 "/>
<path style=" stroke:none;fill-rule:nonzero;fill:rgb(13.699341%,12.199402%,12.5%);fill-opacity:1;" d="M 139.339844 71.136719 C 138.945313 71.542969 138.746094 72.117188 138.746094 72.84375 C 138.746094 73.558594 138.945313 74.128906 139.339844 74.539063 C 139.730469 74.949219 140.285156 75.15625 140.992188 75.15625 C 141.710938 75.15625 142.269531 74.949219 142.652344 74.539063 C 143.042969 74.128906 143.238281 73.558594 143.238281 72.84375 C 143.238281 72.121094 143.042969 71.550781 142.652344 71.140625 C 142.265625 70.730469 141.703125 70.523438 140.992188 70.523438 C 140.285156 70.523438 139.730469 70.730469 139.339844 71.136719 Z M 140.289063 73.972656 C 140.214844 73.863281 140.148438 73.71875 140.101563 73.539063 C 140.054688 73.363281 140.03125 73.132813 140.03125 72.851563 C 140.03125 72.566406 140.058594 72.332031 140.105469 72.144531 C 140.15625 71.953125 140.226563 71.796875 140.3125 71.6875 C 140.40625 71.566406 140.511719 71.484375 140.625 71.4375 C 140.734375 71.398438 140.859375 71.375 140.992188 71.375 C 141.136719 71.375 141.269531 71.398438 141.382813 71.449219 C 141.496094 71.496094 141.601563 71.585938 141.691406 71.707031 C 141.777344 71.824219 141.84375 71.976563 141.890625 72.164063 C 141.933594 72.347656 141.957031 72.578125 141.957031 72.851563 C 141.957031 73.140625 141.933594 73.375 141.890625 73.542969 C 141.847656 73.714844 141.777344 73.859375 141.6875 73.984375 C 141.613281 74.089844 141.507813 74.171875 141.378906 74.226563 C 141.253906 74.277344 141.128906 74.304688 141.007813 74.304688 C 140.859375 74.304688 140.726563 74.277344 140.605469 74.226563 C 140.480469 74.171875 140.371094 74.085938 140.289063 73.972656 "/>
<path style=" stroke:none;fill-rule:nonzero;fill:rgb(13.699341%,12.199402%,12.5%);fill-opacity:1;" d="M 145.164063 70.691406 C 144.941406 70.789063 144.75 70.929688 144.59375 71.109375 C 144.425781 71.300781 144.292969 71.53125 144.199219 71.800781 C 144.105469 72.074219 144.058594 72.382813 144.058594 72.726563 C 144.058594 73.476563 144.210938 74.042969 144.515625 74.40625 C 144.8125 74.765625 145.25 74.949219 145.804688 74.949219 C 146.015625 74.949219 146.21875 74.90625 146.414063 74.828125 C 146.613281 74.746094 146.789063 74.636719 146.941406 74.503906 L 147.066406 74.394531 L 147.066406 74.644531 C 147.066406 74.84375 147.050781 75.011719 147.015625 75.144531 C 146.980469 75.28125 146.921875 75.402344 146.832031 75.503906 C 146.742188 75.605469 146.609375 75.683594 146.4375 75.738281 C 146.273438 75.789063 146.066406 75.8125 145.824219 75.8125 C 145.707031 75.8125 145.589844 75.804688 145.476563 75.785156 C 145.476563 75.785156 145.132813 75.710938 145.132813 75.710938 C 145.132813 75.710938 144.84375 75.621094 144.84375 75.621094 C 144.84375 75.621094 144.65625 75.558594 144.605469 75.539063 C 144.597656 75.539063 144.566406 75.539063 144.53125 75.539063 C 144.53125 75.660156 144.53125 76.433594 144.53125 76.535156 C 144.714844 76.578125 144.921875 76.617188 145.164063 76.652344 C 145.429688 76.691406 145.710938 76.710938 146.003906 76.710938 C 146.351563 76.710938 146.671875 76.675781 146.953125 76.605469 C 147.230469 76.53125 147.476563 76.417969 147.671875 76.257813 C 147.871094 76.105469 148.027344 75.886719 148.144531 75.609375 C 148.257813 75.328125 148.316406 74.980469 148.316406 74.574219 C 148.316406 74.574219 148.316406 70.808594 148.316406 70.664063 C 148.1875 70.664063 147.191406 70.664063 147.09375 70.664063 C 147.078125 70.722656 147.027344 70.910156 147.027344 70.910156 L 146.941406 70.855469 C 146.800781 70.757813 146.640625 70.683594 146.464844 70.628906 C 146.289063 70.574219 146.089844 70.542969 145.867188 70.542969 C 145.628906 70.542969 145.390625 70.59375 145.164063 70.691406 Z M 145.53125 73.660156 C 145.457031 73.550781 145.40625 73.417969 145.378906 73.273438 C 145.355469 73.136719 145.339844 72.960938 145.339844 72.761719 C 145.339844 72.355469 145.433594 72.03125 145.609375 71.800781 C 145.796875 71.5625 146.070313 71.441406 146.429688 71.441406 C 146.535156 71.441406 146.644531 71.453125 146.75 71.476563 C 146.855469 71.5 146.949219 71.527344 147.023438 71.5625 L 147.066406 71.582031 L 147.066406 73.71875 L 147.035156 73.742188 C 146.921875 73.828125 146.796875 73.890625 146.671875 73.9375 C 146.539063 73.984375 146.40625 74.007813 146.273438 74.007813 C 146.09375 74.007813 145.941406 73.976563 145.824219 73.921875 C 145.703125 73.863281 145.605469 73.773438 145.53125 73.660156 "/>
<path style=" stroke:none;fill-rule:nonzero;fill:rgb(13.699341%,12.199402%,12.5%);fill-opacity:1;" d="M 152.519531 70.664063 C 152.488281 70.765625 151.585938 73.652344 151.585938 73.652344 C 151.585938 73.652344 150.621094 70.765625 150.589844 70.664063 C 150.496094 70.664063 149.457031 70.664063 149.277344 70.664063 C 149.351563 70.859375 150.898438 74.980469 150.898438 74.980469 C 150.898438 74.980469 150.3125 76.484375 150.242188 76.667969 C 150.425781 76.667969 151.5 76.667969 151.589844 76.667969 C 151.625 76.574219 153.730469 70.859375 153.804688 70.664063 C 153.625 70.664063 152.613281 70.664063 152.519531 70.664063 "/>
</g>
</svg>
