<svg xmlns="http://www.w3.org/2000/svg" id="logo" viewBox="29.4 38.1 148.2 55.6"><defs><style>.cls-1{fill:none;}.cls-1,.cls-2,.cls-3{stroke-width:0px;}.cls-2{fill:#58595b;}.cls-3{fill:#e03127;}</style></defs><rect class="cls-1" y="8.7" width="207" height="112.7"/><polygon class="cls-2" points="154.1 59.4 149.1 59.4 153.9 52.4 153.9 51.2 146.3 51.2 146.3 53.1 150.9 53.1 146.1 60 146.1 61.3 154.1 61.3 154.1 59.4"/><path class="cls-2" d="M93.3,57v-5.9h-2.3v5.8c0,1.4-.6,2.4-2.2,2.4s-2.2-.7-2.2-2.4v-5.8h-2.3v5.9c0,2.7,1.4,4.5,4.5,4.5s4.5-1.4,4.5-4.5Z"/><polygon class="cls-2" points="132.9 59.4 128.2 59.4 128.2 57 132.4 57 132.4 55.1 128.2 55.1 128.2 53.1 132.8 53.1 132.8 51.2 125.9 51.2 125.9 61.3 132.9 61.3 132.9 59.4"/><polygon class="cls-2" points="105.5 61.3 105.5 51.2 103.3 51.2 103.3 57 97.7 51.2 96.5 51.2 96.5 61.3 98.7 61.3 98.7 55.3 104.3 61.3 105.5 61.3"/><path class="cls-2" d="M138.1,57.8h.8l1.5,1.9c1,1.4,1.8,1.8,3.2,1.8v-2c-.6,0-1.1-.5-1.8-1.4l-.4-.6c1.2-.5,2.1-1.5,2.1-3s-1.6-3.3-4.2-3.3h-3.5v10.1h2.2v-3.5ZM138.1,53.1h1.2c1.3,0,1.9.5,1.9,1.4s-.6,1.5-1.9,1.5h-1.2v-2.9Z"/><rect class="cls-2" x="108.8" y="51.2" width="2.3" height="10.1"/><polygon class="cls-2" points="118.5 57.8 115.8 51.2 113.2 51.2 117.7 61.3 119.3 61.3 123.8 51.2 121.2 51.2 118.5 57.8"/><path class="cls-2" d="M160,51.2h1.7l4.4,10.1h-2.6l-.7-1.8h-4.1l-.7,1.8h-2.6l4.5-10.1ZM162.2,57.7l-1.3-3.5-1.3,3.5h2.7Z"/><path class="cls-2" d="M105.9,72.4h2.7v7.4c0,1.2-.1,2.8-.8,3.9h2.4c.6-1.1.7-2.4.7-4v-9.2h-5v1.9Z"/><polygon class="cls-2" points="101.6 70.4 99.3 70.4 99.3 80.6 105.9 80.6 105.9 78.6 101.6 78.6 101.6 70.4"/><polygon class="cls-2" points="88.8 77.1 86.2 70.4 83.6 70.4 88 80.6 89.6 80.6 94.1 70.4 91.5 70.4 88.8 77.1"/><polygon class="cls-2" points="138.8 70.4 136.6 70.4 136.6 80.6 143.1 80.6 143.1 78.6 138.8 78.6 138.8 70.4"/><polygon class="cls-2" points="169.8 76.3 164.3 70.4 163 70.4 163 80.6 165.2 80.6 165.2 74.6 170.8 80.6 172.1 80.6 172.1 70.4 169.8 70.4 169.8 76.3"/><rect class="cls-2" x="175.3" y="70.4" width="2.3" height="10.1"/><path class="cls-2" d="M120.7,76.3c0,1.4-.6,2.4-2.2,2.4s-2.2-.7-2.2-2.4v-5.8h-2.3v5.9c0,2.7,1.4,4.5,4.5,4.5s4.5-1.4,4.5-4.5v-5.9h-2.3v5.8Z"/><path class="cls-2" d="M143.1,72.4h2.7v7.4c0,1.2-.1,2.8-.8,3.9h2.4c.6-1.1.7-2.4.7-4v-9.2h-5v1.9Z"/><path class="cls-2" d="M132,75.1c.7-.4,1.2-1,1.2-2.1,0-1.7-1.3-2.6-3.5-2.6h-3.6v10.1h4c2.3,0,3.7-.8,3.7-2.8s-.6-2.2-1.8-2.6ZM128.5,72.2h.9c1,0,1.5.4,1.5,1.1s-.5,1.2-1.5,1.2h-.9v-2.3ZM129.8,78.7h-1.4v-2.4h1.4c1.1,0,1.6.4,1.6,1.2s-.5,1.2-1.6,1.2Z"/><path class="cls-2" d="M154.7,70.4h1.7l4.4,10.1h-2.6l-.7-1.8h-4.1l-.7,1.8h-2.6l4.5-10.1ZM156.9,77l-1.3-3.5-1.3,3.5h2.7Z"/><rect class="cls-3" x="64.2" y="76.3" width="1.3" height="2"/><rect class="cls-3" x="61" y="72.2" width="1.3" height="2.8"/><rect class="cls-3" x="64.2" y="72.2" width="1.3" height="2.8"/><rect class="cls-3" x="61" y="69.9" width="4.6" height=".9"/><rect class="cls-3" x="61" y="79.7" width="4.6" height=".9"/><rect class="cls-3" x="61" y="76.3" width="1.3" height="2"/><rect class="cls-3" x="64.2" y="61.7" width="1.3" height="2.8"/><rect class="cls-3" x="61" y="59.4" width="4.6" height=".9"/><path class="cls-3" d="M61,68.6h1.3v-2.1c0-.4-.3-.7-.7-.7s-.7.3-.7.7v2.1Z"/><rect class="cls-3" x="58.7" y="51.2" width="6.9" height=".9"/><path class="cls-3" d="M64.9,65.8c-.4,0-.7.3-.7.7v2.1h1.3v-2.1c0-.4-.3-.7-.7-.7Z"/><rect class="cls-3" x="61" y="61.7" width="1.3" height="2.8"/><path class="cls-3" d="M34.9,68.6h1.3v-2.1c0-.4-.3-.7-.7-.7s-.7.3-.7.7v2.1Z"/><rect class="cls-3" x="31.7" y="61.7" width="1.3" height="2.8"/><path class="cls-3" d="M52.6,46.6v.5h0v.2h.9v-.6c0-.7-.5-1.3-1.1-1.5v-7.1h-.9v7.9h.4c.4,0,.7.3.7.7Z"/><rect class="cls-3" x="41.4" y="61.7" width="1.3" height="2.8"/><path class="cls-3" d="M31.7,68.6h1.3v-2.1c0-.4-.3-.7-.7-.7s-.7.3-.7.7v2.1Z"/><rect class="cls-3" x="31.7" y="76.3" width="1.3" height="2"/><path class="cls-3" d="M42.1,65.8c-.4,0-.7.3-.7.7v2.1h1.3v-2.1c0-.4-.3-.7-.7-.7Z"/><rect class="cls-3" x="38.2" y="61.7" width="1.3" height="2.8"/><rect class="cls-3" x="34.9" y="61.7" width="1.3" height="2.8"/><path class="cls-3" d="M38.2,68.6h1.3v-2.1c0-.4-.3-.7-.7-.7s-.7.3-.7.7v2.1Z"/><polygon class="cls-3" points="30.3 61.7 29.4 61.7 29.4 80.6 42.8 80.6 42.8 79.7 30.3 79.7 30.3 70.8 42.8 70.8 42.8 69.9 30.3 69.9 30.3 61.7"/><rect class="cls-3" x="31.7" y="72.2" width="1.3" height="2.8"/><polygon class="cls-3" points="48.5 49.4 55.3 49.4 56.4 53.4 57.3 53.4 56 48.5 47.8 48.5 46.4 53.4 47.4 53.4 48.5 49.4"/><rect class="cls-3" x="41.4" y="72.2" width="1.3" height="2.8"/><path class="cls-3" d="M47.5,74.2v7.2h.9v-7.2c0-1.1-.9-2-2-2h0v.9s0,0,0,0c.6,0,1.1.5,1.1,1.1Z"/><rect class="cls-3" x="41.4" y="76.3" width="1.3" height="2"/><rect class="cls-3" x="34.9" y="76.3" width="1.3" height="2"/><rect class="cls-3" x="34.9" y="72.2" width="1.3" height="2.8"/><rect class="cls-3" x="38.2" y="76.3" width="1.3" height="2"/><rect class="cls-3" x="38.2" y="72.2" width="1.3" height="2.8"/><path class="cls-3" d="M55.3,68.6h1.3v-2.1c0-.4-.3-.7-.7-.7s-.7.3-.7.7v2.1Z"/><polygon class="cls-3" points="32.6 52.1 45 52.1 45 51.2 31.9 51.2 29.4 60.3 42.8 60.3 42.8 59.4 30.6 59.4 32.6 52.1"/><polygon class="cls-3" points="58.7 81.1 59.6 80.6 59.6 55.2 58.7 55.2 58.7 81.1"/><path class="cls-3" d="M55.3,74.2v7.2h.9v-7.2c0-.6.5-1.1,1.1-1.1s0,0,0,0v-.9h0c-1.1,0-2,.9-2,2Z"/><path class="cls-3" d="M53.5,67.4c0-.9-.7-1.6-1.6-1.6s-1.6.7-1.6,1.6v2.6h-3.9v.9h11v-.9h-3.9v-2.6ZM52.6,69.9h-1.3v-2.6c0-.4.3-.7.7-.7s.7.3.7.7v2.6Z"/><polygon class="cls-3" points="55 55.2 51.9 53.4 51.9 53.4 48.7 55.2 48.7 56.7 46.4 56.7 46.4 57.6 49.6 57.6 49.6 55.7 51.9 54.4 54.1 55.7 54.1 57.6 57.4 57.6 57.4 56.7 55 56.7 55 55.2"/><path class="cls-3" d="M47.2,68.6h1.3v-2.1c0-.4-.3-.7-.7-.7s-.7.3-.7.7v2.1Z"/><path class="cls-3" d="M53.9,81.4v-7.2c0-1.1-.9-2-2-2s-2,.9-2,2v7.2h.9v-7.2c0-.6.5-1.1,1.1-1.1s1.1.5,1.1,1.1v7.2h.9Z"/><polygon class="cls-3" points="44.1 80.6 45 81.1 45 55.2 44.1 55.2 44.1 80.6"/><path class="cls-3" d="M52.8,56.9c0-.5-.4-.9-.9-.9s-.9.4-.9.9.4.9.9.9.9-.4.9-.9Z"/><rect class="cls-3" x="47.2" y="61.7" width="1.3" height="2.8"/><path class="cls-3" d="M51.9,58.5c-1,0-1.9.3-2.6.9h-3v.9h3.3c.6-.6,1.4-.9,2.2-.9s1.6.3,2.2.9h3.3v-.9h-2.9c-.7-.6-1.6-.9-2.6-.9Z"/><path class="cls-3" d="M53.5,64.5v-2.1c0-.9-.7-1.6-1.6-1.6s-1.6.7-1.6,1.6v2.1h.9v-2.1c0-.4.3-.7.7-.7s.7.3.7.7v2.1h.9Z"/><rect class="cls-3" x="55.3" y="61.7" width="1.3" height="2.8"/><polygon class="cls-3" points="47.6 82.7 46.4 82.1 46.4 83.1 47.3 83.6 56.5 83.6 57.4 83.1 57.4 82.1 56.2 82.7 47.6 82.7"/><rect class="cls-2" x="74.3" y="38.1" width=".9" height="55.6"/></svg>