<?xml version="1.0" encoding="UTF-8" standalone="no"?>
<!-- Created with Inkscape (http://www.inkscape.org/) -->

<svg
   version="1.1"
   id="svg2"
   width="113.38667"
   height="29.866667"
   viewBox="0 0 113.38667 29.866667"
   sodipodi:docname="universidad-pontificia-de-comillas.eps"
   xmlns:inkscape="http://www.inkscape.org/namespaces/inkscape"
   xmlns:sodipodi="http://sodipodi.sourceforge.net/DTD/sodipodi-0.dtd"
   xmlns="http://www.w3.org/2000/svg"
   xmlns:svg="http://www.w3.org/2000/svg">
  <defs
     id="defs6" />
  <sodipodi:namedview
     id="namedview4"
     pagecolor="#ffffff"
     bordercolor="#000000"
     borderopacity="0.25"
     inkscape:showpageshadow="2"
     inkscape:pageopacity="0.0"
     inkscape:pagecheckerboard="0"
     inkscape:deskcolor="#d1d1d1" />
  <g
     id="g8"
     inkscape:groupmode="layer"
     inkscape:label="ink_ext_XXXXXX"
     transform="matrix(1.3333333,0,0,-1.3333333,0,29.866667)">
    <g
       id="g10"
       transform="scale(0.1)">
      <path
         d="m 50.8672,102.914 c 0.5586,-1.906 2.4883,-3.0273 4.4648,-2.824 11.4375,1.183 15.3555,-8.6134 22.293,-4.2892 9.0742,5.6562 14.2969,18.8872 14.2969,18.8872 0,0 -3.9727,0.89 -9.3125,-3.758 -5.336,-4.664 -18.6992,-2.578 -19.5313,6.191 -1.0742,11.457 -7.7187,12.102 -7.7187,12.102 2.8047,-7.696 0.8281,-9.606 0.8281,-9.606 -1.1367,1.531 -3.3359,1.238 -3.3359,1.238 1.625,-2.761 1.4336,-9.812 1.4336,-9.812 -1.1485,1.613 -3.0547,2.285 -3.0547,2.285 0,0 2.1953,-4.008 0.0976,-7.148 -0.7422,-1.121 -0.75,-2.258 -0.4609,-3.266"
         style="fill:#f9a91f;fill-opacity:1;fill-rule:nonzero;stroke:none"
         id="path12" />
      <path
         d="M 103.684,72.5742 C 74.3164,75.9375 77.2773,51.4141 79.5586,46.8672 c 2.2852,-4.543 -1.7852,-8.3203 -1.7852,-8.3203 l -0.6328,0.0781 c -2.0039,0.2578 -3.9843,0.7266 -5.8711,1.4648 -13.0859,5.1368 -18.3125,-3.1484 -18.3125,-3.1484 0,0 5.9766,0.3086 10.0352,-2.0937 0,0 -2.1524,-0.625 -3.3281,-3.8633 0,0 6.1445,2.4687 10.7929,-0.168 0,0 -1.6757,-2.0039 -0.5898,-5.1016 0,0 1.7812,4.254 13.4648,-2.3554 6.5938,-3.7266 6.3203,3.875 6.3203,3.875 0.2735,8.2773 2.6641,11.7187 3.9883,12.9961 1.1563,1.1054 2.2696,2.2539 3.2227,3.5312 10.6757,14.3477 6.8207,28.8125 6.8207,28.8125"
         style="fill:#f9a91f;fill-opacity:1;fill-rule:nonzero;stroke:none"
         id="path14" />
      <path
         d="m 157.262,93.668 c -1.219,5.3554 -4.371,10.035 -8.59,13.555 -2.039,1.703 -3.871,3.812 -4.629,5.453 -1.969,4.281 -1.121,9.918 1.844,11.109 4.633,1.856 5.383,-4.207 5.383,-4.207 l -0.008,-0.015 c -0.883,0.386 -2.836,1.347 -3.242,2.503 0,0 -0.704,-4.378 1.98,-6.742 0,0 -0.574,-0.734 -1.996,0.254 0,0 0.141,-2.363 2.34,-4.586 2.203,-2.226 7.515,-5.722 7.515,-5.722 0,0 -1.984,2.906 -1.41,9.05 0.61,6.535 -2.894,13.871 -9.496,13.375 -5.09,-0.386 -7.332,-5.16 -7.469,-9.433 -0.109,-3.52 1.407,-7.465 3.797,-10.043 2.137,-2.293 6.203,-5.278 5.809,-6.239 0,0 -2.711,2.469 -6.582,1.032 0,0 5.875,-2.848 6.574,-6.5315 0,0 -2.227,0.5429 -3.152,-0.836 0,0 6.84,-1.8515 7.093,-8.332 0.344,-8.7266 -8.238,-14.418 -13.023,-15.875 -7.941,-2.4023 -15.164,3.5195 -13.672,31.2925 l -4.871,-6.3862 -5.277,9.1172 c -4.235,-4.356 -11.676,-8.5626 -15.91,-10.0743 l -1.563,9.5823 C 91.2227,107.195 81.8086,93.375 74.6523,87.6914 70.1445,84.1016 62.7656,82.9727 57.918,82.625 56.2227,82.5117 54.8398,82.4883 54,82.4883 c -0.5117,0 -0.9453,0.3594 -1.0234,0.8633 l -1.25,7.5898 c -0.2071,1.2266 -0.5469,2.4336 -1.1133,3.5547 -2.6758,5.2773 -7.1055,4.4648 -7.1055,4.4648 2.2617,-2.4609 1.5352,-6.9726 1.5352,-6.9726 -1.7188,1.6094 -3.9102,1.1484 -3.9102,1.1484 2.1914,-1.8437 2.7656,-8.3906 2.7656,-8.3906 -0.8046,1.4922 -3.7968,1.7227 -3.7968,1.7227 1.9609,-2.0665 2.5351,-8.1641 2.5351,-8.1641 -1.1601,1.7266 -3.3398,2.1875 -3.3398,2.1875 0.9648,-1.3945 0.6289,-5.293 0.5742,-5.8242 -0.043,0.0429 -0.043,0 0,-0.0703 0,0 0,0.0273 0,0.0703 0.2227,-0.1797 1.3867,-1.6875 4.6133,-7.7383 3.6211,-6.7891 8.0508,-2.8516 10.875,0.2266 0.4765,0.5156 1.3672,1.0078 2.5586,1.4726 5.9023,2.3242 19.2734,4.0977 27.1093,5.8555 9.4258,2.1133 11.1055,8.5234 11.1055,8.5234 0,0 13.5192,-4.4297 12.0782,-19.3515 0,0 8.586,12.7851 15.539,10.7539 -8.574,-0.3438 -27.7773,-34.6016 -2.656,-28.961 2.562,0.5821 1.574,-1.1484 1.152,-2.8789 -2.414,-7.6328 -1.273,-11.1094 -16.269,-17.1094 -4.164,-1.6796 -2.821,-9.2148 -2.926,-9.8476 0,0 4.281,5.3633 8.222,6.0508 0,0 -0.812,-2.7422 1.821,-4.7657 0,0 2.629,6.4688 6.469,6.7696 0,0 0.695,-2.2578 4.187,-4.0586 0,0 -0.449,5.8867 3.195,6.1875 3.637,0.3008 6.313,-0.2578 7.539,6.1484 0.157,0.832 2.344,16.2266 8.411,25.3438 1.929,2.9062 -1.157,2.8242 -1.157,2.8242 0,0 -3.875,-0.0156 -1.703,3.7187 0.61,1.0391 1.985,2.3633 3.02,2.9883 4.902,2.957 18.062,9.8867 14.207,26.8477"
         style="fill:#f9a91f;fill-opacity:1;fill-rule:nonzero;stroke:none"
         id="path16" />
      <path
         d="m 79.0938,137 h 4.2773 c 2.8008,0.008 7.9805,-0.598 7.3281,-6.387 -0.1679,-1.492 -1.7461,-1.168 -8.6211,-1.183 H 80.418 l 0.0078,-3.133 c 0,-1.625 1.414,-2.895 3.0273,-2.727 1.9414,0.196 4.2813,0.469 5.3047,0.696 12.6562,2.886 4.9219,-12.293 2.8945,-15.493 -0.3085,-0.468 -1.7578,-2.933 -1.9843,-3.339 0,0 7.2968,2.121 10.754,2.5 l 1.637,-8.8871 c 0,0 8.804,3.6951 14.601,9.4611 l 5.172,-7.363 3.688,8.402 c 1.343,-0.574 5.406,0 5.406,0 -5.645,4.277 -5.387,8.957 -5.387,8.957 2.824,-1.106 6.289,0.398 6.289,0.398 -4.426,4.508 -4.781,6.707 -5.371,9.848 1.801,0.68 2.859,1.242 2.859,1.242 -3.195,1.758 -4.043,2.617 -4.625,4.106 -0.218,0.547 -0.367,1.121 -0.476,1.691 l -0.328,1.75 c -0.094,0.512 -0.164,1.031 -0.246,1.555 -0.536,3.765 -1.969,6.265 -3.668,7.922 -5.996,6.32 -18.41,5.164 -25.6488,0.644 -5.2148,-3.262 -9.1758,-4.254 -11.5039,-4.527 l -5.0351,-0.008 c -0.6407,0 -1.0743,-0.66 -0.8204,-1.254 z m 19.371,5.691 h 8.3322 c -5.598,-5.339 -8.0861,-3.632 -8.3322,0"
         style="fill:#f9a91f;fill-opacity:1;fill-rule:nonzero;stroke:none"
         id="path18" />
      <path
         d="m 17.9688,193.02 -5.5157,-5.704 7.1914,-6.953 -3.4765,-3.59 -3.5899,3.477 -12.5781,-13 11.1055,-10.742 5.875,6.074 -6.1953,5.992 3.4843,3.59 6.1875,-5.984 2.9571,3.054 0.2656,0.274 3.5937,-3.477 -0.2695,-0.273 -2.9531,-3.059 6.1953,-5.984 -3.4883,-3.594 -6.1836,5.984 -5.8789,-6.074 11.1016,-10.734 12.3086,12.723 0.2656,0.261 3.4766,3.602 17.8281,-17.445 c 2.0547,1.703 4.668,2.972 6.6172,3.406 L 17.9688,193.02"
         style="fill:#f9a91f;fill-opacity:1;fill-rule:nonzero;stroke:none"
         id="path20" />
      <path
         d="m 198.371,156.508 11.102,10.742 -12.575,13 -3.589,-3.48 -3.477,3.589 7.18,6.965 -5.508,5.692 -59.426,-57.317 c 0,0 2.543,-4.961 3.195,-7.988 l 32.352,31.172 3.477,-3.594 0.257,-0.273 12.321,-12.723 11.097,10.738 -5.875,6.074 -6.195,-5.984 -3.477,3.59 6.188,5.992 -2.957,3.055 -0.254,0.273 3.586,3.477 0.27,-0.274 2.953,-3.054 6.187,5.984 3.477,-3.594 -6.188,-5.988 5.879,-6.074"
         style="fill:#f9a91f;fill-opacity:1;fill-rule:nonzero;stroke:none"
         id="path22" />
      <path
         d="M 60.6953,64.0469 38.3125,42.0273 C 38.6211,50.5352 32.4805,58.1172 23.8867,59.3867 14.6563,60.7461 6.0625,54.3398 4.69922,45.1094 3.93359,39.8984 5.63672,34.8867 8.91016,31.2695 8.30859,29.8945 7.89453,28.4375 7.67578,26.9297 7.01172,22.4531 8.14063,17.9883 10.832,14.3633 c 2.6914,-3.6289 6.6368,-5.99611 11.1016,-6.65627 1.3281,-0.1914 2.6406,-0.23047 3.9453,-0.11328 0.4688,0.03516 0.9375,0.10547 1.4063,0.18359 2.5586,-3.90625 6.6953,-6.74218 11.664,-7.472652 1.3321,-0.203125 2.6485,-0.2382817 3.9375,-0.125 7.6133,0.671875 14.0938,6.496092 15.25,14.402312 1.3594,9.2305 -5.0508,17.8516 -14.2695,19.211 -0.9649,0.1445 -1.9258,0.1953 -2.8789,0.1758 L 74.6914,66.5859 Z M 31.8828,41.0938 c -0.8476,-5.7735 -6.2305,-9.7774 -11.9922,-8.9336 -5.7734,0.8554 -9.7734,6.25 -8.9258,12.0195 0.7266,4.9453 4.7774,8.5898 9.543,9.0039 0.8008,0.0664 1.6211,0.043 2.4531,-0.0703 5.7696,-0.8555 9.7657,-6.25 8.9219,-12.0195 M 24.6875,19.5156 c -0.2812,-1.9218 -0.2266,-3.8203 0.125,-5.6328 -0.6445,-0.0234 -1.2969,0.0117 -1.9492,0.1094 -2.7969,0.4062 -5.2578,1.8789 -6.9453,4.1562 -1.6875,2.2657 -2.3828,5.0586 -1.9805,7.8516 0.0742,0.4531 0.1719,0.8906 0.293,1.3164 1.4648,-0.6875 3.0547,-1.1836 4.7304,-1.4297 1.3321,-0.1914 2.6485,-0.2304 3.9375,-0.1133 1.6602,0.1407 3.2735,0.5391 4.7852,1.1368 -1.5313,-2.1289 -2.5898,-4.6329 -2.9961,-7.3946 m 18.2617,8.0039 c 5.7617,-0.8476 9.7656,-6.2382 8.918,-12.0117 C 51.0234,9.73047 45.6406,5.72266 39.875,6.57813 34.1055,7.42578 30.1094,12.8164 30.957,18.5898 c 0.7227,4.9415 4.7735,8.586 9.5274,9 0.8125,0.0704 1.6328,0.0508 2.4648,-0.0703"
         style="fill:#f9a91f;fill-opacity:1;fill-rule:nonzero;stroke:none"
         id="path24" />
      <path
         d="m 147.023,53.5781 20.086,-19.7226 c -0.953,0.0156 -1.914,-0.0352 -2.886,-0.1758 -9.223,-1.3594 -15.621,-9.9805 -14.262,-19.2109 1.156,-7.91021 7.625,-13.734425 15.25,-14.4023937 1.289,-0.1171876 2.602,-0.0820313 3.937,0.1210937 4.961,0.722656 9.106,3.56641 11.665,7.47656 0.468,-0.08203 0.937,-0.15234 1.406,-0.19531 1.297,-0.10547 2.617,-0.07031 3.941,0.125 4.465,0.66016 8.41,3.01565 11.106,6.65235 2.687,3.6289 3.808,8.0937 3.156,12.5586 -0.219,1.5195 -0.637,2.9726 -1.242,4.3398 3.281,3.6289 4.976,8.6407 4.218,13.8399 -1.359,9.2383 -9.964,15.6445 -19.187,14.2851 C 175.617,58 169.473,50.4219 169.785,41.9102 l -19.265,19 c 0,0 -1.325,-4.6758 -3.497,-7.3321 m 38.106,-0.5898 c 0.84,0.1211 1.66,0.1484 2.461,0.0781 4.765,-0.4141 8.808,-4.0586 9.539,-9 0.851,-5.7812 -3.156,-11.1641 -8.918,-12.0195 -5.762,-0.8477 -11.148,3.1562 -11.992,8.9297 -0.848,5.7734 3.148,11.164 8.91,12.0117 m -19.981,-25.582 c 0.829,0.121 1.653,0.1367 2.457,0.0703 4.762,-0.4141 8.813,-4.0625 9.536,-9.0039 0.847,-5.7696 -3.149,-11.16411 -8.918,-12.01176 -5.766,-0.85156 -11.149,3.15234 -11.996,8.93356 -0.844,5.7696 3.152,11.1641 8.921,12.0118 m 15.27,-0.6133 c 1.508,-0.6055 3.113,-0.9961 4.781,-1.1367 1.278,-0.1133 2.606,-0.0782 3.93,0.1171 1.684,0.2461 3.273,0.7422 4.738,1.4258 0.125,-0.4219 0.219,-0.8633 0.289,-1.3125 0.407,-2.7969 -0.289,-5.5859 -1.976,-7.8554 -1.684,-2.2774 -4.157,-3.75 -6.946,-4.1641 -0.652,-0.0977 -1.304,-0.125 -1.949,-0.1094 0.344,1.8203 0.406,3.7188 0.125,5.6406 -0.41,2.7618 -1.465,5.2696 -2.992,7.3946"
         style="fill:#f9a91f;fill-opacity:1;fill-rule:nonzero;stroke:none"
         id="path26" />
      <path
         d="m 85.0703,133.336 c 0,0.164 -0.1328,0.301 -0.3008,0.301 -0.0234,0 -0.0429,-0.012 -0.0625,-0.02 l -0.0078,0.02 c 0,0 -1.1484,-0.258 -2.707,-0.047 -0.7891,0.125 -1.7383,0.351 -2.8867,0.758 -0.2227,0.09 -0.4492,0.168 -0.6875,0.265 -0.0625,0.028 -0.125,0.043 -0.1953,0.071 -0.6719,0.257 -1.4141,0.546 -2.2774,0.867 -5.3125,1.984 -9.5859,-2.922 -9.5859,-2.922 h 0.0117 c -0.043,-0.055 -0.082,-0.125 -0.082,-0.203 0,-0.16 0.1367,-0.301 0.3007,-0.301 0.0899,0 0.168,0.047 0.2227,0.105 0,0 0,0 0.0078,0 0.3008,0.293 0.6719,0.504 0.8828,0.61 0.8477,0.406 2.3907,0.84 4.8867,0.574 0.0352,0 0.0821,-0.008 0.1172,-0.008 0.2305,-0.027 0.4766,-0.062 0.7305,-0.097 0.875,-0.141 1.8203,-0.356 2.8242,-0.68 5.3125,-1.746 8.2891,-0.02 8.7188,0.492 0.0547,0.055 0.0898,0.125 0.0898,0.215"
         style="fill:#f9a91f;fill-opacity:1;fill-rule:nonzero;stroke:none"
         id="path28" />
      <path
         d="m 113.77,213.223 c -1.321,0.265 -2.59,0.539 -3.696,0.902 0.008,0.098 0.024,0.184 0.024,0.289 0,1.297 -1.571,2.399 -3.731,2.809 v 2.152 h 2.446 v 2.594 h -2.497 v 2.062 h -1.238 -2.027 v -2.062 h -2.535 v -2.594 h 2.425 v -2.117 c -2.285,-0.363 -3.9605,-1.5 -3.9605,-2.844 0,-0.07 0.0117,-0.141 0.0156,-0.211 -1.2305,-0.406 -2.6445,-0.695 -4.0391,-0.98 -3.7968,-0.758 -33.6757,-2.426 -11.0312,-51.918 l 0.9805,-2.133 c 6.1601,2.25 12.7968,3.469 19.7227,3.469 6.934,0 13.23,-1 19.387,-3.25 l 0.777,1.914 c 22.645,49.492 -7.227,51.16 -11.023,51.918 m -9.387,-2.567 c 25.301,-0.027 24.558,-12.222 24.558,-12.222 -0.582,-4.227 -11.597,-0.512 -10.98,5.523 l -0.738,0.106 c -1.766,-7.422 -12.965,-5.489 -12.243,1.765 h -0.597 -0.449 c 0.714,-7.254 -10.4848,-9.187 -12.2426,-1.765 l -0.7422,-0.106 c 0.6211,-6.035 -10.414,-9.75 -10.9961,-5.523 0,0 -0.8711,12.195 24.4299,12.222 m 15.355,-45.203 c -2.675,0 -4.808,2.305 -4.543,5.051 l -0.586,0.086 c -1.375,-5.789 -10.113,-4.262 -9.558,1.394 h -0.961 c 0.547,-5.675 -8.1994,-7.183 -9.5744,-1.375 l -0.5742,-0.089 c 0.5469,-5.383 -7.7305,-7.485 -9.6289,-1.395 l -2.1523,5.586 0.6718,0.301 c 13.5821,6.324 30.09,5.754 43.672,-0.141 -1.039,-3.418 -1.984,-9.418 -6.766,-9.418 m 3.399,15.32 c -3.223,0.055 -6.18,2.875 -5.844,6.188 l -0.707,0.125 c -1.656,-7.016 -12.238,-5.176 -11.559,1.656 h -1.175 c 0.687,-6.836 -9.8989,-8.672 -11.5434,-1.656 l -0.707,-0.117 c 0.6562,-6.504 -9.3516,-9.028 -11.6485,-1.676 l -0.7031,5.629 c 16.3945,7.637 34.043,7 50.477,-0.121 -0.946,-4.051 -0.149,-10.141 -6.59,-10.028"
         style="fill:#f9a91f;fill-opacity:1;fill-rule:nonzero;stroke:none"
         id="path30" />
      <path
         d="m 311.625,77.2422 c 0,-3.0274 0.082,-3.625 0.758,-4.7461 0.762,-1.2734 2.191,-2.0313 3.832,-2.0313 1.793,0 3.344,0.8399 4.058,2.1563 0.602,1.0273 0.723,1.832 0.723,4.6211 v 14.3945 h 6.895 V 76.2891 c 0,-3.9102 -0.68,-6.0274 -2.586,-8.1797 -2.231,-2.5078 -5.27,-3.7422 -9.293,-3.7422 -3.946,0 -7.535,1.5547 -9.371,3.9883 -1.395,1.8281 -1.914,4.0234 -1.914,7.9336 v 15.3476 h 6.898 V 77.2422"
         style="fill:#454b51;fill-opacity:1;fill-rule:nonzero;stroke:none"
         id="path32" />
      <path
         d="m 333.477,91.6367 h 6.898 l 12.719,-16.2656 v 16.2656 h 6.89 V 65.0352 h -6.89 L 340.375,81.3125 V 65.0352 h -6.898 v 26.6015"
         style="fill:#454b51;fill-opacity:1;fill-rule:nonzero;stroke:none"
         id="path34" />
      <path
         d="m 372.469,65.043 h -6.903 v 26.5937 h 6.903 V 65.043"
         style="fill:#454b51;fill-opacity:1;fill-rule:nonzero;stroke:none"
         id="path36" />
      <path
         d="m 389.176,75.4492 6.461,16.1836 h 7.488 L 391.805,65.043 h -5.383 l -11.164,26.5898 h 7.535 l 6.383,-16.1836"
         style="fill:#454b51;fill-opacity:1;fill-rule:nonzero;stroke:none"
         id="path38" />
      <path
         d="m 412.82,85.7734 v -4.4218 h 7.774 v -5.8594 h -7.774 v -4.5899 h 8.215 V 65.043 h -15.117 v 26.5898 h 15.117 v -5.8594 h -8.215"
         style="fill:#454b51;fill-opacity:1;fill-rule:nonzero;stroke:none"
         id="path40" />
      <path
         d="m 447.508,65.0391 h -8.613 L 432.313,75.25 V 65.0391 h -6.895 v 26.5976 h 10.723 c 3.039,0 4.984,-0.7148 6.543,-2.3554 1.437,-1.5118 2.273,-3.6719 2.273,-5.8594 0,-3.9922 -2.039,-6.6211 -5.824,-7.4922 z m -13.914,14.6757 c 2.707,0 4.258,1.2344 4.258,3.3086 0,2.0743 -1.586,3.3086 -4.258,3.3086 h -1.281 v -6.6172 h 1.281"
         style="fill:#454b51;fill-opacity:1;fill-rule:nonzero;stroke:none"
         id="path42" />
      <path
         d="m 465.012,84.7383 c -1.555,1.2344 -2.949,1.789 -4.543,1.789 -1.633,0 -2.949,-0.996 -2.949,-2.2656 0,-0.8398 0.593,-1.5195 1.789,-2.0742 0.367,-0.1602 0.636,-0.2383 2.996,-0.9609 4.621,-1.3516 6.535,-3.5469 6.535,-7.3672 0,-5.9844 -3.828,-9.5 -10.367,-9.5 -3.231,0 -6.461,1.0429 -9.246,2.9922 l 2.945,5.5859 c 2.117,-1.8359 4.066,-2.7187 6.098,-2.7187 2.039,0 3.351,1.0429 3.351,2.5976 0,1.4375 -0.918,2.1133 -4.148,3.0703 -3.028,0.875 -4.18,1.3946 -5.18,2.2305 -1.313,1.1562 -1.992,2.8672 -1.992,5.1797 0,5.3515 3.664,8.9765 9.047,8.9765 2.797,0 5.742,-0.7578 8.418,-2.1523 l -2.754,-5.3828"
         style="fill:#454b51;fill-opacity:1;fill-rule:nonzero;stroke:none"
         id="path44" />
      <path
         d="m 480.086,65.043 h -6.902 v 26.5937 h 6.902 V 65.043"
         style="fill:#454b51;fill-opacity:1;fill-rule:nonzero;stroke:none"
         id="path46" />
      <path
         d="m 485.668,91.6328 h 10.199 c 7.016,0 13.078,-6.1328 13.078,-13.2734 0,-7.1758 -6.062,-13.3164 -13.078,-13.3164 h -10.199 z m 8.488,-20.7305 c 4.586,0 7.571,2.9493 7.571,7.4571 0,4.4648 -2.985,7.414 -7.571,7.414 h -1.597 V 70.9023 h 1.597"
         style="fill:#454b51;fill-opacity:1;fill-rule:nonzero;stroke:none"
         id="path48" />
      <path
         d="m 518.871,69.6641 -1.836,-4.625 h -7.289 l 10.203,26.5976 h 7.535 l 10.008,-26.5976 h -7.379 l -1.711,4.625 z m 4.828,13.7578 -2.914,-8.4922 h 5.746 z"
         style="fill:#454b51;fill-opacity:1;fill-rule:nonzero;stroke:none"
         id="path50" />
      <path
         d="m 540.566,91.6328 h 10.204 c 7.015,0 13.078,-6.1328 13.078,-13.2734 0,-7.1758 -6.063,-13.3164 -13.078,-13.3164 h -10.204 z m 8.489,-20.7305 c 4.582,0 7.574,2.9493 7.574,7.4571 0,4.4648 -2.992,7.414 -7.574,7.414 h -1.594 V 70.9023 h 1.594"
         style="fill:#454b51;fill-opacity:1;fill-rule:nonzero;stroke:none"
         id="path52" />
      <path
         d="m 589.57,65.043 h -6.902 v 26.5898 h 10.973 c 3.105,0 4.941,-0.5937 6.652,-2.2265 1.715,-1.5977 2.598,-3.793 2.598,-6.504 0,-5.8945 -3.118,-9.0078 -9.02,-9.0078 h -4.301 z m 2.27,14.3945 c 2.672,0 3.832,1.0313 3.832,3.3867 0,2.1524 -1.281,3.2735 -3.789,3.2735 h -2.313 v -6.6602 h 2.27"
         style="fill:#454b51;fill-opacity:1;fill-rule:nonzero;stroke:none"
         id="path54" />
      <path
         d="m 635.516,78.2773 c 0,-8.0898 -6.305,-14.1992 -14.723,-14.1992 -8.41,0 -14.711,6.1094 -14.711,14.1992 0,8.0586 6.301,14.1563 14.711,14.1563 8.418,0 14.723,-6.0625 14.723,-14.1563 m -22.215,0 c 0,-4.1445 3.351,-7.4921 7.492,-7.4921 4.148,0 7.5,3.3476 7.5,7.4921 0,4.1055 -3.352,7.461 -7.5,7.461 -4.141,0 -7.492,-3.3555 -7.492,-7.461"
         style="fill:#454b51;fill-opacity:1;fill-rule:nonzero;stroke:none"
         id="path56" />
      <path
         d="m 639.168,91.6367 h 6.902 l 12.719,-16.2656 v 16.2656 h 6.899 V 65.0352 h -6.899 L 646.07,81.3125 V 65.0352 h -6.902 v 26.6015"
         style="fill:#454b51;fill-opacity:1;fill-rule:nonzero;stroke:none"
         id="path58" />
      <path
         d="m 681.273,65.043 h -6.902 v 20.7304 h -5.621 v 5.8672 h 18.27 v -5.8672 h -5.747 V 65.043"
         style="fill:#454b51;fill-opacity:1;fill-rule:nonzero;stroke:none"
         id="path60" />
      <path
         d="m 696.941,65.043 h -6.902 v 26.5937 h 6.902 V 65.043"
         style="fill:#454b51;fill-opacity:1;fill-rule:nonzero;stroke:none"
         id="path62" />
      <path
         d="m 709.426,85.7734 v -4.4218 h 7.57 v -5.8594 h -7.57 V 65.043 h -6.903 v 26.5898 h 15.231 v -5.8594 h -8.328"
         style="fill:#454b51;fill-opacity:1;fill-rule:nonzero;stroke:none"
         id="path64" />
      <path
         d="m 729.484,65.043 h -6.898 v 26.5937 h 6.898 V 65.043"
         style="fill:#454b51;fill-opacity:1;fill-rule:nonzero;stroke:none"
         id="path66" />
      <path
         d="m 753.484,82.5859 c -1.636,1.9493 -3.593,2.9141 -5.984,2.9141 -4.148,0 -7.141,-3.0742 -7.141,-7.3437 0,-4.1016 3.036,-7.1329 7.141,-7.1329 2.273,0 4.191,0.875 5.984,2.7891 v -8.1719 c -3.23,-1.0742 -4.308,-1.3125 -6.101,-1.3125 -8.02,0 -14.235,6.0586 -14.235,13.8711 0,7.7735 6.258,13.9961 14.079,13.9961 2.062,0 3.742,-0.3633 6.257,-1.3594 v -8.25"
         style="fill:#454b51;fill-opacity:1;fill-rule:nonzero;stroke:none"
         id="path68" />
      <path
         d="m 764.758,65.043 h -6.899 v 26.5937 h 6.899 V 65.043"
         style="fill:#454b51;fill-opacity:1;fill-rule:nonzero;stroke:none"
         id="path70" />
      <path
         d="m 776.961,69.6641 -1.836,-4.625 h -7.289 l 10.199,26.5976 h 7.539 l 10.004,-26.5976 h -7.375 l -1.711,4.625 z m 4.828,13.7578 -2.914,-8.4922 h 5.746 z"
         style="fill:#454b51;fill-opacity:1;fill-rule:nonzero;stroke:none"
         id="path72" />
      <path
         d="m 315.426,178.578 c -4.969,5.258 -12.485,8.422 -20.125,8.422 -17.098,0 -26.918,-13.68 -26.918,-27.359 0,-13.36 10.183,-26.731 26.801,-26.731 7.632,0 15.273,3.477 20.242,8.422 v -18.41 c -6.668,-2.734 -13.332,-4.742 -20.738,-4.742 -25.708,0 -44.743,19.258 -44.743,41.144 0,22.52 18.313,42.403 45.114,42.403 7.148,0 14.183,-1.684 20.367,-4.633 v -18.516"
         style="fill:#454b51;fill-opacity:1;fill-rule:nonzero;stroke:none"
         id="path74" />
      <path
         d="m 328.02,160.582 c 0,22.203 18.55,41.672 45.226,41.672 26.668,0 45.227,-19.469 45.227,-41.672 0,-22.723 -18.559,-41.875 -45.227,-41.875 -26.676,0 -45.226,19.152 -45.226,41.875 m 18.425,0.637 c 0,-11.996 11.641,-27.254 26.801,-27.254 15.152,0 26.793,15.258 26.793,27.254 0,12.84 -11.156,25.777 -26.793,25.777 -15.648,0 -26.801,-12.937 -26.801,-25.777"
         style="fill:#454b51;fill-opacity:1;fill-rule:nonzero;stroke:none"
         id="path76" />
      <path
         d="m 502.402,169.004 h -0.242 l -20.734,-50.293 h -6.188 l -20.008,50.293 h -0.238 l -8.125,-49.242 h -17.941 l 15.398,81.441 h 12.61 l 22.546,-52.293 21.586,52.293 h 12.86 l 13.695,-81.441 H 509.68 l -7.278,49.242"
         style="fill:#454b51;fill-opacity:1;fill-rule:nonzero;stroke:none"
         id="path78" />
      <path
         d="m 563.484,119.762 h -17.828 v 81.445 h 17.828 v -81.445"
         style="fill:#454b51;fill-opacity:1;fill-rule:nonzero;stroke:none"
         id="path80" />
      <path
         d="m 602.203,133.23 h 25.219 v -13.468 h -43.047 v 81.437 h 17.828 V 133.23"
         style="fill:#454b51;fill-opacity:1;fill-rule:nonzero;stroke:none"
         id="path82" />
      <path
         d="m 658.965,133.23 h 25.223 v -13.468 h -43.047 v 81.437 h 17.824 V 133.23"
         style="fill:#454b51;fill-opacity:1;fill-rule:nonzero;stroke:none"
         id="path84" />
      <path
         d="m 722.234,136.488 -7.519,-16.73 h -18.797 l 35.652,81.445 h 13.821 l 34.679,-81.445 h -19.035 l -7.031,16.73 z m 15.399,41.457 h -0.246 l -10.063,-28.828 h 21.703 l -11.394,28.828"
         style="fill:#454b51;fill-opacity:1;fill-rule:nonzero;stroke:none"
         id="path86" />
      <path
         d="m 838.457,182.684 c -3.547,3.996 -8.102,6.519 -14.316,6.519 -5.946,0 -11.649,-3.781 -11.649,-8.937 0,-13.368 37.867,-7.793 37.867,-34.411 0,-15.89 -11.902,-27.144 -31.406,-27.144 -13.164,0 -22.793,6.312 -29.375,15.461 l 12.024,9.789 c 2.535,-6.102 9.25,-11.57 17.226,-11.57 7.598,0 12.285,5.367 12.285,11.464 0,8.208 -9.113,10.528 -16.59,12.946 -12.285,4.207 -21.277,9.363 -21.277,21.672 0,13.152 11.781,23.785 27.859,23.785 8.493,0 20.262,-3.477 26.09,-8.844 l -8.738,-10.73"
         style="fill:#454b51;fill-opacity:1;fill-rule:nonzero;stroke:none"
         id="path88" />
      <path
         d="m 450.117,0 h -200.14 v 37.418 h 200.14 V 0"
         style="fill:#27468c;fill-opacity:1;fill-rule:nonzero;stroke:none"
         id="path90" />
      <path
         d="M 850.398,0 H 650.254 V 37.418 H 850.398 V 0"
         style="fill:#68a3dd;fill-opacity:1;fill-rule:nonzero;stroke:none"
         id="path92" />
      <path
         d="m 326.137,10.1211 h -4.465 V 27.332 h 4.465 V 10.1211"
         style="fill:#ffffff;fill-opacity:1;fill-rule:nonzero;stroke:none"
         id="path94" />
      <path
         d="m 344.227,21.4766 c -1.063,1.2617 -2.321,1.8906 -3.875,1.8906 -2.684,0 -4.618,-1.9961 -4.618,-4.7578 0,-2.6563 1.961,-4.6172 4.618,-4.6172 1.472,0 2.707,0.5664 3.875,1.8125 v -5.2969 c -2.09,-0.6953 -2.789,-0.84764 -3.946,-0.84764 -5.191,0 -9.215,3.91794 -9.215,8.97654 0,5.0391 4.051,9.0625 9.11,9.0625 1.34,0 2.426,-0.2383 4.051,-0.8828 v -5.3398"
         style="fill:#ffffff;fill-opacity:1;fill-rule:nonzero;stroke:none"
         id="path96" />
      <path
         d="m 355.605,13.1172 -1.179,-2.9922 h -4.731 l 6.61,17.2109 h 4.879 L 367.66,10.125 h -4.773 l -1.114,2.9922 z m 3.125,8.9023 -1.886,-5.5 h 3.722 z"
         style="fill:#ffffff;fill-opacity:1;fill-rule:nonzero;stroke:none"
         id="path98" />
      <path
         d="m 378.43,10.1211 h -4.465 V 27.332 h 4.465 V 10.1211"
         style="fill:#ffffff;fill-opacity:1;fill-rule:nonzero;stroke:none"
         id="path100" />
      <path
         d="m 732.434,21.5391 c -1.059,1.2656 -2.321,1.8828 -3.871,1.8828 -2.684,0 -4.618,-1.9844 -4.618,-4.75 0,-2.6563 1.961,-4.6133 4.618,-4.6133 1.472,0 2.714,0.5625 3.871,1.8086 v -5.2969 c -2.09,-0.6953 -2.789,-0.84764 -3.954,-0.84764 -5.179,0 -9.203,3.91794 -9.203,8.97654 0,5.0391 4.051,9.0664 9.11,9.0664 1.34,0 2.426,-0.2422 4.047,-0.8867 v -5.3398"
         style="fill:#ffffff;fill-opacity:1;fill-rule:nonzero;stroke:none"
         id="path102" />
      <path
         d="m 742.813,10.1133 h -4.465 v 17.207 h 4.465 v -17.207"
         style="fill:#ffffff;fill-opacity:1;fill-rule:nonzero;stroke:none"
         id="path104" />
      <path
         d="m 758.984,20.6523 v 6.6524 h 4.465 v -17.207 h -4.465 v 7.0703 h -6.476 v -7.0703 h -4.469 v 17.207 h 4.469 v -6.6524 h 6.476"
         style="fill:#ffffff;fill-opacity:1;fill-rule:nonzero;stroke:none"
         id="path106" />
      <path
         d="m 778.898,22.8477 c -1.007,0.8007 -1.906,1.1562 -2.941,1.1562 -1.059,0 -1.914,-0.6445 -1.914,-1.4687 0,-0.5469 0.391,-0.9766 1.164,-1.3399 0.231,-0.1055 0.418,-0.1562 1.934,-0.6172 2.992,-0.8828 4.234,-2.3008 4.234,-4.7734 0,-3.875 -2.477,-6.15236 -6.715,-6.15236 -2.082,0 -4.172,0.67966 -5.98,1.94146 l 1.906,3.6093 c 1.367,-1.1836 2.637,-1.7539 3.953,-1.7539 1.313,0 2.16,0.668 2.16,1.6836 0,0.9297 -0.59,1.3672 -2.683,1.9844 -1.957,0.5703 -2.707,0.9023 -3.352,1.4414 -0.848,0.7461 -1.289,1.8633 -1.289,3.3594 0,3.4531 2.375,5.8008 5.859,5.8008 1.801,0 3.719,-0.4844 5.446,-1.3868 l -1.782,-3.4843"
         style="fill:#ffffff;fill-opacity:1;fill-rule:nonzero;stroke:none"
         id="path108" />
      <path
         d="M 650.223,0 H 450.082 V 37.418 H 650.223 V 0"
         style="fill:#c11647;fill-opacity:1;fill-rule:nonzero;stroke:none"
         id="path110" />
      <path
         d="M 514.715,10.1211 H 510.25 V 27.332 h 4.465 V 10.1211"
         style="fill:#ffffff;fill-opacity:1;fill-rule:nonzero;stroke:none"
         id="path112" />
      <path
         d="m 532.805,21.4766 c -1.059,1.2617 -2.317,1.8906 -3.871,1.8906 -2.684,0 -4.618,-1.9961 -4.618,-4.7578 0,-2.6563 1.961,-4.6172 4.618,-4.6172 1.472,0 2.707,0.5664 3.871,1.8125 v -5.2969 c -2.09,-0.6953 -2.785,-0.84764 -3.95,-0.84764 -5.183,0 -9.207,3.91794 -9.207,8.97654 0,5.0391 4.051,9.0625 9.11,9.0625 1.34,0 2.426,-0.2383 4.047,-0.8828 v -5.3398"
         style="fill:#ffffff;fill-opacity:1;fill-rule:nonzero;stroke:none"
         id="path114" />
      <path
         d="m 544.188,13.1172 -1.18,-2.9922 h -4.723 l 6.602,17.2109 h 4.879 l 6.476,-17.2109 h -4.773 l -1.11,2.9922 z m 3.125,8.9023 -1.891,-5.5 h 3.726 z"
         style="fill:#ffffff;fill-opacity:1;fill-rule:nonzero;stroke:none"
         id="path116" />
      <path
         d="m 560.664,27.3398 h 6.609 c 4.536,0 8.461,-3.9804 8.461,-8.5976 0,-4.6406 -3.925,-8.6211 -8.461,-8.6211 h -6.609 z m 5.496,-13.4257 c 2.965,0 4.906,1.9101 4.906,4.8281 0,2.8867 -1.941,4.8047 -4.906,4.8047 h -1.031 v -9.6328 h 1.031"
         style="fill:#ffffff;fill-opacity:1;fill-rule:nonzero;stroke:none"
         id="path118" />
      <path
         d="m 584.746,23.543 v -2.8711 h 5.027 v -3.793 h -5.027 v -2.9648 h 5.313 v -3.793 h -9.778 v 17.2187 h 9.778 V 23.543 h -5.313"
         style="fill:#ffffff;fill-opacity:1;fill-rule:nonzero;stroke:none"
         id="path120" />
    </g>
  </g>
</svg>
